{
.appVersion = "1176";
DisplayStrings = (
"/Dzcaron/Dzcaron/Dzcaron",
A
);
classes = (
{
automatic = 1;
code = "zero
one
two
three
four
five
six
seven
eight
nine";
name = figures;
},
{
automatic = 1;
code = "zero.dnom
one.dnom
two.dnom
three.dnom
four.dnom
five.dnom
six.dnom
seven.dnom
eight.dnom
nine.dnom";
name = dnom;
},
{
automatic = 1;
code = "zero.numr
one.numr
two.numr
three.numr
four.numr
five.numr
six.numr
seven.numr
eight.numr
nine.numr";
name = numr;
},
{
automatic = 1;

glyphs = (
{
glyphname = A;
layers = (
{
anchors = (
{
name = bottom;
position = "{202, 0}";
},
{
name = ogonek;
position = "{451, 0}";
},
{
name = top;
position = "{349, 660}";
}
);
background = {
paths = (
{
closed = 1;
nodes = (
"416 660 LINE",
"270 660 LINE",
"-28 0 LINE",
"88 0 LINE",
"113 63 OFFCURVE",
"132 111 OFFCURVE",
"156 168 CURVE",
"343 168 LINE",
"344 153 OFFCURVE",
"349 108 OFFCURVE",
"351 93 CURVE SMOOTH",
"358 37 OFFCURVE",
"373 -20 OFFCURVE",
"431 -20 CURVE SMOOTH",
"464 -20 OFFCURVE",
"493 -2 OFFCURVE",
"501 30 CURVE",
"473 48 OFFCURVE",
"465 89 OFFCURVE",
"462 123 CURVE SMOOTH"
);
},
{
closed = 1;
nodes = (
"338 239 LINE",
"185 239 LINE",
"223 334 OFFCURVE",
"261 433 OFFCURVE",
"319 578 CURVE"
);
}
);
};
layerId = "B7BBAE14-F4F3-4898-8D83-DD158C3247C2";
paths = (
{
closed = 1;
nodes = (
"416 660 CURVE",
"270 660 LINE",
"-28 0 LINE",
"88 0 LINE",
"113 63 OFFCURVE",
"132 111 OFFCURVE",
"156 168 CURVE",
"343 168 LINE",
"350 58 OFFCURVE",
"360 -20 OFFCURVE",
"428 -20 CURVE SMOOTH",
"461 -20 OFFCURVE",
"489 0 OFFCURVE",
"497 26 CURVE",
"458 62 OFFCURVE",
"450 254 OFFCURVE"
);
},
{
closed = 1;
nodes = (
"338 239 LINE",
"185 239 LINE",
"223 334 OFFCURVE",
"261 433 OFFCURVE",
"319 578 CURVE"
);
}
);
width = 536;
},
{
anchors = (
{
name = bottom;
position = "{211, 0}";
},
{
name = ogonek;
position = "{461, 0}";
},
{
name = top;
position = "{348, 660}";
}
);
background = {
paths = (
{
closed = 1;
nodes = (
"448 660 LINE",
"263 660 LINE",
"-44 0 LINE",
"84 0 LINE",
"105 56 OFFCURVE",
"124 105 OFFCURVE",
"148 164 CURVE",
"328 164 LINE",
"331 141 OFFCURVE",
"334 111 OFFCURVE",
"338 93 CURVE SMOOTH",
"350 30 OFFCURVE",
"374 -20 OFFCURVE",
"441 -20 CURVE SMOOTH",
"484 -20 OFFCURVE",
"520 1 OFFCURVE",
"533 35 CURVE",
"501 55 OFFCURVE",
"490 103 OFFCURVE",
"487 148 CURVE SMOOTH"
);
},
{
closed = 1;
nodes = (
"324 239 LINE",
"178 239 LINE",
"214 325 OFFCURVE",
"251 419 OFFCURVE",
"307 549 CURVE"
);
}
);
};
layerId = "7A350A25-044B-4D59-B0E9-6A59A980AC73";
paths = (
{
closed = 1;
nodes = (
"448 660 CURVE",
"263 660 LINE",
"-44 0 LINE",
"84 0 LINE",
"105 56 OFFCURVE",
"124 105 OFFCURVE",
"148 164 CURVE",
"328 164 LINE",
"342 53 OFFCURVE",
"355 -20 OFFCURVE",
"437 -20 CURVE SMOOTH",
"480 -20 OFFCURVE",
"512 4 OFFCURVE",
"525 35 CURVE",
"487 83 OFFCURVE",
"480 233 OFFCURVE"
);
},
{
closed = 1;
nodes = (
"324 239 LINE",
"178 239 LINE",
"214 325 OFFCURVE",
"251 419 OFFCURVE",
"307 549 CURVE"
);
}
);
width = 562;
},
{
anchors = (
{
name = bottom;
position = "{225, 0}";
},
{
name = ogonek;
position = "{472, 0}";
},
{
name = top;
position = "{362, 660}";
}
);
background = {
paths = (
{
closed = 1;
nodes = (
"479 660 LINE",
"255 660 LINE",
"-60 0 LINE",
"80 0 LINE",
"96 48 OFFCURVE",
"115 99 OFFCURVE",
"140 160 CURVE",
"313 160 LINE",
"317 129 OFFCURVE",
"319 114 OFFCURVE",
"324 93 CURVE SMOOTH",
"341 23 OFFCURVE",
"375 -20 OFFCURVE",
"450 -20 CURVE SMOOTH",
"504 -20 OFFCURVE",
"546 3 OFFCURVE",
"564 40 CURVE",
"529 61 OFFCURVE",
"515 117 OFFCURVE",
"511 173 CURVE SMOOTH"
);
},
{
closed = 1;
nodes = (
"309 239 LINE",
"171 239 LINE",
"204 316 OFFCURVE",
"241 404 OFFCURVE",
"294 520 CURVE"
);
}
);
};
layerId = "1597CCFE-0C49-4087-BB13-985DDBBCAFFD";
paths = (
{
closed = 1;
nodes = (
"479 660 CURVE",
"255 660 LINE",
"-60 0 LINE",
"80 0 LINE",
"96 48 OFFCURVE",
"115 99 OFFCURVE",
"140 160 CURVE",
"313 160 LINE",
"327 49 OFFCURVE",
"350 -20 OFFCURVE",
"446 -20 CURVE SMOOTH",
"500 -20 OFFCURVE",
"537 5 OFFCURVE",
"553 40 CURVE",
"501 111 OFFCURVE",
"500 293 OFFCURVE"
);
},
{
closed = 1;
nodes = (
"309 239 LINE",
"171 239 LINE",
"204 316 OFFCURVE",
"241 404 OFFCURVE",
"294 520 CURVE"
);
}
);
width = 588;
},
{
anchors = (
{
name = bottom;
position = "{258, 0}";
},
{
name = ogonek;
position = "{515, 0}";
},
{
name = top;
position = "{395, 660}";
}
);
background = {
paths = (
{
closed = 1;
nodes = (
"531 660 LINE",
"267 660 LINE",
"-56 0 LINE",
"96 0 LINE",
"107 41 OFFCURVE",
"126 93 OFFCURVE",
"152 156 CURVE",
"318 156 LINE",
"323 117 OFFCURVE",
"324 117 OFFCURVE",
"330 93 CURVE SMOOTH",
"352 16 OFFCURVE",
"397 -20 OFFCURVE",
"481 -20 CURVE SMOOTH",
"545 -20 OFFCURVE",
"593 5 OFFCURVE",
"616 45 CURVE",
"578 67 OFFCURVE",
"561 131 OFFCURVE",
"556 199 CURVE SMOOTH"
);
},
{
closed = 1;
nodes = (
"315 239 LINE",
"184 239 LINE",
"215 307 OFFCURVE",
"251 390 OFFCURVE",
"302 490 CURVE"
);
}
);
};
layerId = "30A38917-B9D2-447A-AF98-EAADDBDD04CD";
paths = (
{
closed = 1;
nodes = (
"531 660 CURVE",
"267 660 LINE",
"-56 0 LINE",
"96 0 LINE",
"107 41 OFFCURVE",
"126 93 OFFCURVE",
"152 156 CURVE",
"318 156 LINE",
"333 42 OFFCURVE",
"368 -20 OFFCURVE",
"471 -20 CURVE SMOOTH",
"535 -20 OFFCURVE",
"583 5 OFFCURVE",
"606 45 CURVE",
"551 128 OFFCURVE",
"552 265 OFFCURVE"
);
},
{
closed = 1;
nodes = (
"315 239 LINE",
"184 239 LINE",
"215 307 OFFCURVE",
"251 390 OFFCURVE",
"302 490 CURVE"
);
}
);
width = 615;
},
{
anchors = (
{
name = bottom;
position = "{202, 0}";
},
{
name = ogonek;
position = "{451, 0}";
},
{
name = top;
position = "{353, 660}";
}
);
layerId = "1252CFB8-7EB2-4C2F-9C11-14383990C0AA";
paths = (
{
closed = 1;
nodes = (
"406 660 CURVE",
"278 660 LINE",
"-16 0 LINE",
"95 0 LINE",
"122 66 OFFCURVE",
"141 114 OFFCURVE",
"165 170 CURVE",
"355 170 LINE",
"360 60 OFFCURVE",
"367 -20 OFFCURVE",
"429 -20 CURVE SMOOTH",
"457 -20 OFFCURVE",
"483 -2 OFFCURVE",
"489 22 CURVE",
"451 51 OFFCURVE",
"442 254 OFFCURVE"
);
},
{
closed = 1;
nodes = (
"350 239 LINE",
"193 239 LINE",
"232 338 OFFCURVE",
"271 440 OFFCURVE",
"330 591 CURVE"
);
}
);
width = 534;
}
);
leftKerningGroup = A;
note = A;
unicode = 0041;
},
{
glyphname = Aacute;
layers = (
{
background = {
paths = (
{
closed = 1;
nodes = (
"273 713 LINE",
"388 719 LINE SMOOTH",
"448 722 OFFCURVE",
"521 732 OFFCURVE",
"521 800 CURVE SMOOTH",
"521 821 OFFCURVE",
"514 835 OFFCURVE",
"499 845 CURVE",
"265 756 LINE"
);
},
{
closed = 1;
nodes = (
"416 660 LINE",
"270 660 LINE",
"-28 0 LINE",
"88 0 LINE",
"113 63 OFFCURVE",
"132 111 OFFCURVE",
"156 168 CURVE",
"343 168 LINE",
"344 153 OFFCURVE",
"349 108 OFFCURVE",
"351 93 CURVE SMOOTH",
"358 37 OFFCURVE",
"373 -20 OFFCURVE",
"431 -20 CURVE SMOOTH",
"464 -20 OFFCURVE",
"493 -2 OFFCURVE",
"501 30 CURVE",
"473 48 OFFCURVE",
"465 89 OFFCURVE",
"462 123 CURVE SMOOTH"
);
},
{
closed = 1;
nodes = (
"338 239 LINE",
"185 239 LINE",
"223 334 OFFCURVE",
"261 433 OFFCURVE",
"319 578 CURVE"
);
}
);
};
components = (
{
name = A;
},
{
name = acutecomb.case;
transform = "{1, 0, 0, 1, 422, 0}";
}
);
layerId = "B7BBAE14-F4F3-4898-8D83-DD158C3247C2";
width = 536;
},
{
background = {
paths = (
{
closed = 1;
nodes = (
"286 712 LINE",
"403 717 LINE SMOOTH",
"470 719 OFFCURVE",
"541 735 OFFCURVE",
"541 804 CURVE SMOOTH",
"541 827 OFFCURVE",
"532 842 OFFCURVE",
"516 853 CURVE",
"276 758 LINE"
);
},
{
closed = 1;
nodes = (
"448 660 LINE",
"263 660 LINE",
"-44 0 LINE",
"84 0 LINE",
"105 56 OFFCURVE",
"124 105 OFFCURVE",
"148 164 CURVE",
"328 164 LINE",
"331 141 OFFCURVE",
"334 111 OFFCURVE",
"338 93 CURVE SMOOTH",
"350 30 OFFCURVE",
"374 -20 OFFCURVE",
"441 -20 CURVE SMOOTH",
"484 -20 OFFCURVE",
"520 1 OFFCURVE",
"533 35 CURVE",
"501 55 OFFCURVE",
"490 103 OFFCURVE",
"487 148 CURVE SMOOTH"
);
},
{
closed = 1;
nodes = (
"324 239 LINE",
"178 239 LINE",
"214 325 OFFCURVE",
"251 419 OFFCURVE",
"307 549 CURVE"
);
}
);
};
components = (
{
name = A;
},
{
name = acutecomb.case;
transform = "{1, 0, 0, 1, 428, 0}";
}
);
layerId = "7A350A25-044B-4D59-B0E9-6A59A980AC73";
width = 562;
},
{
background = {
paths = (
{
closed = 1;
nodes = (
"299 710 LINE",
"418 714 LINE SMOOTH",
"491 716 OFFCURVE",
"560 738 OFFCURVE",
"560 807 CURVE SMOOTH",
"560 833 OFFCURVE",
"550 848 OFFCURVE",
"532 861 CURVE",
"287 759 LINE"
);
},
{
closed = 1;
nodes = (
"479 660 LINE",
"255 660 LINE",
"-60 0 LINE",
"80 0 LINE",
"96 48 OFFCURVE",
"115 99 OFFCURVE",
"140 160 CURVE",
"313 160 LINE",
"317 129 OFFCURVE",
"319 114 OFFCURVE",
"324 93 CURVE SMOOTH",
"341 23 OFFCURVE",
"375 -20 OFFCURVE",
"450 -20 CURVE SMOOTH",
"504 -20 OFFCURVE",
"546 3 OFFCURVE",
"564 40 CURVE",
"529 61 OFFCURVE",
"515 117 OFFCURVE",
"511 173 CURVE SMOOTH"
);
},
{
closed = 1;
nodes = (
"309 239 LINE",
"171 239 LINE",
"204 316 OFFCURVE",
"241 404 OFFCURVE",
"294 520 CURVE"
);
}
);
};
components = (
{
name = A;
},
{
name = acutecomb.case;
transform = "{1, 0, 0, 1, 441, 0}";
}
);
layerId = "1597CCFE-0C49-4087-BB13-985DDBBCAFFD";
width = 588;
},
{
background = {
paths = (
{
closed = 1;
nodes = (
"331 709 LINE",
"451 712 LINE SMOOTH",
"531 713 OFFCURVE",
"598 741 OFFCURVE",
"598 810 CURVE SMOOTH",
"598 839 OFFCURVE",
"586 854 OFFCURVE",
"567 869 CURVE",
"317 760 LINE"
);
},
{
closed = 1;
nodes = (
"531 660 LINE",
"267 660 LINE",
"-56 0 LINE",
"96 0 LINE",
"107 41 OFFCURVE",
"126 93 OFFCURVE",
"152 156 CURVE",
"318 156 LINE",
"323 117 OFFCURVE",
"324 117 OFFCURVE",
"330 93 CURVE SMOOTH",
"352 16 OFFCURVE",
"397 -20 OFFCURVE",
"481 -20 CURVE SMOOTH",
"545 -20 OFFCURVE",
"593 5 OFFCURVE",
"616 45 CURVE",
"578 67 OFFCURVE",
"561 131 OFFCURVE",
"556 199 CURVE SMOOTH"
);
},
{
closed = 1;
nodes = (
"315 239 LINE",
"184 239 LINE",
"215 307 OFFCURVE",
"251 390 OFFCURVE",
"302 490 CURVE"
);
}
);
};
components = (
{
name = A;
},
{
name = acutecomb.case;
transform = "{1, 0, 0, 1, 475, 0}";
}
);
layerId = "30A38917-B9D2-447A-AF98-EAADDBDD04CD";
width = 615;
},
{
components = (
{
name = A;
},
{
name = acutecomb.case;
transform = "{1, 0, 0, 1, 424, 0}";
}
);
layerId = "1252CFB8-7EB2-4C2F-9C11-14383990C0AA";
width = 534;
}
);
leftKerningGroup = A;
note = Aacute;
unicode = 00C1;
},
{
glyphname = AE;
layers = (
{
anchors = (
{
name = top;
position = "{439, 660}";
}
);
background = {
anchors = (
{
name = bottom;
position = "{427, 0}";
},
{
name = ogonek;
position = "{558, 0}";
}
);
hints = (
{
horizontal = 1;
place = "{0, 89}";
type = Stem;
},
{
horizontal = 1;
place = "{295, 82}";
type = Stem;
},
{
horizontal = 1;
place = "{565, 95}";
type = Stem;
},
{
place = "{225, 458}";
type = Stem;
},
{
horizontal = 1;
place = "{592, 68}";
type = Stem;
}
);
};
layerId = "B7BBAE14-F4F3-4898-8D83-DD158C3247C2";
paths = (
{
closed = 1;
nodes = (
"88 0 LINE",
"88 1 OFFCURVE",
"177 176 OFFCURVE",
"178 177 CURVE",
"331 177 LINE",
"329 161 OFFCURVE",
"328 138 OFFCURVE",
"328 126 CURVE SMOOTH",
"328 30 OFFCURVE",
"394 -20 OFFCURVE",
"495 -20 CURVE SMOOTH",
"551 -20 OFFCURVE",
"633 -5 OFFCURVE",
"633 52 CURVE SMOOTH",
"633 61 OFFCURVE",
"631 73 OFFCURVE",
"627 81 CURVE",
"604 73 OFFCURVE",
"576 67 OFFCURVE",
"542 67 CURVE SMOOTH",
"479 67 OFFCURVE",
"440 88 OFFCURVE",
"440 160 CURVE SMOOTH",
"440 181 OFFCURVE",
"443 220 OFFCURVE",
"452 309 CURVE",
"488 299 OFFCURVE",
"520 295 OFFCURVE",
"546 295 CURVE SMOOTH",
"604 295 OFFCURVE",
"637 317 OFFCURVE",
"637 352 CURVE SMOOTH",
"637 360 OFFCURVE",
"635 369 OFFCURVE",
"631 379 CURVE",
"600 377 OFFCURVE",
"571 376 OFFCURVE",
"542 376 CURVE SMOOTH",
"514 376 OFFCURVE",
"486 377 OFFCURVE",
"459 379 CURVE",
"477 582 LINE",
"524 571 OFFCURVE",
"583 566 OFFCURVE",
"617 566 CURVE SMOOTH",
"684 566 OFFCURVE",
"723 587 OFFCURVE",
"723 635 CURVE SMOOTH",
"723 643 OFFCURVE",
"722 651 OFFCURVE",
"720 661 CURVE",
"665 659 OFFCURVE",
"611 658 OFFCURVE",
"558 658 CURVE SMOOTH",
"578 658 OFFCURVE",
"377 660 OFFCURVE",
"330 660 CURVE",
"-28 0 LINE"
);
},
{
closed = 1;
nodes = (
"263 348 OFFCURVE",
"317 454 OFFCURVE",
"376 569 CURVE",
"363 441 OFFCURVE",
"351 342 OFFCURVE",
"341 254 CURVE",
"216 254 LINE"
);
}
);
width = 702;
},
{
anchors = (
{
name = top;
position = "{469, 660}";
}
);
layerId = "7A350A25-044B-4D59-B0E9-6A59A980AC73";
paths = (
{
closed = 1;
nodes = (
"92 0 LINE",
"105 30 OFFCURVE",
"164 148 OFFCURVE",
"178 177 CURVE",
"333 177 LINE",
"332 167 OFFCURVE",
"331 149 OFFCURVE",
"331 137 CURVE SMOOTH",
"331 29 OFFCURVE",
"409 -20 OFFCURVE",
"521 -20 CURVE SMOOTH",
"589 -20 OFFCURVE",
"676 -3 OFFCURVE",
"676 71 CURVE SMOOTH",
"676 82 OFFCURVE",
"674 97 OFFCURVE",
"669 110 CURVE",
"642 100 OFFCURVE",
"608 95 OFFCURVE",
"575 95 CURVE SMOOTH",
"512 95 OFFCURVE",
"479 113 OFFCURVE",
"479 181 CURVE SMOOTH",
"479 216 OFFCURVE",
"484 240 OFFCURVE",
"490 301 CURVE",
"526 290 OFFCURVE",
"561 285 OFFCURVE",
"588 285 CURVE SMOOTH",
"651 285 OFFCURVE",
"687 312 OFFCURVE",
"687 357 CURVE SMOOTH",
"687 365 OFFCURVE",
"686 374 OFFCURVE",
"683 383 CURVE",
"658 381 OFFCURVE",
"630 380 OFFCURVE",
"602 380 CURVE SMOOTH",
"567 380 OFFCURVE",
"524 381 OFFCURVE",
"500 384 CURVE",
"520 567 LINE",
"567 555 OFFCURVE",
"630 550 OFFCURVE",
"664 550 CURVE SMOOTH",
"734 550 OFFCURVE",
"773 576 OFFCURVE",
"773 631 CURVE SMOOTH",
"773 640 OFFCURVE",
"772 650 OFFCURVE",
"770 660 CURVE",
"708 659 OFFCURVE",
"645 658 OFFCURVE",
"583 658 CURVE SMOOTH",
"532 658 OFFCURVE",
"454 659 OFFCURVE",
"329 660 CURVE",
"-44 0 LINE"
);
},
{
closed = 1;
nodes = (
"267 353 OFFCURVE",
"323 457 OFFCURVE",
"384 566 CURVE",
"366 423 OFFCURVE",
"353 327 OFFCURVE",
"344 254 CURVE",
"217 254 LINE"
);
}
);
width = 741;
},
{
anchors = (
{
name = top;
position = "{499, 660}";
}
);
layerId = "1597CCFE-0C49-4087-BB13-985DDBBCAFFD";
paths = (
{
closed = 1;
nodes = (
"95 0 LINE",
"121 58 OFFCURVE",
"150 119 OFFCURVE",
"178 177 CURVE",
"335 177 LINE",
"335 172 OFFCURVE",
"334 160 OFFCURVE",
"334 147 CURVE SMOOTH",
"334 28 OFFCURVE",
"424 -20 OFFCURVE",
"547 -20 CURVE SMOOTH",
"627 -20 OFFCURVE",
"719 0 OFFCURVE",
"719 90 CURVE SMOOTH",
"719 103 OFFCURVE",
"717 121 OFFCURVE",
"710 138 CURVE",
"679 126 OFFCURVE",
"640 122 OFFCURVE",
"608 122 CURVE SMOOTH",
"545 122 OFFCURVE",
"517 138 OFFCURVE",
"517 202 CURVE SMOOTH",
"517 226 OFFCURVE",
"521 258 OFFCURVE",
"528 291 CURVE",
"563 280 OFFCURVE",
"594 275 OFFCURVE",
"620 275 CURVE SMOOTH",
"686 275 OFFCURVE",
"721 306 OFFCURVE",
"721 362 CURVE SMOOTH",
"721 370 OFFCURVE",
"720 378 OFFCURVE",
"719 387 CURVE",
"695 386 OFFCURVE",
"669 386 OFFCURVE",
"643 386 CURVE SMOOTH",
"609 386 OFFCURVE",
"567 387 OFFCURVE",
"541 389 CURVE",
"563 551 LINE",
"604 540 OFFCURVE",
"656 535 OFFCURVE",
"688 535 CURVE SMOOTH",
"762 535 OFFCURVE",
"807 563 OFFCURVE",
"807 626 CURVE SMOOTH",
"807 636 OFFCURVE",
"806 648 OFFCURVE",
"803 660 CURVE",
"732 658 OFFCURVE",
"662 657 OFFCURVE",
"593 657 CURVE SMOOTH",
"592 657 OFFCURVE",
"326 660 OFFCURVE",
"327 660 CURVE",
"-60 0 LINE"
);
},
{
closed = 1;
nodes = (
"270 357 OFFCURVE",
"327 459 OFFCURVE",
"390 562 CURVE",
"367 405 OFFCURVE",
"354 312 OFFCURVE",
"346 254 CURVE",
"217 254 LINE"
);
}
);
width = 774;
},
{
anchors = (
{
name = top;
position = "{539, 660}";
}
);
layerId = "30A38917-B9D2-447A-AF98-EAADDBDD04CD";
paths = (
{
closed = 1;
nodes = (
"120 0 LINE",
"159 88 OFFCURVE",
"157 89 OFFCURVE",
"200 177 CURVE",
"359 177 LINE SMOOTH",
"360 177 OFFCURVE",
"359 171 OFFCURVE",
"359 157 CURVE SMOOTH",
"359 27 OFFCURVE",
"461 -20 OFFCURVE",
"594 -20 CURVE SMOOTH",
"686 -20 OFFCURVE",
"785 2 OFFCURVE",
"785 109 CURVE SMOOTH",
"785 124 OFFCURVE",
"783 146 OFFCURVE",
"775 168 CURVE",
"738 154 OFFCURVE",
"693 151 OFFCURVE",
"662 151 CURVE SMOOTH",
"599 151 OFFCURVE",
"577 164 OFFCURVE",
"577 223 CURVE SMOOTH",
"577 246 OFFCURVE",
"581 268 OFFCURVE",
"585 281 CURVE",
"618 270 OFFCURVE",
"647 265 OFFCURVE",
"672 265 CURVE SMOOTH",
"739 265 OFFCURVE",
"779 301 OFFCURVE",
"779 363 CURVE SMOOTH",
"779 372 OFFCURVE",
"778 382 OFFCURVE",
"776 392 CURVE",
"756 391 OFFCURVE",
"733 391 OFFCURVE",
"711 391 CURVE SMOOTH",
"670 391 OFFCURVE",
"630 392 OFFCURVE",
"605 394 CURVE",
"627 540 LINE",
"667 527 OFFCURVE",
"710 521 OFFCURVE",
"742 521 CURVE SMOOTH",
"816 521 OFFCURVE",
"865 554 OFFCURVE",
"865 625 CURVE SMOOTH",
"865 636 OFFCURVE",
"863 647 OFFCURVE",
"861 660 CURVE",
"788 658 OFFCURVE",
"715 657 OFFCURVE",
"642 657 CURVE SMOOTH",
"598 657 OFFCURVE",
"446 658 OFFCURVE",
"346 660 CURVE",
"-56 0 LINE"
);
},
{
closed = 1;
nodes = (
"293 361 OFFCURVE",
"352 461 OFFCURVE",
"417 559 CURVE",
"389 387 OFFCURVE",
"376 297 OFFCURVE",
"369 254 CURVE",
"238 254 LINE"
);
}
);
width = 828;
},
{
anchors = (
{
name = top;
position = "{430, 660}";
}
);
layerId = "1252CFB8-7EB2-4C2F-9C11-14383990C0AA";
paths = (
{
closed = 1;
nodes = (
"91 0 LINE",
"85 -12 OFFCURVE",
"188 189 OFFCURVE",
"183 177 CURVE",
"335 177 LINE",
"333 158 OFFCURVE",
"332 133 OFFCURVE",
"332 121 CURVE SMOOTH",
"332 30 OFFCURVE",
"392 -20 OFFCURVE",
"488 -20 CURVE SMOOTH",
"538 -20 OFFCURVE",
"618 -6 OFFCURVE",
"618 43 CURVE SMOOTH",
"618 51 OFFCURVE",
"616 62 OFFCURVE",
"613 68 CURVE",
"591 61 OFFCURVE",
"566 54 OFFCURVE",
"532 54 CURVE SMOOTH",
"469 54 OFFCURVE",
"427 76 OFFCURVE",
"427 150 CURVE SMOOTH",
"427 168 OFFCURVE",
"429 211 OFFCURVE",
"439 313 CURVE",
"475 303 OFFCURVE",
"507 300 OFFCURVE",
"533 300 CURVE SMOOTH",
"589 300 OFFCURVE",
"621 319 OFFCURVE",
"621 350 CURVE SMOOTH",
"621 358 OFFCURVE",
"618 367 OFFCURVE",
"614 377 CURVE",
"580 375 OFFCURVE",
"551 374 OFFCURVE",
"521 374 CURVE SMOOTH",
"496 374 OFFCURVE",
"473 375 OFFCURVE",
"445 377 CURVE",
"462 589 LINE",
"510 578 OFFCURVE",
"569 573 OFFCURVE",
"603 573 CURVE SMOOTH",
"668 573 OFFCURVE",
"707 592 OFFCURVE",
"707 637 CURVE SMOOTH",
"707 645 OFFCURVE",
"706 652 OFFCURVE",
"704 661 CURVE",
"652 659 OFFCURVE",
"602 658 OFFCURVE",
"553 658 CURVE SMOOTH",
"592 658 OFFCURVE",
"370 660 OFFCURVE",
"336 660 CURVE",
"-16 0 LINE"
);
},
{
closed = 1;
nodes = (
"266 346 OFFCURVE",
"319 453 OFFCURVE",
"378 571 CURVE",
"367 449 OFFCURVE",
"355 349 OFFCURVE",
"345 254 CURVE",
"221 254 LINE"
);
}
);
width = 693;
}
);
leftMetricsKey = A;
note = AE;
rightMetricsKey = E;
unicode = 00C6;
},
{
glyphname = B;
layers = (
{
layerId = "B7BBAE14-F4F3-4898-8D83-DD158C3247C2";
paths = (
{
closed = 1;
nodes = (
"23 0 LINE",
"80 -5 OFFCURVE",
"153 -9 OFFCURVE",
"192 -9 CURVE SMOOTH",
"364 -9 OFFCURVE",
"512 71 OFFCURVE",
"512 227 CURVE SMOOTH",
"512 295 OFFCURVE",
"484 347 OFFCURVE",
"410 369 CURVE",
"476 402 OFFCURVE",
"520 455 OFFCURVE",
"520 534 CURVE SMOOTH",
"520 650 OFFCURVE",
"427 669 OFFCURVE",
"318 669 CURVE SMOOTH",
"263 669 OFFCURVE",
"191 664 OFFCURVE",
"149 660 CURVE"
);
},
{
closed = 1;
nodes = (
"256 596 LINE",
"273 600 OFFCURVE",
"291 603 OFFCURVE",
"312 603 CURVE SMOOTH",
"371 603 OFFCURVE",
"396 578 OFFCURVE",
"396 519 CURVE SMOOTH",
"396 436 OFFCURVE",
"347 385 OFFCURVE",
"262 385 CURVE SMOOTH",
"250 385 OFFCURVE",
"229 386 OFFCURVE",
"215 388 CURVE"
);
},
{
closed = 1;
nodes = (
"201 317 LINE",
"308 317 OFFCURVE",
"386 314 OFFCURVE",
"386 210 CURVE SMOOTH",
"386 117 OFFCURVE",
"322 60 OFFCURVE",
"220 60 CURVE SMOOTH",
"198 60 OFFCURVE",
"170 63 OFFCURVE",
"152 67 CURVE"
);
}
);
width = 546;
},
{
layerId = "7A350A25-044B-4D59-B0E9-6A59A980AC73";
paths = (
{
closed = 1;
nodes = (
"8 0 LINE",
"82 -5 OFFCURVE",
"157 -7 OFFCURVE",
"191 -7 CURVE SMOOTH",
"391 -7 OFFCURVE",
"543 64 OFFCURVE",
"543 225 CURVE SMOOTH",
"543 312 OFFCURVE",
"497 354 OFFCURVE",
"432 371 CURVE",
"501 400 OFFCURVE",
"553 454 OFFCURVE",
"553 534 CURVE SMOOTH",
"553 653 OFFCURVE",
"437 667 OFFCURVE",
"317 667 CURVE SMOOTH",
"258 667 OFFCURVE",
"193 664 OFFCURVE",
"134 660 CURVE"
);
},
{
closed = 1;
nodes = (
"287 598 LINE",
"299 600 OFFCURVE",
"311 602 OFFCURVE",
"324 602 CURVE SMOOTH",
"382 602 OFFCURVE",
"406 577 OFFCURVE",
"406 518 CURVE SMOOTH",
"406 443 OFFCURVE",
"365 385 OFFCURVE",
"274 385 CURVE SMOOTH",
"266 385 OFFCURVE",
"254 386 OFFCURVE",
"245 387 CURVE"
);
},
{
closed = 1;
nodes = (
"232 317 LINE",
"322 315 OFFCURVE",
"382 302 OFFCURVE",
"382 212 CURVE SMOOTH",
"382 129 OFFCURVE",
"332 64 OFFCURVE",
"228 64 CURVE SMOOTH",
"214 64 OFFCURVE",
"197 65 OFFCURVE",
"183 68 CURVE"
);
}
);
width = 573;
},
{
layerId = "1597CCFE-0C49-4087-BB13-985DDBBCAFFD";
paths = (
{
closed = 1;
nodes = (
"-6 0 LINE",
"85 -4 OFFCURVE",
"162 -5 OFFCURVE",
"191 -5 CURVE SMOOTH",
"419 -5 OFFCURVE",
"574 56 OFFCURVE",
"574 222 CURVE SMOOTH",
"574 328 OFFCURVE",
"511 361 OFFCURVE",
"454 373 CURVE",
"527 398 OFFCURVE",
"586 453 OFFCURVE",
"586 533 CURVE SMOOTH",
"586 656 OFFCURVE",
"449 665 OFFCURVE",
"316 665 CURVE SMOOTH",
"254 665 OFFCURVE",
"195 663 OFFCURVE",
"120 660 CURVE"
);
},
{
closed = 1;
nodes = (
"318 599 LINE",
"325 600 OFFCURVE",
"331 600 OFFCURVE",
"337 600 CURVE SMOOTH",
"393 600 OFFCURVE",
"417 575 OFFCURVE",
"417 517 CURVE SMOOTH",
"417 449 OFFCURVE",
"384 385 OFFCURVE",
"286 385 CURVE SMOOTH",
"283 385 OFFCURVE",
"279 385 OFFCURVE",
"276 385 CURVE"
);
},
{
closed = 1;
nodes = (
"263 317 LINE",
"337 313 OFFCURVE",
"379 289 OFFCURVE",
"379 213 CURVE SMOOTH",
"379 141 OFFCURVE",
"342 67 OFFCURVE",
"236 67 CURVE SMOOTH",
"231 67 OFFCURVE",
"224 67 OFFCURVE",
"215 68 CURVE"
);
}
);
width = 600;
},
{
layerId = "30A38917-B9D2-447A-AF98-EAADDBDD04CD";
paths = (
{
closed = 1;
nodes = (
"564 396 OFFCURVE",
"630 452 OFFCURVE",
"630 533 CURVE SMOOTH",
"630 659 OFFCURVE",
"470 663 OFFCURVE",
"325 663 CURVE SMOOTH",
"260 663 OFFCURVE",
"207 663 OFFCURVE",
"116 660 CURVE",
"-10 0 LINE",
"97 -4 OFFCURVE",
"176 -3 OFFCURVE",
"201 -3 CURVE SMOOTH",
"458 -3 OFFCURVE",
"616 49 OFFCURVE",
"616 220 CURVE SMOOTH",
"616 344 OFFCURVE",
"535 368 OFFCURVE",
"487 375 CURVE"
);
},
{
closed = 1;
nodes = (
"360 600 LINE",
"365 601 OFFCURVE",
"370 601 OFFCURVE",
"375 601 CURVE SMOOTH",
"420 600 OFFCURVE",
"439 568 OFFCURVE",
"439 516 CURVE SMOOTH",
"439 460 OFFCURVE",
"411 384 OFFCURVE",
"331 384 CURVE SMOOTH",
"327 384 OFFCURVE",
"323 384 OFFCURVE",
"318 385 CURVE"
);
},
{
closed = 1;
nodes = (
"305 317 LINE",
"363 311 OFFCURVE",
"386 277 OFFCURVE",
"386 214 CURVE SMOOTH",
"386 158 OFFCURVE",
"358 69 OFFCURVE",
"275 69 CURVE SMOOTH",
"270 69 OFFCURVE",
"264 69 OFFCURVE",
"258 70 CURVE"
);
}
);
width = 632;
},
{
layerId = "1252CFB8-7EB2-4C2F-9C11-14383990C0AA";
paths = (
{
closed = 1;
nodes = (
"35 0 LINE",
"84 -5 OFFCURVE",
"156 -10 OFFCURVE",
"197 -10 CURVE SMOOTH",
"356 -10 OFFCURVE",
"503 74 OFFCURVE",
"503 228 CURVE SMOOTH",
"503 287 OFFCURVE",
"483 344 OFFCURVE",
"405 368 CURVE",
"469 403 OFFCURVE",
"510 455 OFFCURVE",
"510 534 CURVE SMOOTH",
"510 649 OFFCURVE",
"427 670 OFFCURVE",
"323 670 CURVE SMOOTH",
"270 670 OFFCURVE",
"195 664 OFFCURVE",
"161 660 CURVE"
);
},
{
closed = 1;
nodes = (
"247 595 LINE",
"266 600 OFFCURVE",
"287 604 OFFCURVE",
"311 604 CURVE SMOOTH",
"371 604 OFFCURVE",
"396 579 OFFCURVE",
"396 519 CURVE SMOOTH",
"396 433 OFFCURVE",
"344 385 OFFCURVE",
"261 385 CURVE SMOOTH",
"247 385 OFFCURVE",
"222 386 OFFCURVE",
"206 389 CURVE"
);
},
{
closed = 1;
nodes = (
"192 317 LINE",
"306 318 OFFCURVE",
"393 320 OFFCURVE",
"393 209 CURVE SMOOTH",
"393 111 OFFCURVE",
"322 58 OFFCURVE",
"221 58 CURVE SMOOTH",
"195 58 OFFCURVE",
"162 62 OFFCURVE",
"142 67 CURVE"
);
}
);
width = 543;
}
);
note = B;
unicode = 0042;
},
{
glyphname = C;
layers = (
{
anchors = (
{
name = bottom;
position = "{216, 0}";
},
{
name = top;
position = "{353, 660}";
}
);
layerId = "B7BBAE14-F4F3-4898-8D83-DD158C3247C2";
paths = (
{
closed = 1;
nodes = (
"139 680 OFFCURVE",
"27 427 OFFCURVE",
"27 224 CURVE SMOOTH",
"27 64 OFFCURVE",
"98 -20 OFFCURVE",
"228 -20 CURVE SMOOTH",
"340 -20 OFFCURVE",
"449 43 OFFCURVE",
"449 137 CURVE SMOOTH",
"449 165 OFFCURVE",
"439 180 OFFCURVE",
"417 192 CURVE",
"382 128 OFFCURVE",
"336 77 OFFCURVE",
"262 77 CURVE SMOOTH",
"176 77 OFFCURVE",
"153 146 OFFCURVE",
"153 231 CURVE SMOOTH",
"153 364 OFFCURVE",
"210 609 OFFCURVE",
"343 609 CURVE SMOOTH",
"388 609 OFFCURVE",
"412 581 OFFCURVE",
"412 539 CURVE SMOOTH",
"412 519 OFFCURVE",
"406 487 OFFCURVE",
"397 465 CURVE",
"407 454 OFFCURVE",
"428 449 OFFCURVE",
"446 449 CURVE SMOOTH",
"494 449 OFFCURVE",
"534 482 OFFCURVE",
"534 548 CURVE SMOOTH",
"534 633 OFFCURVE",
"467 680 OFFCURVE",
"369 680 CURVE SMOOTH"
);
}
);
width = 512;
},
{
anchors = (
{
name = bottom;
position = "{242, 0}";
},
{
name = top;
position = "{380, 660}";
}
);
layerId = "7A350A25-044B-4D59-B0E9-6A59A980AC73";
paths = (
{
closed = 1;
nodes = (
"153 680 OFFCURVE",
"24 459 OFFCURVE",
"24 239 CURVE SMOOTH",
"24 66 OFFCURVE",
"104 -20 OFFCURVE",
"257 -20 CURVE SMOOTH",
"395 -20 OFFCURVE",
"503 50 OFFCURVE",
"503 140 CURVE SMOOTH",
"503 162 OFFCURVE",
"496 186 OFFCURVE",
"474 200 CURVE",
"438 144 OFFCURVE",
"385 105 OFFCURVE",
"314 105 CURVE SMOOTH",
"226 105 OFFCURVE",
"195 163 OFFCURVE",
"195 252 CURVE SMOOTH",
"195 374 OFFCURVE",
"252 609 OFFCURVE",
"369 609 CURVE SMOOTH",
"417 609 OFFCURVE",
"431 568 OFFCURVE",
"431 529 CURVE SMOOTH",
"431 503 OFFCURVE",
"427 475 OFFCURVE",
"420 453 CURVE",
"432 445 OFFCURVE",
"452 442 OFFCURVE",
"468 442 CURVE SMOOTH",
"528 442 OFFCURVE",
"580 483 OFFCURVE",
"580 554 CURVE SMOOTH",
"580 644 OFFCURVE",
"494 680 OFFCURVE",
"397 680 CURVE SMOOTH"
);
}
);
width = 558;
},
{
anchors = (
{
name = bottom;
position = "{267, 0}";
},
{
name = top;
position = "{405, 660}";
}
);
layerId = "1597CCFE-0C49-4087-BB13-985DDBBCAFFD";
paths = (
{
closed = 1;
nodes = (
"166 680 OFFCURVE",
"21 490 OFFCURVE",
"21 254 CURVE SMOOTH",
"21 68 OFFCURVE",
"110 -20 OFFCURVE",
"286 -20 CURVE SMOOTH",
"450 -20 OFFCURVE",
"556 56 OFFCURVE",
"556 142 CURVE SMOOTH",
"556 159 OFFCURVE",
"552 191 OFFCURVE",
"530 207 CURVE",
"493 160 OFFCURVE",
"434 132 OFFCURVE",
"365 132 CURVE SMOOTH",
"275 132 OFFCURVE",
"236 180 OFFCURVE",
"236 272 CURVE SMOOTH",
"236 383 OFFCURVE",
"293 609 OFFCURVE",
"395 609 CURVE SMOOTH",
"447 609 OFFCURVE",
"450 554 OFFCURVE",
"450 518 CURVE SMOOTH",
"450 486 OFFCURVE",
"447 462 OFFCURVE",
"443 441 CURVE",
"457 436 OFFCURVE",
"475 434 OFFCURVE",
"489 434 CURVE SMOOTH",
"561 434 OFFCURVE",
"625 484 OFFCURVE",
"625 559 CURVE SMOOTH",
"625 654 OFFCURVE",
"520 680 OFFCURVE",
"424 680 CURVE SMOOTH"
);
}
);
width = 604;
},
{
anchors = (
{
name = bottom;
position = "{311, 0}";
},
{
name = top;
position = "{446, 660}";
}
);
layerId = "30A38917-B9D2-447A-AF98-EAADDBDD04CD";
paths = (
{
closed = 1;
nodes = (
"195 680 OFFCURVE",
"34 523 OFFCURVE",
"34 269 CURVE SMOOTH",
"34 70 OFFCURVE",
"132 -20 OFFCURVE",
"332 -20 CURVE SMOOTH",
"522 -20 OFFCURVE",
"626 62 OFFCURVE",
"626 144 CURVE SMOOTH",
"626 156 OFFCURVE",
"625 196 OFFCURVE",
"603 214 CURVE",
"565 176 OFFCURVE",
"500 161 OFFCURVE",
"433 161 CURVE SMOOTH",
"341 161 OFFCURVE",
"295 197 OFFCURVE",
"295 292 CURVE SMOOTH",
"295 392 OFFCURVE",
"352 609 OFFCURVE",
"438 609 CURVE SMOOTH",
"481 609 OFFCURVE",
"492 564 OFFCURVE",
"492 516 CURVE SMOOTH",
"492 483 OFFCURVE",
"487 450 OFFCURVE",
"483 429 CURVE",
"499 427 OFFCURVE",
"516 427 OFFCURVE",
"528 427 CURVE SMOOTH",
"612 427 OFFCURVE",
"687 485 OFFCURVE",
"687 564 CURVE SMOOTH",
"687 664 OFFCURVE",
"564 680 OFFCURVE",
"469 680 CURVE SMOOTH"
);
}
);
width = 659;
},
{
anchors = (
{
name = bottom;
position = "{209, 0}";
},
{
name = top;
position = "{346, 660}";
}
);
layerId = "1252CFB8-7EB2-4C2F-9C11-14383990C0AA";
paths = (
{
closed = 1;
nodes = (
"138 680 OFFCURVE",
"33 412 OFFCURVE",
"33 217 CURVE SMOOTH",
"33 63 OFFCURVE",
"100 -20 OFFCURVE",
"220 -20 CURVE SMOOTH",
"319 -20 OFFCURVE",
"429 40 OFFCURVE",
"429 136 CURVE SMOOTH",
"429 166 OFFCURVE",
"418 177 OFFCURVE",
"396 188 CURVE",
"361 121 OFFCURVE",
"318 64 OFFCURVE",
"243 64 CURVE SMOOTH",
"158 64 OFFCURVE",
"139 138 OFFCURVE",
"139 221 CURVE SMOOTH",
"139 359 OFFCURVE",
"196 609 OFFCURVE",
"336 609 CURVE SMOOTH",
"379 609 OFFCURVE",
"408 587 OFFCURVE",
"408 544 CURVE SMOOTH",
"408 527 OFFCURVE",
"401 493 OFFCURVE",
"391 471 CURVE",
"400 458 OFFCURVE",
"422 452 OFFCURVE",
"441 452 CURVE SMOOTH",
"483 452 OFFCURVE",
"518 482 OFFCURVE",
"518 545 CURVE SMOOTH",
"518 628 OFFCURVE",
"460 680 OFFCURVE",
"361 680 CURVE SMOOTH"
);
}
);
width = 501;
}
);
note = C;
unicode = 0043;
},
{
glyphname = D;
layers = (
{
anchors = (
{
name = center;
position = "{179, 330}";
},
{
name = top;
position = "{353, 660}";
}
);
layerId = "B7BBAE14-F4F3-4898-8D83-DD158C3247C2";
paths = (
{
closed = 1;
nodes = (
"21 0 LINE",
"81 -5 OFFCURVE",
"166 -9 OFFCURVE",
"201 -9 CURVE SMOOTH",
"459 -9 OFFCURVE",
"570 212 OFFCURVE",
"570 436 CURVE SMOOTH",
"570 593 OFFCURVE",
"515 669 OFFCURVE",
"338 669 CURVE SMOOTH",
"293 669 OFFCURVE",
"199 664 OFFCURVE",
"149 660 CURVE"
);
},
{
closed = 1;
nodes = (
"254 592 LINE",
"277 596 OFFCURVE",
"304 599 OFFCURVE",
"326 599 CURVE SMOOTH",
"413 599 OFFCURVE",
"444 552 OFFCURVE",
"444 463 CURVE SMOOTH",
"444 401 OFFCURVE",
"428 313 OFFCURVE",
"416 261 CURVE SMOOTH",
"388 152 OFFCURVE",
"339 60 OFFCURVE",
"232 60 CURVE SMOOTH",
"213 60 OFFCURVE",
"174 63 OFFCURVE",
"151 67 CURVE"
);
}
);
width = 598;
},
{
anchors = (
{
name = center;
position = "{185, 330}";
},
{
name = top;
position = "{365, 660}";
}
);
layerId = "7A350A25-044B-4D59-B0E9-6A59A980AC73";
paths = (
{
closed = 1;
nodes = (
"7 0 LINE",
"63 -4 OFFCURVE",
"156 -7 OFFCURVE",
"192 -7 CURVE SMOOTH",
"472 -7 OFFCURVE",
"611 170 OFFCURVE",
"611 418 CURVE SMOOTH",
"611 605 OFFCURVE",
"530 667 OFFCURVE",
"320 667 CURVE SMOOTH",
"280 667 OFFCURVE",
"193 664 OFFCURVE",
"135 660 CURVE"
);
},
{
closed = 1;
nodes = (
"286 592 LINE",
"304 595 OFFCURVE",
"325 597 OFFCURVE",
"343 597 CURVE SMOOTH",
"421 597 OFFCURVE",
"451 559 OFFCURVE",
"451 479 CURVE SMOOTH",
"451 430 OFFCURVE",
"439 354 OFFCURVE",
"427 297 CURVE SMOOTH",
"399 162 OFFCURVE",
"350 64 OFFCURVE",
"242 64 CURVE SMOOTH",
"227 64 OFFCURVE",
"202 66 OFFCURVE",
"184 69 CURVE"
);
}
);
width = 637;
},
{
anchors = (
{
name = center;
position = "{188, 330}";
},
{
name = top;
position = "{381, 660}";
}
);
layerId = "1597CCFE-0C49-4087-BB13-985DDBBCAFFD";
paths = (
{
closed = 1;
nodes = (
"-7 0 LINE",
"44 -3 OFFCURVE",
"145 -5 OFFCURVE",
"182 -5 CURVE SMOOTH",
"485 -5 OFFCURVE",
"652 134 OFFCURVE",
"652 406 CURVE SMOOTH",
"652 614 OFFCURVE",
"536 665 OFFCURVE",
"301 665 CURVE SMOOTH",
"266 665 OFFCURVE",
"186 664 OFFCURVE",
"120 660 CURVE"
);
},
{
closed = 1;
nodes = (
"318 591 LINE",
"331 593 OFFCURVE",
"346 594 OFFCURVE",
"359 594 CURVE SMOOTH",
"429 594 OFFCURVE",
"457 566 OFFCURVE",
"457 495 CURVE SMOOTH",
"457 458 OFFCURVE",
"450 394 OFFCURVE",
"438 332 CURVE SMOOTH",
"410 171 OFFCURVE",
"361 67 OFFCURVE",
"252 67 CURVE SMOOTH",
"240 67 OFFCURVE",
"230 68 OFFCURVE",
"217 70 CURVE"
);
}
);
width = 675;
},
{
anchors = (
{
name = center;
position = "{201, 330}";
},
{
name = top;
position = "{405, 660}";
}
);
background = {
paths = (
{
closed = 1;
nodes = (
"-11 0 LINE",
"36 -2 OFFCURVE",
"145 -3 OFFCURVE",
"183 -3 CURVE SMOOTH",
"508 -3 OFFCURVE",
"704 85 OFFCURVE",
"704 382 CURVE SMOOTH",
"704 629 OFFCURVE",
"572 663 OFFCURVE",
"293 663 CURVE SMOOTH",
"263 663 OFFCURVE",
"190 664 OFFCURVE",
"116 660 CURVE"
);
},
{
closed = 1;
nodes = (
"361 591 LINE",
"369 592 OFFCURVE",
"379 592 OFFCURVE",
"387 592 CURVE SMOOTH",
"447 592 OFFCURVE",
"473 573 OFFCURVE",
"473 511 CURVE SMOOTH",
"473 488 OFFCURVE",
"471 436 OFFCURVE",
"461 369 CURVE SMOOTH",
"431 180 OFFCURVE",
"382 70 OFFCURVE",
"272 70 CURVE SMOOTH",
"265 70 OFFCURVE",
"269 70 OFFCURVE",
"261 71 CURVE"
);
}
);
};
layerId = "30A38917-B9D2-447A-AF98-EAADDBDD04CD";
paths = (
{
closed = 1;
nodes = (
"-11 0 LINE",
"36 -2 OFFCURVE",
"145 -3 OFFCURVE",
"183 -3 CURVE SMOOTH",
"508 -3 OFFCURVE",
"704 105 OFFCURVE",
"704 402 CURVE SMOOTH",
"704 629 OFFCURVE",
"546 663 OFFCURVE",
"293 663 CURVE SMOOTH",
"263 663 OFFCURVE",
"190 664 OFFCURVE",
"116 660 CURVE"
);
},
{
closed = 1;
nodes = (
"361 591 LINE",
"369 592 OFFCURVE",
"379 592 OFFCURVE",
"387 592 CURVE SMOOTH",
"447 592 OFFCURVE",
"473 573 OFFCURVE",
"473 511 CURVE SMOOTH",
"473 488 OFFCURVE",
"471 436 OFFCURVE",
"461 369 CURVE SMOOTH",
"431 180 OFFCURVE",
"382 70 OFFCURVE",
"272 70 CURVE SMOOTH",
"265 70 OFFCURVE",
"269 70 OFFCURVE",
"261 71 CURVE"
);
}
);
width = 709;
},
{
anchors = (
{
name = center;
position = "{182, 330}";
},
{
name = top;
position = "{352, 660}";
}
);
layerId = "1252CFB8-7EB2-4C2F-9C11-14383990C0AA";
paths = (
{
closed = 1;
nodes = (
"33 0 LINE",
"94 -5 OFFCURVE",
"176 -10 OFFCURVE",
"210 -10 CURVE SMOOTH",
"458 -10 OFFCURVE",
"556 231 OFFCURVE",
"556 444 CURVE SMOOTH",
"556 588 OFFCURVE",
"514 670 OFFCURVE",
"351 670 CURVE SMOOTH",
"304 670 OFFCURVE",
"207 664 OFFCURVE",
"161 660 CURVE"
);
},
{
closed = 1;
nodes = (
"244 592 LINE",
"269 597 OFFCURVE",
"299 600 OFFCURVE",
"323 600 CURVE SMOOTH",
"414 600 OFFCURVE",
"446 549 OFFCURVE",
"446 456 CURVE SMOOTH",
"446 388 OFFCURVE",
"428 294 OFFCURVE",
"416 244 CURVE SMOOTH",
"388 147 OFFCURVE",
"339 58 OFFCURVE",
"232 58 CURVE SMOOTH",
"212 58 OFFCURVE",
"166 62 OFFCURVE",
"141 66 CURVE"
);
}
);
width = 590;
}
);
note = D;
unicode = 0044;
},
{
glyphname = E;
layers = (
{
anchors = (
{
name = bottom;
position = "{181, 0}";
},
{
name = ogonek;
position = "{309, 0}";
},
{
name = top;
position = "{313, 660}";
}
);
background = {
paths = (
{
closed = 1;
nodes = (
"149 660 LINE",
"22 0 LINE",
"271 0 LINE SMOOTH",
"319 0 OFFCURVE",
"373 7 OFFCURVE",
"373 56 CURVE SMOOTH",
"373 72 OFFCURVE",
"367 90 OFFCURVE",
"359 101 CURVE",
"340 92 OFFCURVE",
"301 89 OFFCURVE",
"280 89 CURVE SMOOTH",
"159 89 LINE",
"200 318 LINE",
"227 305 OFFCURVE",
"261 295 OFFCURVE",
"297 295 CURVE SMOOTH",
"351 295 OFFCURVE",
"393 317 OFFCURVE",
"393 377 CURVE",
"213 377 LINE",
"250 592 LINE",
"287 577 OFFCURVE",
"332 565 OFFCURVE",
"372 565 CURVE SMOOTH",
"435 565 OFFCURVE",
"480 595 OFFCURVE",
"480 660 CURVE"
);
}
);
};
layerId = "B7BBAE14-F4F3-4898-8D83-DD158C3247C2";
paths = (
{
closed = 1;
nodes = (
"419 659 OFFCURVE",
"365 658 OFFCURVE",
"312 658 CURVE SMOOTH",
"258 658 OFFCURVE",
"204 659 OFFCURVE",
"149 660 CURVE",
"22 0 LINE",
"301 0 LINE SMOOTH",
"350 0 OFFCURVE",
"373 24 OFFCURVE",
"373 57 CURVE SMOOTH",
"373 69 OFFCURVE",
"370 82 OFFCURVE",
"364 95 CURVE",
"335 90 OFFCURVE",
"288 88 OFFCURVE",
"237 88 CURVE SMOOTH",
"211 88 OFFCURVE",
"185 88 OFFCURVE",
"159 89 CURVE",
"199 311 LINE",
"238 300 OFFCURVE",
"272 295 OFFCURVE",
"300 295 CURVE SMOOTH",
"358 295 OFFCURVE",
"391 317 OFFCURVE",
"391 352 CURVE SMOOTH",
"391 360 OFFCURVE",
"389 369 OFFCURVE",
"385 379 CURVE",
"354 377 OFFCURVE",
"325 376 OFFCURVE",
"296 376 CURVE SMOOTH",
"268 376 OFFCURVE",
"240 377 OFFCURVE",
"213 379 CURVE",
"249 582 LINE",
"296 571 OFFCURVE",
"337 566 OFFCURVE",
"371 566 CURVE SMOOTH",
"438 566 OFFCURVE",
"477 587 OFFCURVE",
"477 635 CURVE SMOOTH",
"477 643 OFFCURVE",
"476 651 OFFCURVE",
"474 661 CURVE"
);
}
);
width = 441;
},
{
anchors = (
{
name = bottom;
position = "{192, 0}";
},
{
name = ogonek;
position = "{321, 0}";
},
{
name = top;
position = "{319, 660}";
}
);
background = {
paths = (
{
closed = 1;
nodes = (
"134 660 LINE",
"9 0 LINE",
"291 0 LINE SMOOTH",
"345 0 OFFCURVE",
"404 10 OFFCURVE",
"404 66 CURVE SMOOTH",
"404 82 OFFCURVE",
"399 104 OFFCURVE",
"390 116 CURVE",
"371 108 OFFCURVE",
"334 105 OFFCURVE",
"301 105 CURVE SMOOTH",
"196 105 LINE",
"233 308 LINE",
"249 300 OFFCURVE",
"287 285 OFFCURVE",
"328 285 CURVE SMOOTH",
"390 285 OFFCURVE",
"428 317 OFFCURVE",
"428 382 CURVE",
"249 382 LINE",
"283 577 LINE",
"310 566 OFFCURVE",
"355 550 OFFCURVE",
"402 550 CURVE SMOOTH",
"473 550 OFFCURVE",
"515 587 OFFCURVE",
"515 660 CURVE"
);
}
);
};
layerId = "7A350A25-044B-4D59-B0E9-6A59A980AC73";
paths = (
{
closed = 1;
nodes = (
"447 659 OFFCURVE",
"384 658 OFFCURVE",
"322 658 CURVE SMOOTH",
"259 658 OFFCURVE",
"197 659 OFFCURVE",
"134 660 CURVE",
"9 0 LINE",
"321 0 LINE SMOOTH",
"380 0 OFFCURVE",
"403 34 OFFCURVE",
"403 67 CURVE SMOOTH",
"403 82 OFFCURVE",
"399 97 OFFCURVE",
"390 109 CURVE",
"360 105 OFFCURVE",
"316 103 OFFCURVE",
"271 103 CURVE SMOOTH",
"246 103 OFFCURVE",
"220 104 OFFCURVE",
"196 105 CURVE",
"232 301 LINE",
"268 290 OFFCURVE",
"300 285 OFFCURVE",
"327 285 CURVE SMOOTH",
"390 285 OFFCURVE",
"426 312 OFFCURVE",
"426 357 CURVE SMOOTH",
"426 365 OFFCURVE",
"425 374 OFFCURVE",
"422 383 CURVE",
"397 381 OFFCURVE",
"369 380 OFFCURVE",
"341 380 CURVE SMOOTH",
"306 380 OFFCURVE",
"273 381 OFFCURVE",
"249 384 CURVE",
"281 567 LINE",
"328 555 OFFCURVE",
"369 550 OFFCURVE",
"403 550 CURVE SMOOTH",
"473 550 OFFCURVE",
"512 576 OFFCURVE",
"512 631 CURVE SMOOTH",
"512 640 OFFCURVE",
"511 650 OFFCURVE",
"509 660 CURVE"
);
}
);
width = 469;
},
{
anchors = (
{
name = bottom;
position = "{202, 0}";
},
{
name = ogonek;
position = "{337, 0}";
},
{
name = top;
position = "{329, 660}";
}
);
background = {
paths = (
{
closed = 1;
nodes = (
"120 660 LINE",
"-3 0 LINE",
"311 0 LINE SMOOTH",
"372 0 OFFCURVE",
"436 13 OFFCURVE",
"436 75 CURVE SMOOTH",
"436 91 OFFCURVE",
"432 117 OFFCURVE",
"422 130 CURVE",
"403 124 OFFCURVE",
"368 120 OFFCURVE",
"323 120 CURVE SMOOTH",
"234 120 LINE",
"267 298 LINE",
"271 294 OFFCURVE",
"313 275 OFFCURVE",
"360 275 CURVE SMOOTH",
"429 275 OFFCURVE",
"463 317 OFFCURVE",
"463 387 CURVE",
"285 387 LINE",
"316 562 LINE",
"333 554 OFFCURVE",
"379 535 OFFCURVE",
"432 535 CURVE SMOOTH",
"512 535 OFFCURVE",
"550 579 OFFCURVE",
"550 660 CURVE"
);
}
);
};
layerId = "1597CCFE-0C49-4087-BB13-985DDBBCAFFD";
paths = (
{
closed = 1;
nodes = (
"470 658 OFFCURVE",
"400 657 OFFCURVE",
"331 657 CURVE SMOOTH",
"261 657 OFFCURVE",
"192 658 OFFCURVE",
"120 660 CURVE",
"-3 0 LINE",
"349 0 LINE SMOOTH",
"409 0 OFFCURVE",
"436 40 OFFCURVE",
"436 79 CURVE SMOOTH",
"436 95 OFFCURVE",
"431 112 OFFCURVE",
"422 125 CURVE",
"402 120 OFFCURVE",
"355 119 OFFCURVE",
"308 119 CURVE SMOOTH",
"282 119 OFFCURVE",
"256 119 OFFCURVE",
"234 120 CURVE",
"266 290 LINE",
"301 280 OFFCURVE",
"332 275 OFFCURVE",
"358 275 CURVE SMOOTH",
"424 275 OFFCURVE",
"459 306 OFFCURVE",
"459 362 CURVE SMOOTH",
"459 370 OFFCURVE",
"458 378 OFFCURVE",
"457 387 CURVE",
"433 386 OFFCURVE",
"407 386 OFFCURVE",
"381 386 CURVE SMOOTH",
"346 386 OFFCURVE",
"311 387 OFFCURVE",
"285 389 CURVE",
"314 551 LINE",
"356 540 OFFCURVE",
"394 535 OFFCURVE",
"426 535 CURVE SMOOTH",
"500 535 OFFCURVE",
"545 563 OFFCURVE",
"545 626 CURVE SMOOTH",
"545 636 OFFCURVE",
"544 648 OFFCURVE",
"541 660 CURVE"
);
}
);
width = 496;
},
{
anchors = (
{
name = bottom;
position = "{223, 0}";
},
{
name = ogonek;
position = "{374, 0}";
},
{
name = top;
position = "{352, 660}";
}
);
background = {
paths = (
{
closed = 1;
nodes = (
"562 520 OFFCURVE",
"596 571 OFFCURVE",
"596 660 CURVE",
"116 660 LINE",
"-5 0 LINE",
"343 0 LINE SMOOTH",
"410 0 OFFCURVE",
"479 16 OFFCURVE",
"479 84 CURVE SMOOTH",
"479 100 OFFCURVE",
"476 130 OFFCURVE",
"465 144 CURVE",
"446 140 OFFCURVE",
"413 135 OFFCURVE",
"356 135 CURVE SMOOTH",
"283 135 LINE",
"312 287 LINE",
"317 283 OFFCURVE",
"357 265 OFFCURVE",
"403 265 CURVE SMOOTH",
"479 265 OFFCURVE",
"509 317 OFFCURVE",
"509 392 CURVE",
"332 392 LINE",
"360 547 LINE",
"367 543 OFFCURVE",
"414 520 OFFCURVE",
"473 520 CURVE SMOOTH"
);
}
);
};
layerId = "30A38917-B9D2-447A-AF98-EAADDBDD04CD";
paths = (
{
closed = 1;
nodes = (
"437 521 OFFCURVE",
"469 521 CURVE SMOOTH",
"543 521 OFFCURVE",
"592 554 OFFCURVE",
"592 625 CURVE SMOOTH",
"592 636 OFFCURVE",
"590 647 OFFCURVE",
"588 660 CURVE",
"515 658 OFFCURVE",
"442 657 OFFCURVE",
"369 657 CURVE SMOOTH",
"285 657 OFFCURVE",
"201 658 OFFCURVE",
"116 660 CURVE",
"-5 0 LINE",
"383 0 LINE SMOOTH",
"445 0 OFFCURVE",
"478 35 OFFCURVE",
"478 83 CURVE SMOOTH",
"478 100 OFFCURVE",
"474 119 OFFCURVE",
"465 139 CURVE",
"439 136 OFFCURVE",
"389 134 OFFCURVE",
"342 134 CURVE SMOOTH",
"321 134 OFFCURVE",
"301 135 OFFCURVE",
"283 135 CURVE",
"312 281 LINE",
"345 270 OFFCURVE",
"374 265 OFFCURVE",
"399 265 CURVE SMOOTH",
"466 265 OFFCURVE",
"506 301 OFFCURVE",
"506 363 CURVE SMOOTH",
"506 372 OFFCURVE",
"505 382 OFFCURVE",
"503 392 CURVE",
"483 391 OFFCURVE",
"460 391 OFFCURVE",
"438 391 CURVE SMOOTH",
"397 391 OFFCURVE",
"357 392 OFFCURVE",
"332 394 CURVE",
"359 540 LINE",
"399 527 OFFCURVE"
);
}
);
width = 535;
},
{
anchors = (
{
name = bottom;
position = "{181, 0}";
},
{
name = ogonek;
position = "{308, 0}";
},
{
name = top;
position = "{315, 660}";
}
);
layerId = "1252CFB8-7EB2-4C2F-9C11-14383990C0AA";
paths = (
{
closed = 1;
nodes = (
"412 659 OFFCURVE",
"362 658 OFFCURVE",
"312 658 CURVE SMOOTH",
"262 658 OFFCURVE",
"212 659 OFFCURVE",
"161 660 CURVE",
"33 0 LINE",
"296 0 LINE SMOOTH",
"341 0 OFFCURVE",
"364 20 OFFCURVE",
"364 52 CURVE SMOOTH",
"364 63 OFFCURVE",
"361 75 OFFCURVE",
"356 88 CURVE",
"326 83 OFFCURVE",
"279 81 OFFCURVE",
"226 81 CURVE SMOOTH",
"200 81 OFFCURVE",
"174 81 OFFCURVE",
"147 82 CURVE",
"189 316 LINE",
"229 305 OFFCURVE",
"264 300 OFFCURVE",
"292 300 CURVE SMOOTH",
"348 300 OFFCURVE",
"380 319 OFFCURVE",
"380 350 CURVE SMOOTH",
"380 358 OFFCURVE",
"378 367 OFFCURVE",
"373 377 CURVE",
"340 375 OFFCURVE",
"310 374 OFFCURVE",
"281 374 CURVE SMOOTH",
"255 374 OFFCURVE",
"229 375 OFFCURVE",
"201 377 CURVE",
"239 589 LINE",
"287 578 OFFCURVE",
"328 573 OFFCURVE",
"362 573 CURVE SMOOTH",
"428 573 OFFCURVE",
"466 592 OFFCURVE",
"466 637 CURVE SMOOTH",
"466 645 OFFCURVE",
"465 652 OFFCURVE",
"463 661 CURVE"
);
}
);
width = 438;
}
);
note = E;
unicode = 0045;
},
{
glyphname = F;
layers = (
{
background = {
paths = (
{
closed = 1;
nodes = (
"149 660 LINE",
"22 0 LINE",
"143 0 LINE",
"200 318 LINE",
"227 305 OFFCURVE",
"261 295 OFFCURVE",
"297 295 CURVE SMOOTH",
"351 295 OFFCURVE",
"393 317 OFFCURVE",
"393 377 CURVE",
"213 377 LINE",
"250 592 LINE",
"287 577 OFFCURVE",
"332 565 OFFCURVE",
"372 565 CURVE SMOOTH",
"435 565 OFFCURVE",
"480 595 OFFCURVE",
"480 660 CURVE"
);
}
);
};
layerId = "B7BBAE14-F4F3-4898-8D83-DD158C3247C2";
paths = (
{
closed = 1;
nodes = (
"419 659 OFFCURVE",
"365 658 OFFCURVE",
"312 658 CURVE SMOOTH",
"258 658 OFFCURVE",
"204 659 OFFCURVE",
"149 660 CURVE",
"22 0 LINE",
"143 0 LINE",
"199 311 LINE",
"238 300 OFFCURVE",
"272 295 OFFCURVE",
"300 295 CURVE SMOOTH",
"358 295 OFFCURVE",
"391 317 OFFCURVE",
"391 352 CURVE SMOOTH",
"391 360 OFFCURVE",
"389 369 OFFCURVE",
"385 379 CURVE",
"354 377 OFFCURVE",
"325 376 OFFCURVE",
"296 376 CURVE SMOOTH",
"268 376 OFFCURVE",
"240 377 OFFCURVE",
"213 379 CURVE",
"249 582 LINE",
"296 571 OFFCURVE",
"337 566 OFFCURVE",
"371 566 CURVE SMOOTH",
"438 566 OFFCURVE",
"477 587 OFFCURVE",
"477 635 CURVE SMOOTH",
"477 643 OFFCURVE",
"476 651 OFFCURVE",
"474 661 CURVE"
);
}
);
width = 432;
},
{
background = {
paths = (
{
closed = 1;
nodes = (
"134 660 LINE",
"9 0 LINE",
"178 0 LINE",
"233 309 LINE",
"254 299 OFFCURVE",
"293 285 OFFCURVE",
"333 285 CURVE SMOOTH",
"400 285 OFFCURVE",
"436 322 OFFCURVE",
"436 386 CURVE",
"249 386 LINE",
"283 575 LINE",
"316 560 OFFCURVE",
"367 548 OFFCURVE",
"410 548 CURVE SMOOTH",
"484 548 OFFCURVE",
"521 586 OFFCURVE",
"521 660 CURVE"
);
}
);
};
layerId = "7A350A25-044B-4D59-B0E9-6A59A980AC73";
paths = (
{
closed = 1;
nodes = (
"451 659 OFFCURVE",
"384 658 OFFCURVE",
"322 658 CURVE SMOOTH",
"259 658 OFFCURVE",
"197 659 OFFCURVE",
"134 660 CURVE",
"9 0 LINE",
"177 0 LINE",
"232 301 LINE",
"268 290 OFFCURVE",
"305 285 OFFCURVE",
"332 285 CURVE SMOOTH",
"395 285 OFFCURVE",
"431 315 OFFCURVE",
"431 360 CURVE SMOOTH",
"431 368 OFFCURVE",
"430 377 OFFCURVE",
"427 386 CURVE",
"402 384 OFFCURVE",
"374 383 OFFCURVE",
"346 383 CURVE SMOOTH",
"311 383 OFFCURVE",
"273 384 OFFCURVE",
"249 387 CURVE",
"281 567 LINE",
"328 555 OFFCURVE",
"373 550 OFFCURVE",
"407 550 CURVE SMOOTH",
"477 550 OFFCURVE",
"516 576 OFFCURVE",
"516 631 CURVE SMOOTH",
"516 640 OFFCURVE",
"515 650 OFFCURVE",
"513 660 CURVE"
);
}
);
width = 471;
},
{
background = {
paths = (
{
closed = 1;
nodes = (
"120 660 LINE",
"-3 0 LINE",
"214 0 LINE",
"267 299 LINE",
"282 292 OFFCURVE",
"325 275 OFFCURVE",
"370 275 CURVE SMOOTH",
"450 275 OFFCURVE",
"479 327 OFFCURVE",
"479 395 CURVE",
"286 395 LINE",
"316 557 LINE",
"346 543 OFFCURVE",
"403 530 OFFCURVE",
"448 530 CURVE SMOOTH",
"534 530 OFFCURVE",
"563 577 OFFCURVE",
"563 660 CURVE"
);
}
);
};
layerId = "1597CCFE-0C49-4087-BB13-985DDBBCAFFD";
paths = (
{
closed = 1;
nodes = (
"484 658 OFFCURVE",
"400 657 OFFCURVE",
"331 657 CURVE SMOOTH",
"261 657 OFFCURVE",
"192 658 OFFCURVE",
"120 660 CURVE",
"-3 0 LINE",
"214 0 LINE",
"266 290 LINE",
"301 280 OFFCURVE",
"347 275 OFFCURVE",
"373 275 CURVE SMOOTH",
"439 275 OFFCURVE",
"475 314 OFFCURVE",
"475 370 CURVE SMOOTH",
"475 378 OFFCURVE",
"474 386 OFFCURVE",
"473 395 CURVE",
"449 394 OFFCURVE",
"423 394 OFFCURVE",
"397 394 CURVE SMOOTH",
"362 394 OFFCURVE",
"312 395 OFFCURVE",
"286 397 CURVE",
"314 551 LINE",
"356 540 OFFCURVE",
"408 535 OFFCURVE",
"440 535 CURVE SMOOTH",
"514 535 OFFCURVE",
"559 563 OFFCURVE",
"559 626 CURVE SMOOTH",
"559 636 OFFCURVE",
"558 648 OFFCURVE",
"555 660 CURVE"
);
}
);
width = 510;
},
{
background = {
paths = (
{
closed = 1;
nodes = (
"116 660 LINE",
"-5 0 LINE",
"261 0 LINE",
"312 290 LINE",
"321 286 OFFCURVE",
"368 265 OFFCURVE",
"418 265 CURVE SMOOTH",
"510 265 OFFCURVE",
"533 332 OFFCURVE",
"533 404 CURVE",
"334 404 LINE",
"360 540 LINE",
"387 526 OFFCURVE",
"450 513 OFFCURVE",
"497 513 CURVE SMOOTH",
"594 513 OFFCURVE",
"616 568 OFFCURVE",
"616 660 CURVE"
);
}
);
};
layerId = "30A38917-B9D2-447A-AF98-EAADDBDD04CD";
paths = (
{
closed = 1;
nodes = (
"399 527 OFFCURVE",
"457 521 OFFCURVE",
"489 521 CURVE SMOOTH",
"563 521 OFFCURVE",
"612 554 OFFCURVE",
"612 625 CURVE SMOOTH",
"612 636 OFFCURVE",
"610 647 OFFCURVE",
"608 660 CURVE",
"535 658 OFFCURVE",
"442 657 OFFCURVE",
"369 657 CURVE SMOOTH",
"285 657 OFFCURVE",
"201 658 OFFCURVE",
"116 660 CURVE",
"-5 0 LINE",
"261 0 LINE",
"311 286 LINE",
"349 272 OFFCURVE",
"384 265 OFFCURVE",
"414 265 CURVE SMOOTH",
"486 265 OFFCURVE",
"530 304 OFFCURVE",
"530 372 CURVE SMOOTH",
"530 381 OFFCURVE",
"529 393 OFFCURVE",
"527 403 CURVE",
"504 401 OFFCURVE",
"477 401 OFFCURVE",
"449 401 CURVE SMOOTH",
"405 401 OFFCURVE",
"359 403 OFFCURVE",
"334 405 CURVE",
"359 540 LINE"
);
}
);
width = 557;
},
{
layerId = "1252CFB8-7EB2-4C2F-9C11-14383990C0AA";
paths = (
{
closed = 1;
nodes = (
"409 659 OFFCURVE",
"362 658 OFFCURVE",
"312 658 CURVE SMOOTH",
"262 658 OFFCURVE",
"212 659 OFFCURVE",
"161 660 CURVE",
"33 0 LINE",
"132 0 LINE",
"189 316 LINE",
"229 305 OFFCURVE",
"261 300 OFFCURVE",
"289 300 CURVE SMOOTH",
"345 300 OFFCURVE",
"377 318 OFFCURVE",
"377 348 CURVE SMOOTH",
"377 356 OFFCURVE",
"375 365 OFFCURVE",
"370 376 CURVE",
"337 373 OFFCURVE",
"307 372 OFFCURVE",
"278 372 CURVE SMOOTH",
"252 372 OFFCURVE",
"229 373 OFFCURVE",
"201 375 CURVE",
"239 589 LINE",
"287 578 OFFCURVE",
"325 573 OFFCURVE",
"360 573 CURVE SMOOTH",
"425 573 OFFCURVE",
"463 592 OFFCURVE",
"463 637 CURVE SMOOTH",
"463 645 OFFCURVE",
"462 652 OFFCURVE",
"461 661 CURVE"
);
}
);
width = 424;
}
);
note = F;
rightKerningGroup = F;
unicode = 0046;
},
{
glyphname = Fhook;
layers = (
{
layerId = "B7BBAE14-F4F3-4898-8D83-DD158C3247C2";
paths = (
{
closed = 1;
nodes = (
"-47 -147 OFFCURVE",
"-21 -160 OFFCURVE",
"8 -160 CURVE SMOOTH",
"91 -160 OFFCURVE",
"127 -56 OFFCURVE",
"153 71 CURVE SMOOTH",
"199 311 LINE",
"238 300 OFFCURVE",
"272 295 OFFCURVE",
"300 295 CURVE SMOOTH",
"358 295 OFFCURVE",
"391 317 OFFCURVE",
"391 352 CURVE SMOOTH",
"391 360 OFFCURVE",
"389 369 OFFCURVE",
"385 379 CURVE",
"354 377 OFFCURVE",
"325 376 OFFCURVE",
"296 376 CURVE SMOOTH",
"268 376 OFFCURVE",
"240 377 OFFCURVE",
"213 379 CURVE",
"249 582 LINE",
"296 571 OFFCURVE",
"337 566 OFFCURVE",
"371 566 CURVE SMOOTH",
"438 566 OFFCURVE",
"477 587 OFFCURVE",
"477 635 CURVE SMOOTH",
"477 643 OFFCURVE",
"476 651 OFFCURVE",
"474 661 CURVE",
"419 659 OFFCURVE",
"365 658 OFFCURVE",
"312 658 CURVE SMOOTH",
"258 658 OFFCURVE",
"204 659 OFFCURVE",
"149 660 CURVE",
"32 51 LINE SMOOTH",
"20 -12 OFFCURVE",
"0 -98 OFFCURVE",
"-58 -121 CURVE"
);
}
);
width = 432;
},
{
layerId = "7A350A25-044B-4D59-B0E9-6A59A980AC73";
paths = (
{
closed = 1;
nodes = (
"-77 -160 OFFCURVE",
"-43 -175 OFFCURVE",
"0 -175 CURVE SMOOTH",
"106 -175 OFFCURVE",
"162 -76 OFFCURVE",
"197 113 CURVE SMOOTH",
"232 301 LINE",
"268 290 OFFCURVE",
"305 285 OFFCURVE",
"332 285 CURVE SMOOTH",
"395 285 OFFCURVE",
"431 315 OFFCURVE",
"431 360 CURVE SMOOTH",
"431 368 OFFCURVE",
"430 377 OFFCURVE",
"427 386 CURVE",
"402 384 OFFCURVE",
"374 383 OFFCURVE",
"346 383 CURVE SMOOTH",
"311 383 OFFCURVE",
"273 384 OFFCURVE",
"249 387 CURVE",
"281 567 LINE",
"328 555 OFFCURVE",
"373 550 OFFCURVE",
"407 550 CURVE SMOOTH",
"477 550 OFFCURVE",
"516 576 OFFCURVE",
"516 631 CURVE SMOOTH",
"516 640 OFFCURVE",
"515 650 OFFCURVE",
"513 660 CURVE",
"451 659 OFFCURVE",
"384 658 OFFCURVE",
"322 658 CURVE SMOOTH",
"259 658 OFFCURVE",
"197 659 OFFCURVE",
"134 660 CURVE",
"28 103 LINE SMOOTH",
"0 -42 OFFCURVE",
"-24 -103 OFFCURVE",
"-90 -130 CURVE"
);
}
);
width = 471;
},
{
layerId = "1597CCFE-0C49-4087-BB13-985DDBBCAFFD";
paths = (
{
closed = 1;
nodes = (
"-105 -173 OFFCURVE",
"-62 -190 OFFCURVE",
"-7 -190 CURVE SMOOTH",
"123 -190 OFFCURVE",
"194 -100 OFFCURVE",
"241 154 CURVE SMOOTH",
"266 290 LINE",
"301 280 OFFCURVE",
"347 275 OFFCURVE",
"373 275 CURVE SMOOTH",
"439 275 OFFCURVE",
"475 314 OFFCURVE",
"475 370 CURVE SMOOTH",
"475 378 OFFCURVE",
"474 386 OFFCURVE",
"473 395 CURVE",
"449 394 OFFCURVE",
"423 394 OFFCURVE",
"397 394 CURVE SMOOTH",
"362 394 OFFCURVE",
"312 395 OFFCURVE",
"286 397 CURVE",
"314 551 LINE",
"356 540 OFFCURVE",
"408 535 OFFCURVE",
"440 535 CURVE SMOOTH",
"514 535 OFFCURVE",
"559 563 OFFCURVE",
"559 626 CURVE SMOOTH",
"559 636 OFFCURVE",
"558 648 OFFCURVE",
"555 660 CURVE",
"484 658 OFFCURVE",
"400 657 OFFCURVE",
"331 657 CURVE SMOOTH",
"262 657 OFFCURVE",
"194 658 OFFCURVE",
"123 660 CURVE",
"25 154 LINE SMOOTH",
"-18 -71 OFFCURVE",
"-45 -107 OFFCURVE",
"-120 -138 CURVE"
);
}
);
width = 510;
},
{
layerId = "30A38917-B9D2-447A-AF98-EAADDBDD04CD";
paths = (
{
closed = 1;
nodes = (
"-125 -186 OFFCURVE",
"-74 -205 OFFCURVE",
"-4 -205 CURVE SMOOTH",
"149 -205 OFFCURVE",
"242 -123 OFFCURVE",
"296 197 CURVE SMOOTH",
"311 286 LINE",
"349 272 OFFCURVE",
"384 265 OFFCURVE",
"414 265 CURVE SMOOTH",
"486 265 OFFCURVE",
"530 304 OFFCURVE",
"530 372 CURVE SMOOTH",
"530 381 OFFCURVE",
"529 393 OFFCURVE",
"527 403 CURVE",
"504 401 OFFCURVE",
"477 401 OFFCURVE",
"449 401 CURVE SMOOTH",
"405 401 OFFCURVE",
"359 403 OFFCURVE",
"334 405 CURVE",
"359 540 LINE",
"399 527 OFFCURVE",
"457 521 OFFCURVE",
"489 521 CURVE SMOOTH",
"563 521 OFFCURVE",
"612 554 OFFCURVE",
"612 625 CURVE SMOOTH",
"612 636 OFFCURVE",
"610 647 OFFCURVE",
"608 660 CURVE",
"535 658 OFFCURVE",
"442 657 OFFCURVE",
"369 657 CURVE SMOOTH",
"285 657 OFFCURVE",
"201 658 OFFCURVE",
"116 660 CURVE",
"32 206 LINE SMOOTH",
"-25 -102 OFFCURVE",
"-58 -111 OFFCURVE",
"-142 -146 CURVE"
);
}
);
width = 557;
},
{
layerId = "1252CFB8-7EB2-4C2F-9C11-14383990C0AA";
paths = (
{
closed = 1;
nodes = (
"-28 -141 OFFCURVE",
"-6 -153 OFFCURVE",
"17 -153 CURVE SMOOTH",
"89 -153 OFFCURVE",
"116 -46 OFFCURVE",
"138 52 CURVE SMOOTH",
"189 316 LINE",
"229 305 OFFCURVE",
"261 300 OFFCURVE",
"289 300 CURVE SMOOTH",
"345 300 OFFCURVE",
"377 318 OFFCURVE",
"377 348 CURVE SMOOTH",
"377 356 OFFCURVE",
"375 365 OFFCURVE",
"370 376 CURVE",
"337 373 OFFCURVE",
"307 372 OFFCURVE",
"278 372 CURVE SMOOTH",
"252 372 OFFCURVE",
"229 373 OFFCURVE",
"201 375 CURVE",
"239 589 LINE",
"287 578 OFFCURVE",
"325 573 OFFCURVE",
"360 573 CURVE SMOOTH",
"425 573 OFFCURVE",
"463 592 OFFCURVE",
"463 637 CURVE SMOOTH",
"463 645 OFFCURVE",
"462 652 OFFCURVE",
"461 661 CURVE",
"409 659 OFFCURVE",
"362 658 OFFCURVE",
"312 658 CURVE SMOOTH",
"262 658 OFFCURVE",
"212 659 OFFCURVE",
"161 660 CURVE",
"39 27 LINE SMOOTH",
"34 2 OFFCURVE",
"16 -96 OFFCURVE",
"-38 -117 CURVE"
);
}
);
width = 424;
}
);
unicode = 0191;
},
{
glyphname = G;
layers = (
{
anchors = (
{
name = bottom;
position = "{226, 0}";
},
{
name = top;
position = "{351, 660}";
}
);
layerId = "B7BBAE14-F4F3-4898-8D83-DD158C3247C2";
paths = (
{
closed = 1;
nodes = (
"380 308 LINE",
"348 97 LINE",
"326 81 OFFCURVE",
"289 76 OFFCURVE",
"264 76 CURVE SMOOTH",
"175 76 OFFCURVE",
"152 143 OFFCURVE",
"152 229 CURVE SMOOTH",
"152 364 OFFCURVE",
"208 609 OFFCURVE",
"343 609 CURVE SMOOTH",
"386 609 OFFCURVE",
"411 581 OFFCURVE",
"411 539 CURVE SMOOTH",
"411 519 OFFCURVE",
"405 487 OFFCURVE",
"396 465 CURVE",
"406 454 OFFCURVE",
"427 449 OFFCURVE",
"445 449 CURVE SMOOTH",
"493 449 OFFCURVE",
"533 482 OFFCURVE",
"533 548 CURVE SMOOTH",
"533 633 OFFCURVE",
"466 680 OFFCURVE",
"368 680 CURVE SMOOTH",
"138 680 OFFCURVE",
"26 428 OFFCURVE",
"26 221 CURVE SMOOTH",
"26 72 OFFCURVE",
"85 -20 OFFCURVE",
"200 -20 CURVE SMOOTH",
"268 -20 OFFCURVE",
"322 14 OFFCURVE",
"352 38 CURVE",
"352 2 OFFCURVE",
"370 -20 OFFCURVE",
"410 -20 CURVE SMOOTH",
"425 -20 OFFCURVE",
"438 -15 OFFCURVE",
"445 -4 CURVE",
"448 91 OFFCURVE",
"464 231 OFFCURVE",
"508 326 CURVE"
);
}
);
width = 528;
},
{
anchors = (
{
name = bottom;
position = "{251, 0}";
},
{
name = top;
position = "{376, 660}";
}
);
layerId = "7A350A25-044B-4D59-B0E9-6A59A980AC73";
paths = (
{
closed = 1;
nodes = (
"405 315 LINE",
"373 109 LINE",
"356 93 OFFCURVE",
"322 88 OFFCURVE",
"299 88 CURVE SMOOTH",
"213 88 OFFCURVE",
"193 168 OFFCURVE",
"193 247 CURVE SMOOTH",
"193 385 OFFCURVE",
"254 609 OFFCURVE",
"371 609 CURVE SMOOTH",
"419 609 OFFCURVE",
"433 567 OFFCURVE",
"433 529 CURVE SMOOTH",
"433 502 OFFCURVE",
"428 475 OFFCURVE",
"422 453 CURVE",
"434 445 OFFCURVE",
"453 442 OFFCURVE",
"469 442 CURVE SMOOTH",
"529 442 OFFCURVE",
"581 483 OFFCURVE",
"581 554 CURVE SMOOTH",
"581 644 OFFCURVE",
"494 680 OFFCURVE",
"397 680 CURVE SMOOTH",
"153 680 OFFCURVE",
"23 461 OFFCURVE",
"23 236 CURVE SMOOTH",
"23 80 OFFCURVE",
"86 -20 OFFCURVE",
"218 -20 CURVE SMOOTH",
"280 -20 OFFCURVE",
"340 5 OFFCURVE",
"376 37 CURVE",
"378 7 OFFCURVE",
"406 -20 OFFCURVE",
"454 -20 CURVE SMOOTH",
"474 -20 OFFCURVE",
"490 -15 OFFCURVE",
"503 -3 CURVE",
"504 105 OFFCURVE",
"524 233 OFFCURVE",
"570 333 CURVE"
);
}
);
width = 584;
},
{
anchors = (
{
name = bottom;
position = "{274, 0}";
},
{
name = top;
position = "{399, 660}";
}
);
layerId = "1597CCFE-0C49-4087-BB13-985DDBBCAFFD";
paths = (
{
closed = 1;
nodes = (
"431 322 LINE",
"399 121 LINE",
"386 105 OFFCURVE",
"355 99 OFFCURVE",
"334 99 CURVE SMOOTH",
"251 99 OFFCURVE",
"235 193 OFFCURVE",
"235 264 CURVE SMOOTH",
"235 405 OFFCURVE",
"301 609 OFFCURVE",
"400 609 CURVE SMOOTH",
"453 609 OFFCURVE",
"455 551 OFFCURVE",
"455 519 CURVE SMOOTH",
"455 485 OFFCURVE",
"452 462 OFFCURVE",
"448 441 CURVE",
"462 436 OFFCURVE",
"480 434 OFFCURVE",
"494 434 CURVE SMOOTH",
"566 434 OFFCURVE",
"630 484 OFFCURVE",
"630 559 CURVE SMOOTH",
"630 655 OFFCURVE",
"523 680 OFFCURVE",
"427 680 CURVE SMOOTH",
"168 680 OFFCURVE",
"21 494 OFFCURVE",
"21 251 CURVE SMOOTH",
"21 87 OFFCURVE",
"88 -20 OFFCURVE",
"237 -20 CURVE SMOOTH",
"293 -20 OFFCURVE",
"357 -5 OFFCURVE",
"400 36 CURVE",
"405 12 OFFCURVE",
"442 -20 OFFCURVE",
"499 -20 CURVE SMOOTH",
"524 -20 OFFCURVE",
"542 -14 OFFCURVE",
"561 -1 CURVE",
"561 118 OFFCURVE",
"585 235 OFFCURVE",
"632 340 CURVE"
);
}
);
width = 640;
},
{
anchors = (
{
name = bottom;
position = "{314, 0}";
},
{
name = top;
position = "{439, 660}";
}
);
layerId = "30A38917-B9D2-447A-AF98-EAADDBDD04CD";
paths = (
{
closed = 1;
nodes = (
"473 329 LINE",
"441 133 LINE",
"433 117 OFFCURVE",
"405 110 OFFCURVE",
"386 110 CURVE SMOOTH",
"306 110 OFFCURVE",
"293 219 OFFCURVE",
"293 281 CURVE SMOOTH",
"293 425 OFFCURVE",
"364 609 OFFCURVE",
"445 609 CURVE SMOOTH",
"484 609 OFFCURVE",
"500 574 OFFCURVE",
"500 518 CURVE SMOOTH",
"500 492 OFFCURVE",
"497 462 OFFCURVE",
"491 429 CURVE",
"507 427 OFFCURVE",
"523 427 OFFCURVE",
"535 427 CURVE SMOOTH",
"619 427 OFFCURVE",
"695 485 OFFCURVE",
"695 564 CURVE SMOOTH",
"695 666 OFFCURVE",
"568 680 OFFCURVE",
"473 680 CURVE SMOOTH",
"198 680 OFFCURVE",
"34 528 OFFCURVE",
"34 266 CURVE SMOOTH",
"34 94 OFFCURVE",
"105 -20 OFFCURVE",
"265 -20 CURVE SMOOTH",
"321 -20 OFFCURVE",
"393 -7 OFFCURVE",
"443 42 CURVE",
"445 19 OFFCURVE",
"489 -20 OFFCURVE",
"560 -20 CURVE SMOOTH",
"590 -20 OFFCURVE",
"610 -14 OFFCURVE",
"635 0 CURVE",
"634 131 OFFCURVE",
"662 237 OFFCURVE",
"712 347 CURVE"
);
}
);
width = 704;
},
{
anchors = (
{
name = bottom;
position = "{220, 0}";
},
{
name = top;
position = "{345, 660}";
}
);
layerId = "1252CFB8-7EB2-4C2F-9C11-14383990C0AA";
paths = (
{
closed = 1;
nodes = (
"373 305 LINE",
"341 91 LINE",
"317 75 OFFCURVE",
"279 71 OFFCURVE",
"253 71 CURVE SMOOTH",
"162 71 OFFCURVE",
"138 131 OFFCURVE",
"138 221 CURVE SMOOTH",
"138 354 OFFCURVE",
"191 609 OFFCURVE",
"335 609 CURVE SMOOTH",
"376 609 OFFCURVE",
"406 588 OFFCURVE",
"406 544 CURVE SMOOTH",
"406 527 OFFCURVE",
"399 493 OFFCURVE",
"389 471 CURVE",
"398 458 OFFCURVE",
"420 452 OFFCURVE",
"439 452 CURVE SMOOTH",
"481 452 OFFCURVE",
"516 482 OFFCURVE",
"516 545 CURVE SMOOTH",
"516 628 OFFCURVE",
"458 680 OFFCURVE",
"359 680 CURVE SMOOTH",
"136 680 OFFCURVE",
"32 413 OFFCURVE",
"32 214 CURVE SMOOTH",
"32 68 OFFCURVE",
"89 -20 OFFCURVE",
"197 -20 CURVE SMOOTH",
"267 -20 OFFCURVE",
"319 18 OFFCURVE",
"346 38 CURVE",
"345 0 OFFCURVE",
"358 -20 OFFCURVE",
"394 -20 CURVE SMOOTH",
"407 -20 OFFCURVE",
"419 -15 OFFCURVE",
"423 -5 CURVE",
"427 85 OFFCURVE",
"441 230 OFFCURVE",
"484 323 CURVE"
);
}
);
width = 512;
}
);
note = G;
unicode = 0047;
},
{
glyphname = H;
layers = (
{
anchors = (
{
name = bottom;
position = "{245, 0}";
},
{
name = center;
position = "{349, 528}";
},
{
name = top;
position = "{371, 660}";
}
);
layerId = "B7BBAE14-F4F3-4898-8D83-DD158C3247C2";
paths = (
{
closed = 1;
nodes = (
"601 660 LINE",
"482 660 LINE",
"426 360 LINE",
"209 360 LINE",
"268 660 LINE",
"149 660 LINE",
"22 0 LINE",
"139 0 LINE",
"195 290 LINE",
"413 290 LINE",
"386 133 LINE SMOOTH",
"377 79 OFFCURVE",
"375 62 OFFCURVE",
"375 47 CURVE SMOOTH",
"375 6 OFFCURVE",
"390 -20 OFFCURVE",
"436 -20 CURVE SMOOTH",
"460 -20 OFFCURVE",
"482 -13 OFFCURVE",
"503 4 CURVE",
"494 19 OFFCURVE",
"491 35 OFFCURVE",
"491 49 CURVE SMOOTH",
"491 63 OFFCURVE",
"494 84 OFFCURVE",
"496 95 CURVE SMOOTH"
);
}
);
width = 615;
},
{
anchors = (
{
name = bottom;
position = "{261, 0}";
},
{
name = center;
position = "{365, 528}";
},
{
name = top;
position = "{387, 660}";
}
);
layerId = "7A350A25-044B-4D59-B0E9-6A59A980AC73";
paths = (
{
closed = 1;
nodes = (
"643 660 LINE",
"479 660 LINE",
"423 363 LINE",
"240 363 LINE",
"299 660 LINE",
"134 660 LINE",
"7 0 LINE",
"170 0 LINE",
"225 288 LINE",
"409 288 LINE",
"386 151 LINE SMOOTH",
"379 104 OFFCURVE",
"376 81 OFFCURVE",
"376 63 CURVE SMOOTH",
"376 14 OFFCURVE",
"399 -20 OFFCURVE",
"458 -20 CURVE SMOOTH",
"489 -20 OFFCURVE",
"522 -11 OFFCURVE",
"549 9 CURVE",
"541 23 OFFCURVE",
"536 43 OFFCURVE",
"536 63 CURVE SMOOTH",
"536 81 OFFCURVE",
"540 108 OFFCURVE",
"543 127 CURVE SMOOTH"
);
}
);
width = 647;
},
{
anchors = (
{
name = bottom;
position = "{273, 0}";
},
{
name = center;
position = "{377, 528}";
},
{
name = top;
position = "{399, 660}";
}
);
layerId = "1597CCFE-0C49-4087-BB13-985DDBBCAFFD";
paths = (
{
closed = 1;
nodes = (
"686 660 LINE",
"476 660 LINE",
"421 365 LINE",
"272 365 LINE",
"330 660 LINE",
"120 660 LINE",
"-7 0 LINE",
"201 0 LINE",
"256 285 LINE",
"406 285 LINE",
"387 169 LINE SMOOTH",
"381 129 OFFCURVE",
"377 99 OFFCURVE",
"377 79 CURVE SMOOTH",
"377 21 OFFCURVE",
"409 -20 OFFCURVE",
"481 -20 CURVE SMOOTH",
"519 -20 OFFCURVE",
"562 -9 OFFCURVE",
"595 14 CURVE",
"588 26 OFFCURVE",
"582 51 OFFCURVE",
"582 77 CURVE SMOOTH",
"582 99 OFFCURVE",
"586 131 OFFCURVE",
"591 159 CURVE SMOOTH"
);
}
);
width = 680;
},
{
anchors = (
{
name = bottom;
position = "{300, 0}";
},
{
name = center;
position = "{404, 528}";
},
{
name = top;
position = "{426, 660}";
}
);
layerId = "30A38917-B9D2-447A-AF98-EAADDBDD04CD";
paths = (
{
closed = 1;
nodes = (
"740 660 LINE",
"483 660 LINE",
"429 367 LINE",
"315 367 LINE",
"372 660 LINE",
"116 660 LINE",
"-11 0 LINE",
"243 0 LINE",
"298 283 LINE",
"413 283 LINE",
"397 187 LINE",
"393 155 OFFCURVE",
"388 117 OFFCURVE",
"388 95 CURVE SMOOTH",
"388 28 OFFCURVE",
"429 -20 OFFCURVE",
"515 -20 CURVE SMOOTH",
"560 -20 OFFCURVE",
"613 -7 OFFCURVE",
"652 19 CURVE",
"646 29 OFFCURVE",
"638 59 OFFCURVE",
"638 91 CURVE SMOOTH",
"638 117 OFFCURVE",
"643 156 OFFCURVE",
"649 192 CURVE SMOOTH"
);
}
);
width = 697;
},
{
anchors = (
{
name = bottom;
position = "{243, 0}";
},
{
name = center;
position = "{347, 528}";
},
{
name = top;
position = "{369, 660}";
}
);
layerId = "1252CFB8-7EB2-4C2F-9C11-14383990C0AA";
paths = (
{
closed = 1;
nodes = (
"586 660 LINE",
"488 660 LINE",
"432 359 LINE",
"199 359 LINE",
"259 660 LINE",
"161 660 LINE",
"34 0 LINE",
"130 0 LINE",
"186 291 LINE",
"420 291 LINE",
"391 125 LINE SMOOTH",
"381 67 OFFCURVE",
"380 53 OFFCURVE",
"380 40 CURVE SMOOTH",
"380 2 OFFCURVE",
"391 -20 OFFCURVE",
"431 -20 CURVE SMOOTH",
"451 -20 OFFCURVE",
"468 -14 OFFCURVE",
"487 2 CURVE",
"477 17 OFFCURVE",
"475 31 OFFCURVE",
"475 42 CURVE SMOOTH",
"475 55 OFFCURVE",
"478 73 OFFCURVE",
"479 80 CURVE SMOOTH"
);
}
);
width = 610;
}
);
note = H;
unicode = 0048;
},
{
glyphname = I;
layers = (
{
anchors = (
{
name = bottom;
position = "{69, 0}";
},
{
name = ogonek;
position = "{102, -10}";
},
{
name = top;
position = "{211, 660}";
}
);
layerId = "B7BBAE14-F4F3-4898-8D83-DD158C3247C2";
paths = (
{
closed = 1;
nodes = (
"268 660 LINE",
"149 660 LINE",
"22 0 LINE",
"139 0 LINE"
);
}
);
width = 290;
},
{
anchors = (
{
name = bottom;
position = "{77, 0}";
},
{
name = ogonek;
position = "{127, -10}";
},
{
name = top;
position = "{220, 660}";
}
);
layerId = "7A350A25-044B-4D59-B0E9-6A59A980AC73";
paths = (
{
closed = 1;
nodes = (
"303 660 LINE",
"134 660 LINE",
"7 0 LINE",
"174 0 LINE"
);
}
);
width = 313;
},
{
anchors = (
{
name = bottom;
position = "{90, 0}";
},
{
name = ogonek;
position = "{152, -10}";
},
{
name = top;
position = "{233, 660}";
}
);
layerId = "1597CCFE-0C49-4087-BB13-985DDBBCAFFD";
paths = (
{
closed = 1;
nodes = (
"339 660 LINE",
"120 660 LINE",
"-7 0 LINE",
"210 0 LINE"
);
}
);
width = 336;
},
{
anchors = (
{
name = bottom;
position = "{112, 0}";
},
{
name = ogonek;
position = "{198, -10}";
},
{
name = top;
position = "{255, 660}";
}
);
layerId = "30A38917-B9D2-447A-AF98-EAADDBDD04CD";
paths = (
{
closed = 1;
nodes = (
"386 660 LINE",
"116 660 LINE",
"-11 0 LINE",
"257 0 LINE"
);
}
);
width = 339;
},
{
anchors = (
{
name = bottom;
position = "{70, 0}";
},
{
name = ogonek;
position = "{95, -10}";
},
{
name = top;
position = "{211, 660}";
}
);
layerId = "1252CFB8-7EB2-4C2F-9C11-14383990C0AA";
paths = (
{
closed = 1;
nodes = (
"257 660 LINE",
"161 660 LINE",
"34 0 LINE",
"128 0 LINE"
);
}
);
width = 289;
}
);
note = I;
unicode = 0049;
},
{
glyphname = J;
layers = (
{
anchors = (
{
name = top;
position = "{213, 660}";
}
);
layerId = "B7BBAE14-F4F3-4898-8D83-DD158C3247C2";
paths = (
{
closed = 1;
nodes = (
"268 660 LINE",
"149 660 LINE",
"32 51 LINE SMOOTH",
"20 -12 OFFCURVE",
"0 -98 OFFCURVE",
"-58 -121 CURVE",
"-47 -147 OFFCURVE",
"-21 -160 OFFCURVE",
"8 -160 CURVE SMOOTH",
"91 -160 OFFCURVE",
"129 -55 OFFCURVE",
"153 71 CURVE SMOOTH"
);
}
);
width = 290;
},
{
anchors = (
{
name = top;
position = "{223, 660}";
}
);
layerId = "7A350A25-044B-4D59-B0E9-6A59A980AC73";
paths = (
{
closed = 1;
nodes = (
"303 660 LINE",
"135 660 LINE",
"28 103 LINE SMOOTH",
"0 -42 OFFCURVE",
"-24 -103 OFFCURVE",
"-90 -130 CURVE",
"-77 -160 OFFCURVE",
"-43 -175 OFFCURVE",
"0 -175 CURVE SMOOTH",
"106 -175 OFFCURVE",
"161 -76 OFFCURVE",
"197 113 CURVE SMOOTH"
);
}
);
width = 313;
},
{
anchors = (
{
name = top;
position = "{234, 660}";
}
);
layerId = "1597CCFE-0C49-4087-BB13-985DDBBCAFFD";
paths = (
{
closed = 1;
nodes = (
"338 660 LINE",
"123 660 LINE",
"25 154 LINE SMOOTH",
"-18 -71 OFFCURVE",
"-45 -107 OFFCURVE",
"-120 -138 CURVE",
"-105 -173 OFFCURVE",
"-62 -190 OFFCURVE",
"-7 -190 CURVE SMOOTH",
"123 -190 OFFCURVE",
"194 -97 OFFCURVE",
"241 154 CURVE SMOOTH"
);
}
);
width = 336;
},
{
anchors = (
{
name = top;
position = "{256, 660}";
}
);
layerId = "30A38917-B9D2-447A-AF98-EAADDBDD04CD";
paths = (
{
closed = 1;
nodes = (
"384 660 LINE",
"119 660 LINE",
"32 206 LINE SMOOTH",
"-28 -102 OFFCURVE",
"-58 -111 OFFCURVE",
"-142 -146 CURVE",
"-125 -186 OFFCURVE",
"-74 -205 OFFCURVE",
"-4 -205 CURVE SMOOTH",
"149 -205 OFFCURVE",
"236 -120 OFFCURVE",
"296 197 CURVE SMOOTH"
);
}
);
width = 339;
},
{
anchors = (
{
name = top;
position = "{213, 660}";
}
);
layerId = "1252CFB8-7EB2-4C2F-9C11-14383990C0AA";
paths = (
{
closed = 1;
nodes = (
"257 660 LINE",
"160 660 LINE",
"39 27 LINE SMOOTH",
"34 2 OFFCURVE",
"16 -96 OFFCURVE",
"-38 -117 CURVE",
"-28 -141 OFFCURVE",
"-6 -153 OFFCURVE",
"17 -153 CURVE SMOOTH",
"89 -153 OFFCURVE",
"119 -45 OFFCURVE",
"138 52 CURVE SMOOTH"
);
}
);
width = 289;
}
);
note = J;
unicode = 004A;
},
{
glyphname = K;
layers = (
{
anchors = (
{
name = bottom;
position = "{244, 0}";
}
);
layerId = "B7BBAE14-F4F3-4898-8D83-DD158C3247C2";
paths = (
{
closed = 1;
nodes = (
"268 660 LINE",
"149 660 LINE",
"139 604 OFFCURVE",
"72 244 OFFCURVE",
"25 0 CURVE",
"142 0 LINE"
);
},
{
closed = 1;
nodes = (
"469 660 LINE",
"226 328 LINE",
"314 79 OFFCURVE",
"355 -19 OFFCURVE",
"448 -19 CURVE SMOOTH",
"487 -19 OFFCURVE",
"517 -1 OFFCURVE",
"526 35 CURVE",
"481 56 OFFCURVE",
"411 149 OFFCURVE",
"340 336 CURVE",
"365 368 OFFCURVE",
"461 486 OFFCURVE",
"600 660 CURVE"
);
}
);
width = 559;
},
{
anchors = (
{
name = bottom;
position = "{266, 0}";
}
);
layerId = "7A350A25-044B-4D59-B0E9-6A59A980AC73";
paths = (
{
closed = 1;
nodes = (
"301 660 LINE",
"135 660 LINE",
"124 604 OFFCURVE",
"56 244 OFFCURVE",
"10 0 CURVE",
"175 0 LINE"
);
},
{
closed = 1;
nodes = (
"501 660 LINE",
"258 328 LINE",
"323 102 OFFCURVE",
"363 -20 OFFCURVE",
"479 -20 CURVE SMOOTH",
"528 -20 OFFCURVE",
"565 3 OFFCURVE",
"578 47 CURVE",
"525 74 OFFCURVE",
"463 169 OFFCURVE",
"406 336 CURVE",
"431 368 OFFCURVE",
"525 486 OFFCURVE",
"676 660 CURVE"
);
}
);
width = 600;
},
{
anchors = (
{
name = bottom;
position = "{294, 0}";
}
);
layerId = "1597CCFE-0C49-4087-BB13-985DDBBCAFFD";
paths = (
{
closed = 1;
nodes = (
"333 660 LINE",
"120 660 LINE",
"108 604 OFFCURVE",
"40 244 OFFCURVE",
"-5 0 CURVE",
"207 0 LINE"
);
},
{
closed = 1;
nodes = (
"534 660 LINE",
"291 328 LINE",
"332 125 OFFCURVE",
"371 -20 OFFCURVE",
"511 -20 CURVE SMOOTH",
"570 -20 OFFCURVE",
"613 6 OFFCURVE",
"630 59 CURVE",
"569 91 OFFCURVE",
"516 189 OFFCURVE",
"473 336 CURVE",
"498 367 OFFCURVE",
"590 486 OFFCURVE",
"752 660 CURVE"
);
}
);
width = 640;
},
{
anchors = (
{
name = bottom;
position = "{334, 0}";
}
);
layerId = "30A38917-B9D2-447A-AF98-EAADDBDD04CD";
paths = (
{
closed = 1;
nodes = (
"378 660 LINE",
"117 660 LINE",
"104 604 OFFCURVE",
"36 244 OFFCURVE",
"-8 0 CURVE",
"252 0 LINE"
);
},
{
closed = 1;
nodes = (
"579 660 LINE",
"336 328 LINE",
"352 149 OFFCURVE",
"390 -20 OFFCURVE",
"555 -20 CURVE SMOOTH",
"624 -20 OFFCURVE",
"673 9 OFFCURVE",
"694 71 CURVE",
"625 108 OFFCURVE",
"581 209 OFFCURVE",
"553 336 CURVE",
"578 367 OFFCURVE",
"668 486 OFFCURVE",
"842 660 CURVE"
);
}
);
width = 748;
},
{
anchors = (
{
name = bottom;
position = "{238, 0}";
}
);
layerId = "1252CFB8-7EB2-4C2F-9C11-14383990C0AA";
paths = (
{
closed = 1;
nodes = (
"258 660 LINE",
"161 660 LINE",
"151 604 OFFCURVE",
"84 244 OFFCURVE",
"37 0 CURVE",
"132 0 LINE"
);
},
{
closed = 1;
nodes = (
"459 660 LINE",
"216 328 LINE",
"315 68 OFFCURVE",
"356 -19 OFFCURVE",
"438 -19 CURVE SMOOTH",
"473 -19 OFFCURVE",
"500 -3 OFFCURVE",
"507 29 CURVE",
"466 48 OFFCURVE",
"392 140 OFFCURVE",
"314 336 CURVE",
"339 368 OFFCURVE",
"436 486 OFFCURVE",
"570 660 CURVE"
);
}
);
width = 550;
}
);
note = K;
rightKerningGroup = K;
unicode = 004B;
},
{
glyphname = L;
layers = (
{
anchors = (
{
name = bottom;
position = "{184, 0}";
},
{
name = center;
position = "{140, 315}";
},
{
name = top;
position = "{207, 660}";
},
{
name = topright;
position = "{163, 492}";
}
);
background = {
paths = (
{
closed = 1;
nodes = (
"22 0 LINE",
"271 0 LINE SMOOTH",
"319 0 OFFCURVE",
"373 7 OFFCURVE",
"373 56 CURVE SMOOTH",
"373 72 OFFCURVE",
"367 90 OFFCURVE",
"359 101 CURVE",
"340 92 OFFCURVE",
"301 89 OFFCURVE",
"280 89 CURVE SMOOTH",
"156 89 LINE",
"268 660 LINE",
"149 660 LINE"
);
}
);
};
layerId = "B7BBAE14-F4F3-4898-8D83-DD158C3247C2";
paths = (
{
closed = 1;
nodes = (
"22 0 LINE",
"283 0 LINE SMOOTH",
"343 0 OFFCURVE",
"372 23 OFFCURVE",
"372 56 CURVE SMOOTH",
"372 67 OFFCURVE",
"369 80 OFFCURVE",
"361 94 CURVE",
"337 89 OFFCURVE",
"290 88 OFFCURVE",
"239 88 CURVE SMOOTH",
"212 88 OFFCURVE",
"183 89 OFFCURVE",
"156 89 CURVE",
"268 660 LINE",
"149 660 LINE"
);
}
);
width = 376;
},
{
anchors = (
{
name = bottom;
position = "{199, 0}";
},
{
name = center;
position = "{155, 315}";
},
{
name = top;
position = "{217, 660}";
},
{
name = topright;
position = "{160, 492}";
}
);
background = {
paths = (
{
closed = 1;
nodes = (
"10 0 LINE",
"294 0 LINE SMOOTH",
"350 0 OFFCURVE",
"407 10 OFFCURVE",
"407 66 CURVE SMOOTH",
"407 82 OFFCURVE",
"402 104 OFFCURVE",
"393 116 CURVE",
"374 108 OFFCURVE",
"337 105 OFFCURVE",
"304 105 CURVE SMOOTH",
"198 105 LINE",
"303 660 LINE",
"134 660 LINE"
);
}
);
};
layerId = "7A350A25-044B-4D59-B0E9-6A59A980AC73";
paths = (
{
closed = 1;
nodes = (
"10 0 LINE",
"308 0 LINE SMOOTH",
"375 0 OFFCURVE",
"407 28 OFFCURVE",
"407 66 CURVE SMOOTH",
"407 80 OFFCURVE",
"403 95 OFFCURVE",
"395 110 CURVE",
"373 106 OFFCURVE",
"326 104 OFFCURVE",
"271 104 CURVE SMOOTH",
"248 104 OFFCURVE",
"223 104 OFFCURVE",
"198 105 CURVE",
"303 660 LINE",
"134 660 LINE"
);
}
);
width = 409;
},
{
anchors = (
{
name = bottom;
position = "{211, 0}";
},
{
name = center;
position = "{171, 325}";
},
{
name = top;
position = "{227, 660}";
},
{
name = topright;
position = "{162, 492}";
}
);
background = {
paths = (
{
closed = 1;
nodes = (
"-1 0 LINE",
"318 0 LINE SMOOTH",
"381 0 OFFCURVE",
"442 12 OFFCURVE",
"442 75 CURVE SMOOTH",
"442 91 OFFCURVE",
"438 117 OFFCURVE",
"428 130 CURVE",
"409 124 OFFCURVE",
"374 120 OFFCURVE",
"329 120 CURVE SMOOTH",
"240 120 LINE",
"338 660 LINE",
"120 660 LINE"
);
}
);
};
layerId = "1597CCFE-0C49-4087-BB13-985DDBBCAFFD";
paths = (
{
closed = 1;
nodes = (
"-1 0 LINE",
"336 0 LINE SMOOTH",
"406 0 OFFCURVE",
"442 30 OFFCURVE",
"442 74 CURVE SMOOTH",
"442 89 OFFCURVE",
"437 107 OFFCURVE",
"428 125 CURVE",
"401 121 OFFCURVE",
"351 119 OFFCURVE",
"302 119 CURVE SMOOTH",
"280 119 OFFCURVE",
"259 119 OFFCURVE",
"240 120 CURVE",
"338 660 LINE",
"120 660 LINE"
);
}
);
width = 441;
},
{
anchors = (
{
name = bottom;
position = "{231, 0}";
},
{
name = center;
position = "{189, 315}";
},
{
name = top;
position = "{257, 660}";
},
{
name = topright;
position = "{177, 492}";
}
);
background = {
paths = (
{
closed = 1;
nodes = (
"-2 0 LINE",
"353 0 LINE SMOOTH",
"423 0 OFFCURVE",
"488 14 OFFCURVE",
"488 84 CURVE SMOOTH",
"488 100 OFFCURVE",
"485 130 OFFCURVE",
"474 144 CURVE",
"455 140 OFFCURVE",
"422 135 OFFCURVE",
"365 135 CURVE SMOOTH",
"293 135 LINE",
"384 660 LINE",
"116 660 LINE"
);
}
);
};
layerId = "30A38917-B9D2-447A-AF98-EAADDBDD04CD";
paths = (
{
closed = 1;
nodes = (
"-2 0 LINE",
"373 0 LINE SMOOTH",
"449 0 OFFCURVE",
"488 36 OFFCURVE",
"488 85 CURVE SMOOTH",
"488 102 OFFCURVE",
"483 121 OFFCURVE",
"474 140 CURVE",
"436 135 OFFCURVE",
"365 135 OFFCURVE",
"293 135 CURVE",
"384 660 LINE",
"116 660 LINE"
);
}
);
width = 508;
},
{
anchors = (
{
name = bottom;
position = "{182, 0}";
},
{
name = center;
position = "{138, 314}";
},
{
name = top;
position = "{207, 660}";
},
{
name = topright;
position = "{169, 492}";
}
);
layerId = "1252CFB8-7EB2-4C2F-9C11-14383990C0AA";
paths = (
{
closed = 1;
nodes = (
"32 0 LINE",
"276 0 LINE SMOOTH",
"333 0 OFFCURVE",
"361 21 OFFCURVE",
"361 52 CURVE SMOOTH",
"361 61 OFFCURVE",
"358 73 OFFCURVE",
"350 87 CURVE",
"326 81 OFFCURVE",
"280 81 OFFCURVE",
"229 81 CURVE SMOOTH",
"201 81 OFFCURVE",
"170 82 OFFCURVE",
"141 82 CURVE",
"257 660 LINE",
"161 660 LINE"
);
}
);
width = 371;
}
);
note = L;
rightKerningGroup = L;
unicode = 004C;
},
{
glyphname = M;
layers = (
{
background = {
paths = (
{
closed = 1;
nodes = (
"593 660 LINE",
"383 199 LINE",
"304 660 LINE",
"155 660 LINE",
"10 0 LINE",
"108 0 LINE",
"214 518 LINE",
"300 0 LINE",
"382 0 LINE",
"621 518 LINE",
"580 143 LINE SMOOTH",
"578 125 OFFCURVE",
"574 87 OFFCURVE",
"574 69 CURVE SMOOTH",
"574 13 OFFCURVE",
"581 -22 OFFCURVE",
"637 -22 CURVE SMOOTH",
"667 -22 OFFCURVE",
"692 -9 OFFCURVE",
"712 16 CURVE",
"695 35 OFFCURVE",
"690 55 OFFCURVE",
"690 81 CURVE SMOOTH",
"690 88 OFFCURVE",
"692 116 OFFCURVE",
"693 122 CURVE",
"745 660 LINE"
);
}
);
};
layerId = "B7BBAE14-F4F3-4898-8D83-DD158C3247C2";
paths = (
{
closed = 1;
nodes = (
"593 660 LINE",
"383 199 LINE",
"304 660 LINE",
"155 660 LINE",
"10 0 LINE",
"108 0 LINE",
"214 518 LINE",
"300 0 LINE",
"382 0 LINE",
"621 518 LINE",
"600 331 OFFCURVE",
"575 169 OFFCURVE",
"575 78 CURVE SMOOTH",
"575 3 OFFCURVE",
"595 -22 OFFCURVE",
"636 -22 CURVE SMOOTH",
"664 -22 OFFCURVE",
"689 -10 OFFCURVE",
"706 6 CURVE",
"699 24 OFFCURVE",
"696 61 OFFCURVE",
"696 99 CURVE SMOOTH",
"696 197 OFFCURVE",
"716 369 OFFCURVE",
"745 660 CURVE"
);
}
);
width = 749;
},
{
background = {
paths = (
{
closed = 1;
nodes = (
"590 660 LINE",
"400 244 LINE",
"326 660 LINE",
"147 660 LINE",
"-6 0 LINE",
"101 0 LINE",
"202 484 LINE",
"286 0 LINE",
"386 0 LINE",
"605 484 LINE",
"571 141 LINE SMOOTH",
"570 126 OFFCURVE",
"567 96 OFFCURVE",
"567 81 CURVE SMOOTH",
"567 17 OFFCURVE",
"587 -21 OFFCURVE",
"651 -21 CURVE SMOOTH",
"694 -21 OFFCURVE",
"730 -4 OFFCURVE",
"749 25 CURVE",
"727 43 OFFCURVE",
"722 70 OFFCURVE",
"722 102 CURVE SMOOTH",
"722 111 OFFCURVE",
"723 140 OFFCURVE",
"724 149 CURVE SMOOTH",
"766 660 LINE"
);
}
);
};
layerId = "7A350A25-044B-4D59-B0E9-6A59A980AC73";
paths = (
{
closed = 1;
nodes = (
"590 660 LINE",
"400 244 LINE",
"326 660 LINE",
"147 660 LINE",
"-6 0 LINE",
"101 0 LINE",
"202 484 LINE",
"286 0 LINE",
"386 0 LINE",
"605 484 LINE",
"578 221 OFFCURVE",
"567 122 OFFCURVE",
"567 71 CURVE SMOOTH",
"567 14 OFFCURVE",
"593 -21 OFFCURVE",
"651 -21 CURVE SMOOTH",
"694 -21 OFFCURVE",
"720 0 OFFCURVE",
"736 19 CURVE",
"728 52 OFFCURVE",
"725 81 OFFCURVE",
"725 123 CURVE SMOOTH",
"725 205 OFFCURVE",
"739 339 OFFCURVE",
"766 660 CURVE"
);
}
);
width = 780;
},
{
background = {
paths = (
{
closed = 1;
nodes = (
"588 660 LINE",
"418 289 LINE",
"349 660 LINE",
"141 660 LINE",
"-20 0 LINE",
"95 0 LINE",
"192 450 LINE",
"274 0 LINE",
"390 0 LINE",
"591 450 LINE",
"564 139 LINE SMOOTH",
"563 126 OFFCURVE",
"561 105 OFFCURVE",
"561 93 CURVE SMOOTH",
"561 21 OFFCURVE",
"594 -20 OFFCURVE",
"666 -20 CURVE SMOOTH",
"723 -20 OFFCURVE",
"768 2 OFFCURVE",
"786 33 CURVE",
"761 51 OFFCURVE",
"755 84 OFFCURVE",
"755 123 CURVE SMOOTH",
"755 134 OFFCURVE",
"756 163 OFFCURVE",
"757 175 CURVE SMOOTH",
"789 660 LINE"
);
}
);
};
layerId = "1597CCFE-0C49-4087-BB13-985DDBBCAFFD";
paths = (
{
closed = 1;
nodes = (
"588 660 LINE",
"418 289 LINE",
"349 660 LINE",
"141 660 LINE",
"-20 0 LINE",
"95 0 LINE",
"192 450 LINE",
"274 0 LINE",
"390 0 LINE",
"591 450 LINE",
"572 230 OFFCURVE",
"561 151 OFFCURVE",
"561 88 CURVE SMOOTH",
"561 16 OFFCURVE",
"590 -20 OFFCURVE",
"662 -20 CURVE SMOOTH",
"719 -20 OFFCURVE",
"752 0 OFFCURVE",
"773 23 CURVE",
"762 57 OFFCURVE",
"757 89 OFFCURVE",
"757 142 CURVE SMOOTH",
"757 228 OFFCURVE",
"770 370 OFFCURVE",
"789 660 CURVE"
);
}
);
width = 812;
},
{
background = {
paths = (
{
closed = 1;
nodes = (
"586 660 LINE",
"436 335 LINE",
"371 660 LINE",
"133 660 LINE",
"-36 0 LINE",
"87 0 LINE",
"180 415 LINE",
"260 0 LINE",
"394 0 LINE",
"575 415 LINE",
"555 137 LINE SMOOTH",
"554 126 OFFCURVE",
"555 114 OFFCURVE",
"555 105 CURVE SMOOTH",
"555 25 OFFCURVE",
"601 -19 OFFCURVE",
"681 -19 CURVE SMOOTH",
"751 -19 OFFCURVE",
"807 7 OFFCURVE",
"824 41 CURVE",
"794 59 OFFCURVE",
"787 98 OFFCURVE",
"787 146 CURVE SMOOTH",
"787 158 OFFCURVE",
"788 188 OFFCURVE",
"789 203 CURVE SMOOTH",
"811 660 LINE"
);
}
);
};
layerId = "30A38917-B9D2-447A-AF98-EAADDBDD04CD";
paths = (
{
closed = 1;
nodes = (
"586 660 LINE",
"436 335 LINE",
"371 660 LINE",
"133 660 LINE",
"-36 0 LINE",
"87 0 LINE",
"180 415 LINE",
"260 0 LINE",
"394 0 LINE",
"575 415 LINE",
"560 230 OFFCURVE",
"555 166 OFFCURVE",
"555 105 CURVE SMOOTH",
"555 23 OFFCURVE",
"598 -19 OFFCURVE",
"678 -19 CURVE SMOOTH",
"748 -19 OFFCURVE",
"791 9 OFFCURVE",
"808 33 CURVE",
"794 61 OFFCURVE",
"788 94 OFFCURVE",
"788 160 CURVE SMOOTH",
"788 247 OFFCURVE",
"798 392 OFFCURVE",
"811 660 CURVE"
);
}
);
width = 824;
},
{
layerId = "1252CFB8-7EB2-4C2F-9C11-14383990C0AA";
paths = (
{
closed = 1;
nodes = (
"599 660 LINE",
"380 178 LINE",
"299 660 LINE",
"163 660 LINE",
"22 0 LINE",
"116 0 LINE",
"224 534 LINE",
"311 0 LINE",
"385 0 LINE",
"633 534 LINE",
"613 368 OFFCURVE",
"583 182 OFFCURVE",
"583 78 CURVE SMOOTH",
"583 -1 OFFCURVE",
"601 -22 OFFCURVE",
"634 -22 CURVE SMOOTH",
"656 -22 OFFCURVE",
"679 -13 OFFCURVE",
"696 1 CURVE",
"690 14 OFFCURVE",
"687 53 OFFCURVE",
"687 88 CURVE SMOOTH",
"687 192 OFFCURVE",
"709 376 OFFCURVE",
"740 660 CURVE"
);
}
);
width = 744;
}
);
note = M;
unicode = 004D;
},
{
glyphname = N;
layers = (
{
anchors = (
{
name = bottom;
position = "{261, 0}";
},
{
name = top;
position = "{388, 660}";
}
);
layerId = "B7BBAE14-F4F3-4898-8D83-DD158C3247C2";
paths = (
{
closed = 1;
nodes = (
"125 0 LINE",
"214 533 LINE",
"369 0 LINE",
"500 0 LINE",
"620 660 LINE",
"523 660 LINE",
"437 144 LINE",
"294 660 LINE",
"149 660 LINE",
"27 0 LINE"
);
}
);
width = 649;
},
{
anchors = (
{
name = bottom;
position = "{272, 0}";
},
{
name = top;
position = "{399, 660}";
}
);
layerId = "7A350A25-044B-4D59-B0E9-6A59A980AC73";
paths = (
{
closed = 1;
nodes = (
"121 0 LINE",
"202 486 LINE",
"351 0 LINE",
"531 0 LINE",
"652 660 LINE",
"544 660 LINE",
"463 175 LINE",
"314 660 LINE",
"134 660 LINE",
"13 0 LINE"
);
}
);
width = 668;
},
{
anchors = (
{
name = bottom;
position = "{284, 0}";
},
{
name = top;
position = "{411, 660}";
}
);
layerId = "1597CCFE-0C49-4087-BB13-985DDBBCAFFD";
paths = (
{
closed = 1;
nodes = (
"117 0 LINE",
"190 438 LINE",
"334 0 LINE",
"562 0 LINE",
"684 660 LINE",
"566 660 LINE",
"490 205 LINE",
"334 660 LINE",
"120 660 LINE",
"0 0 LINE"
);
}
);
width = 687;
},
{
anchors = (
{
name = bottom;
position = "{304, 0}";
},
{
name = top;
position = "{431, 660}";
}
);
layerId = "30A38917-B9D2-447A-AF98-EAADDBDD04CD";
paths = (
{
closed = 1;
nodes = (
"123 0 LINE",
"188 390 LINE",
"327 0 LINE",
"604 0 LINE",
"727 660 LINE",
"599 660 LINE",
"528 237 LINE",
"366 660 LINE",
"116 660 LINE",
"-3 0 LINE"
);
}
);
width = 686;
},
{
anchors = (
{
name = bottom;
position = "{261, 0}";
},
{
name = top;
position = "{388, 660}";
}
);
layerId = "1252CFB8-7EB2-4C2F-9C11-14383990C0AA";
paths = (
{
closed = 1;
nodes = (
"132 0 LINE",
"225 555 LINE",
"382 0 LINE",
"491 0 LINE",
"610 660 LINE",
"518 660 LINE",
"430 130 LINE",
"290 660 LINE",
"161 660 LINE",
"38 0 LINE"
);
}
);
width = 650;
}
);
note = N;
unicode = 004E;
},
{
glyphname = Eng;
layers = (
{
layerId = "B7BBAE14-F4F3-4898-8D83-DD158C3247C2";
paths = (
{
closed = 1;
nodes = (
"214 533 LINE",
"369 0 LINE",
"407 0 LINE",
"393 -54 OFFCURVE",
"367 -110 OFFCURVE",
"318 -128 CURVE",
"328 -149 OFFCURVE",
"353 -160 OFFCURVE",
"380 -160 CURVE SMOOTH",
"455 -160 OFFCURVE",
"489 -59 OFFCURVE",
"511 63 CURVE SMOOTH",
"620 660 LINE",
"523 660 LINE",
"437 144 LINE",
"294 660 LINE",
"149 660 LINE",
"27 0 LINE",
"125 0 LINE"
);
}
);
width = 648;
},
{
layerId = "7A350A25-044B-4D59-B0E9-6A59A980AC73";
paths = (
{
closed = 1;
nodes = (
"202 486 LINE",
"354 0 LINE",
"429 0 LINE",
"409 -87 OFFCURVE",
"378 -126 OFFCURVE",
"324 -146 CURVE",
"334 -167 OFFCURVE",
"360 -179 OFFCURVE",
"391 -179 CURVE SMOOTH",
"475 -179 OFFCURVE",
"514 -91 OFFCURVE",
"541 59 CURVE SMOOTH",
"652 660 LINE",
"544 660 LINE",
"463 175 LINE",
"314 660 LINE",
"134 660 LINE",
"13 0 LINE",
"121 0 LINE"
);
}
);
width = 668;
},
{
layerId = "1597CCFE-0C49-4087-BB13-985DDBBCAFFD";
paths = (
{
closed = 1;
nodes = (
"190 438 LINE",
"339 0 LINE",
"452 0 LINE",
"425 -120 OFFCURVE",
"390 -141 OFFCURVE",
"331 -163 CURVE",
"341 -185 OFFCURVE",
"368 -197 OFFCURVE",
"402 -197 CURVE SMOOTH",
"495 -197 OFFCURVE",
"539 -123 OFFCURVE",
"572 55 CURVE SMOOTH",
"684 660 LINE",
"566 660 LINE",
"490 205 LINE",
"334 660 LINE",
"120 660 LINE",
"0 0 LINE",
"117 0 LINE"
);
}
);
width = 687;
},
{
layerId = "30A38917-B9D2-447A-AF98-EAADDBDD04CD";
paths = (
{
closed = 1;
nodes = (
"188 390 LINE",
"334 0 LINE",
"486 0 LINE",
"453 -154 OFFCURVE",
"413 -156 OFFCURVE",
"347 -180 CURVE",
"357 -203 OFFCURVE",
"385 -215 OFFCURVE",
"425 -215 CURVE SMOOTH",
"527 -215 OFFCURVE",
"575 -156 OFFCURVE",
"614 51 CURVE SMOOTH",
"727 660 LINE",
"599 660 LINE",
"528 237 LINE",
"366 660 LINE",
"116 660 LINE",
"-3 0 LINE",
"123 0 LINE"
);
}
);
width = 685;
},
{
layerId = "1252CFB8-7EB2-4C2F-9C11-14383990C0AA";
paths = (
{
closed = 1;
nodes = (
"225 555 LINE",
"381 0 LINE",
"402 0 LINE",
"391 -39 OFFCURVE",
"367 -103 OFFCURVE",
"320 -120 CURVE",
"330 -141 OFFCURVE",
"355 -151 OFFCURVE",
"380 -151 CURVE SMOOTH",
"451 -151 OFFCURVE",
"482 -44 OFFCURVE",
"502 65 CURVE SMOOTH",
"610 660 LINE",
"518 660 LINE",
"430 130 LINE",
"290 660 LINE",
"161 660 LINE",
"38 0 LINE",
"132 0 LINE"
);
}
);
width = 649;
}
);
note = Eng;
unicode = 014A;
},
{
glyphname = Nhookleft;
layers = (
{
layerId = "B7BBAE14-F4F3-4898-8D83-DD158C3247C2";
paths = (
{
closed = 1;
nodes = (
"-47 -147 OFFCURVE",
"-21 -160 OFFCURVE",
"8 -160 CURVE SMOOTH",
"91 -160 OFFCURVE",
"115 -59 OFFCURVE",
"131 35 CURVE SMOOTH",
"214 533 LINE",
"369 0 LINE",
"500 0 LINE",
"620 660 LINE",
"523 660 LINE",
"437 144 LINE",
"294 660 LINE",
"149 660 LINE",
"36 51 LINE SMOOTH",
"17 -51 OFFCURVE",
"0 -106 OFFCURVE",
"-58 -121 CURVE"
);
}
);
width = 649;
},
{
layerId = "7A350A25-044B-4D59-B0E9-6A59A980AC73";
paths = (
{
closed = 1;
nodes = (
"-77 -160 OFFCURVE",
"-43 -175 OFFCURVE",
"0 -175 CURVE SMOOTH",
"80 -175 OFFCURVE",
"109 -61 OFFCURVE",
"122 15 CURVE SMOOTH",
"202 485 LINE",
"351 0 LINE",
"531 0 LINE",
"652 660 LINE",
"544 660 LINE",
"463 175 LINE",
"314 660 LINE",
"134 660 LINE",
"32 103 LINE SMOOTH",
"5 -42 OFFCURVE",
"-11 -103 OFFCURVE",
"-90 -130 CURVE"
);
}
);
width = 668;
},
{
layerId = "1597CCFE-0C49-4087-BB13-985DDBBCAFFD";
paths = (
{
closed = 1;
nodes = (
"-110 -161 OFFCURVE",
"-89 -190 OFFCURVE",
"-34 -190 CURVE SMOOTH",
"75 -190 OFFCURVE",
"107 -74 OFFCURVE",
"123 27 CURVE SMOOTH",
"190 438 LINE",
"334 0 LINE",
"562 0 LINE",
"684 660 LINE",
"566 660 LINE",
"490 205 LINE",
"334 660 LINE",
"120 660 LINE",
"14 65 LINE SMOOTH",
"-9 -63 OFFCURVE",
"-45 -120 OFFCURVE",
"-120 -138 CURVE"
);
}
);
width = 687;
},
{
layerId = "30A38917-B9D2-447A-AF98-EAADDBDD04CD";
paths = (
{
closed = 1;
nodes = (
"-137 -180 OFFCURVE",
"-106 -205 OFFCURVE",
"-50 -205 CURVE SMOOTH",
"50 -205 OFFCURVE",
"101 -117 OFFCURVE",
"119 -14 CURVE SMOOTH",
"188 390 LINE",
"327 0 LINE",
"604 0 LINE",
"727 660 LINE",
"599 660 LINE",
"528 237 LINE",
"366 660 LINE",
"116 660 LINE",
"1 28 LINE SMOOTH",
"-21 -92 OFFCURVE",
"-59 -136 OFFCURVE",
"-142 -146 CURVE"
);
}
);
width = 686;
},
{
layerId = "1252CFB8-7EB2-4C2F-9C11-14383990C0AA";
paths = (
{
closed = 1;
nodes = (
"-28 -142 OFFCURVE",
"-3 -153 OFFCURVE",
"20 -153 CURVE SMOOTH",
"100 -153 OFFCURVE",
"122 -57 OFFCURVE",
"139 41 CURVE SMOOTH",
"225 555 LINE",
"382 0 LINE",
"491 0 LINE",
"610 660 LINE",
"518 660 LINE",
"430 130 LINE",
"290 660 LINE",
"161 660 LINE",
"44 37 LINE SMOOTH",
"28 -52 OFFCURVE",
"13 -105 OFFCURVE",
"-38 -117 CURVE"
);
}
);
width = 650;
}
);
unicode = 019D;
},
{
glyphname = O;
layers = (
{
anchors = (
{
name = bottom;
position = "{204, 0}";
},
{
name = center;
position = "{300, 363}";
},
{
name = ogonek;
position = "{315, 0}";
},
{
name = top;
position = "{358, 660}";
},
{
name = topright;
position = "{390, 660}";
}
);
layerId = "B7BBAE14-F4F3-4898-8D83-DD158C3247C2";
paths = (
{
closed = 1;
nodes = (
"126 680 OFFCURVE",
"26 417 OFFCURVE",
"26 214 CURVE SMOOTH",
"26 62 OFFCURVE",
"82 -20 OFFCURVE",
"220 -20 CURVE SMOOTH",
"468 -20 OFFCURVE",
"565 248 OFFCURVE",
"565 447 CURVE SMOOTH",
"565 598 OFFCURVE",
"509 680 OFFCURVE",
"371 680 CURVE SMOOTH"
);
},
{
closed = 1;
nodes = (
"417 610 OFFCURVE",
"440 554 OFFCURVE",
"440 476 CURVE SMOOTH",
"440 285 OFFCURVE",
"378 51 OFFCURVE",
"246 51 CURVE SMOOTH",
"174 51 OFFCURVE",
"151 107 OFFCURVE",
"151 185 CURVE SMOOTH",
"151 373 OFFCURVE",
"212 610 OFFCURVE",
"345 610 CURVE SMOOTH"
);
}
);
width = 591;
},
{
anchors = (
{
name = bottom;
position = "{244, 0}";
},
{
name = center;
position = "{322, 363}";
},
{
name = ogonek;
position = "{344, 0}";
},
{
name = top;
position = "{380, 660}";
},
{
name = topright;
position = "{412, 660}";
}
);
layerId = "7A350A25-044B-4D59-B0E9-6A59A980AC73";
paths = (
{
closed = 1;
nodes = (
"142 680 OFFCURVE",
"24 442 OFFCURVE",
"24 226 CURVE SMOOTH",
"24 61 OFFCURVE",
"104 -20 OFFCURVE",
"251 -20 CURVE SMOOTH",
"500 -20 OFFCURVE",
"616 221 OFFCURVE",
"616 435 CURVE SMOOTH",
"616 600 OFFCURVE",
"536 680 OFFCURVE",
"390 680 CURVE SMOOTH"
);
},
{
closed = 1;
nodes = (
"430 610 OFFCURVE",
"445 563 OFFCURVE",
"445 500 CURVE SMOOTH",
"445 315 OFFCURVE",
"393 51 OFFCURVE",
"270 51 CURVE SMOOTH",
"211 51 OFFCURVE",
"195 98 OFFCURVE",
"195 162 CURVE SMOOTH",
"195 343 OFFCURVE",
"248 610 OFFCURVE",
"370 610 CURVE SMOOTH"
);
}
);
width = 640;
},
{
anchors = (
{
name = bottom;
position = "{262, 0}";
},
{
name = center;
position = "{348, 363}";
},
{
name = ogonek;
position = "{375, 0}";
},
{
name = top;
position = "{406, 660}";
},
{
name = topright;
position = "{438, 660}";
}
);
layerId = "1597CCFE-0C49-4087-BB13-985DDBBCAFFD";
paths = (
{
closed = 1;
nodes = (
"157 680 OFFCURVE",
"22 470 OFFCURVE",
"22 247 CURVE SMOOTH",
"22 63 OFFCURVE",
"120 -20 OFFCURVE",
"281 -20 CURVE SMOOTH",
"532 -20 OFFCURVE",
"667 190 OFFCURVE",
"667 413 CURVE SMOOTH",
"667 597 OFFCURVE",
"569 680 OFFCURVE",
"408 680 CURVE SMOOTH"
);
},
{
closed = 1;
nodes = (
"442 610 OFFCURVE",
"450 572 OFFCURVE",
"450 524 CURVE SMOOTH",
"450 349 OFFCURVE",
"408 51 OFFCURVE",
"293 51 CURVE SMOOTH",
"247 51 OFFCURVE",
"239 89 OFFCURVE",
"239 137 CURVE SMOOTH",
"239 312 OFFCURVE",
"281 610 OFFCURVE",
"396 610 CURVE SMOOTH"
);
}
);
width = 689;
},
{
anchors = (
{
name = bottom;
position = "{314, 0}";
},
{
name = center;
position = "{389, 363}";
},
{
name = ogonek;
position = "{432, 0}";
},
{
name = top;
position = "{447, 660}";
},
{
name = topright;
position = "{479, 660}";
}
);
layerId = "30A38917-B9D2-447A-AF98-EAADDBDD04CD";
paths = (
{
closed = 1;
nodes = (
"188 680 OFFCURVE",
"36 492 OFFCURVE",
"36 258 CURVE SMOOTH",
"36 59 OFFCURVE",
"156 -20 OFFCURVE",
"329 -20 CURVE SMOOTH",
"581 -20 OFFCURVE",
"735 166 OFFCURVE",
"735 402 CURVE SMOOTH",
"735 601 OFFCURVE",
"615 680 OFFCURVE",
"442 680 CURVE SMOOTH"
);
},
{
closed = 1;
nodes = (
"465 610 OFFCURVE",
"472 572 OFFCURVE",
"472 525 CURVE SMOOTH",
"472 392 OFFCURVE",
"431 51 OFFCURVE",
"345 51 CURVE SMOOTH",
"306 51 OFFCURVE",
"299 89 OFFCURVE",
"299 136 CURVE SMOOTH",
"299 279 OFFCURVE",
"339 610 OFFCURVE",
"429 610 CURVE SMOOTH"
);
}
);
width = 739;
},
{
anchors = (
{
name = bottom;
position = "{193, 0}";
},
{
name = center;
position = "{294, 363}";
},
{
name = ogonek;
position = "{306, 0}";
},
{
name = top;
position = "{352, 660}";
},
{
name = topright;
position = "{384, 660}";
}
);
layerId = "1252CFB8-7EB2-4C2F-9C11-14383990C0AA";
paths = (
{
closed = 1;
nodes = (
"124 680 OFFCURVE",
"32 405 OFFCURVE",
"32 207 CURVE SMOOTH",
"32 62 OFFCURVE",
"77 -20 OFFCURVE",
"211 -20 CURVE SMOOTH",
"458 -20 OFFCURVE",
"546 261 OFFCURVE",
"546 454 CURVE SMOOTH",
"546 598 OFFCURVE",
"501 680 OFFCURVE",
"367 680 CURVE SMOOTH"
);
},
{
closed = 1;
nodes = (
"416 610 OFFCURVE",
"443 550 OFFCURVE",
"443 465 CURVE SMOOTH",
"443 271 OFFCURVE",
"376 51 OFFCURVE",
"240 51 CURVE SMOOTH",
"162 51 OFFCURVE",
"136 111 OFFCURVE",
"136 196 CURVE SMOOTH",
"136 387 OFFCURVE",
"201 610 OFFCURVE",
"338 610 CURVE SMOOTH"
);
}
);
width = 578;
}
);
note = O;
unicode = 004F;
},
{
glyphname = Ohorntilde;
layers = (
{
layerId = "B7BBAE14-F4F3-4898-8D83-DD158C3247C2";
paths = (
{
closed = 1;
nodes = (
"506 814 OFFCURVE",
"488 810 OFFCURVE",
"465 810 CURVE SMOOTH",
"421 810 OFFCURVE",
"341 826 OFFCURVE",
"295 826 CURVE SMOOTH",
"244 826 OFFCURVE",
"215 806 OFFCURVE",
"215 772 CURVE SMOOTH",
"215 759 OFFCURVE",
"219 745 OFFCURVE",
"232 726 CURVE",
"242 734 OFFCURVE",
"262 741 OFFCURVE",
"288 741 CURVE SMOOTH",
"328 741 OFFCURVE",
"414 725 OFFCURVE",
"454 725 CURVE SMOOTH",
"500 725 OFFCURVE",
"531 746 OFFCURVE",
"531 785 CURVE SMOOTH",
"531 798 OFFCURVE",
"527 812 OFFCURVE",
"515 826 CURVE"
);
},
{
closed = 1;
nodes = (
"26 62 OFFCURVE",
"82 -20 OFFCURVE",
"220 -20 CURVE SMOOTH",
"468 -20 OFFCURVE",
"565 248 OFFCURVE",
"565 447 CURVE SMOOTH",
"565 519 OFFCURVE",
"552 575 OFFCURVE",
"524 615 CURVE",
"602 621 OFFCURVE",
"658 684 OFFCURVE",
"658 747 CURVE SMOOTH",
"658 775 OFFCURVE",
"641 796 OFFCURVE",
"603 796 CURVE SMOOTH",
"577 796 OFFCURVE",
"558 783 OFFCURVE",
"550 769 CURVE",
"561 756 OFFCURVE",
"566 740 OFFCURVE",
"566 724 CURVE SMOOTH",
"566 681 OFFCURVE",
"533 659 OFFCURVE",
"494 659 CURVE SMOOTH",
"483 659 OFFCURVE",
"472 661 OFFCURVE",
"460 664 CURVE SMOOTH",
"436 675 OFFCURVE",
"406 680 OFFCURVE",
"371 680 CURVE SMOOTH",
"126 680 OFFCURVE",
"26 417 OFFCURVE",
"26 214 CURVE SMOOTH"
);
},
{
closed = 1;
nodes = (
"151 373 OFFCURVE",
"212 610 OFFCURVE",
"345 610 CURVE SMOOTH",
"417 610 OFFCURVE",
"440 554 OFFCURVE",
"440 476 CURVE SMOOTH",
"440 285 OFFCURVE",
"378 51 OFFCURVE",
"246 51 CURVE SMOOTH",
"174 51 OFFCURVE",
"151 107 OFFCURVE",
"151 185 CURVE SMOOTH"
);
}
);
width = 591;
},
{
layerId = "7A350A25-044B-4D59-B0E9-6A59A980AC73";
paths = (
{
closed = 1;
nodes = (
"542 825 OFFCURVE",
"521 820 OFFCURVE",
"497 820 CURVE SMOOTH",
"452 820 OFFCURVE",
"358 837 OFFCURVE",
"308 837 CURVE SMOOTH",
"250 837 OFFCURVE",
"218 815 OFFCURVE",
"218 776 CURVE SMOOTH",
"218 761 OFFCURVE",
"223 744 OFFCURVE",
"237 725 CURVE",
"248 733 OFFCURVE",
"271 741 OFFCURVE",
"298 741 CURVE SMOOTH",
"338 741 OFFCURVE",
"439 724 OFFCURVE",
"483 724 CURVE SMOOTH",
"536 724 OFFCURVE",
"570 747 OFFCURVE",
"570 791 CURVE SMOOTH",
"570 806 OFFCURVE",
"565 821 OFFCURVE",
"552 837 CURVE"
);
},
{
closed = 1;
nodes = (
"24 61 OFFCURVE",
"104 -20 OFFCURVE",
"251 -20 CURVE SMOOTH",
"500 -20 OFFCURVE",
"616 221 OFFCURVE",
"616 435 CURVE SMOOTH",
"616 512 OFFCURVE",
"599 570 OFFCURVE",
"566 610 CURVE",
"649 619 OFFCURVE",
"703 682 OFFCURVE",
"703 749 CURVE SMOOTH",
"703 780 OFFCURVE",
"684 803 OFFCURVE",
"643 803 CURVE SMOOTH",
"617 803 OFFCURVE",
"596 789 OFFCURVE",
"585 772 CURVE",
"597 762 OFFCURVE",
"602 746 OFFCURVE",
"602 730 CURVE SMOOTH",
"602 682 OFFCURVE",
"566 658 OFFCURVE",
"524 658 CURVE SMOOTH",
"513 658 OFFCURVE",
"502 660 OFFCURVE",
"491 663 CURVE SMOOTH",
"463 671 OFFCURVE",
"436 680 OFFCURVE",
"390 680 CURVE SMOOTH",
"142 680 OFFCURVE",
"24 442 OFFCURVE",
"24 226 CURVE SMOOTH"
);
},
{
closed = 1;
nodes = (
"195 343 OFFCURVE",
"248 610 OFFCURVE",
"370 610 CURVE SMOOTH",
"430 610 OFFCURVE",
"445 563 OFFCURVE",
"445 500 CURVE SMOOTH",
"445 315 OFFCURVE",
"393 51 OFFCURVE",
"270 51 CURVE SMOOTH",
"211 51 OFFCURVE",
"195 98 OFFCURVE",
"195 162 CURVE SMOOTH"
);
}
);
width = 640;
},
{
layerId = "1597CCFE-0C49-4087-BB13-985DDBBCAFFD";
paths = (
{
closed = 1;
nodes = (
"569 835 OFFCURVE",
"546 830 OFFCURVE",
"521 830 CURVE SMOOTH",
"475 830 OFFCURVE",
"407 847 OFFCURVE",
"352 847 CURVE SMOOTH",
"288 847 OFFCURVE",
"253 823 OFFCURVE",
"253 780 CURVE SMOOTH",
"253 762 OFFCURVE",
"259 743 OFFCURVE",
"273 723 CURVE",
"285 731 OFFCURVE",
"312 740 OFFCURVE",
"340 740 CURVE SMOOTH",
"380 740 OFFCURVE",
"455 722 OFFCURVE",
"504 722 CURVE SMOOTH",
"563 722 OFFCURVE",
"600 748 OFFCURVE",
"600 796 CURVE SMOOTH",
"600 813 OFFCURVE",
"595 830 OFFCURVE",
"581 847 CURVE"
);
},
{
closed = 1;
nodes = (
"22 63 OFFCURVE",
"120 -20 OFFCURVE",
"281 -20 CURVE SMOOTH",
"532 -20 OFFCURVE",
"667 190 OFFCURVE",
"667 413 CURVE SMOOTH",
"667 495 OFFCURVE",
"647 558 OFFCURVE",
"611 601 CURVE",
"696 613 OFFCURVE",
"752 678 OFFCURVE",
"752 748 CURVE SMOOTH",
"752 787 OFFCURVE",
"727 805 OFFCURVE",
"689 805 CURVE SMOOTH",
"663 805 OFFCURVE",
"635 794 OFFCURVE",
"616 772 CURVE",
"626 762 OFFCURVE",
"630 748 OFFCURVE",
"630 732 CURVE SMOOTH",
"630 682 OFFCURVE",
"597 660 OFFCURVE",
"553 660 CURVE SMOOTH",
"538 660 OFFCURVE",
"521 663 OFFCURVE",
"504 668 CURVE SMOOTH",
"475 676 OFFCURVE",
"443 680 OFFCURVE",
"408 680 CURVE SMOOTH",
"157 680 OFFCURVE",
"22 470 OFFCURVE",
"22 247 CURVE SMOOTH"
);
},
{
closed = 1;
nodes = (
"239 312 OFFCURVE",
"281 610 OFFCURVE",
"396 610 CURVE SMOOTH",
"442 610 OFFCURVE",
"450 572 OFFCURVE",
"450 524 CURVE SMOOTH",
"450 349 OFFCURVE",
"408 51 OFFCURVE",
"293 51 CURVE SMOOTH",
"247 51 OFFCURVE",
"239 89 OFFCURVE",
"239 137 CURVE SMOOTH"
);
}
);
width = 689;
},
{
layerId = "30A38917-B9D2-447A-AF98-EAADDBDD04CD";
paths = (
{
closed = 1;
nodes = (
"613 845 OFFCURVE",
"587 840 OFFCURVE",
"561 840 CURVE SMOOTH",
"514 840 OFFCURVE",
"451 857 OFFCURVE",
"391 857 CURVE SMOOTH",
"321 857 OFFCURVE",
"283 831 OFFCURVE",
"283 784 CURVE SMOOTH",
"283 763 OFFCURVE",
"290 742 OFFCURVE",
"305 722 CURVE",
"317 730 OFFCURVE",
"348 740 OFFCURVE",
"377 740 CURVE SMOOTH",
"417 740 OFFCURVE",
"488 721 OFFCURVE",
"541 721 CURVE SMOOTH",
"607 721 OFFCURVE",
"647 749 OFFCURVE",
"647 801 CURVE SMOOTH",
"647 820 OFFCURVE",
"641 839 OFFCURVE",
"626 857 CURVE"
);
},
{
closed = 1;
nodes = (
"36 59 OFFCURVE",
"156 -20 OFFCURVE",
"329 -20 CURVE SMOOTH",
"581 -20 OFFCURVE",
"735 166 OFFCURVE",
"735 402 CURVE SMOOTH",
"735 489 OFFCURVE",
"712 553 OFFCURVE",
"672 597 CURVE",
"756 611 OFFCURVE",
"809 671 OFFCURVE",
"809 745 CURVE SMOOTH",
"809 780 OFFCURVE",
"788 808 OFFCURVE",
"738 808 CURVE SMOOTH",
"712 808 OFFCURVE",
"682 797 OFFCURVE",
"663 778 CURVE",
"669 769 OFFCURVE",
"673 756 OFFCURVE",
"673 742 CURVE SMOOTH",
"673 687 OFFCURVE",
"639 661 OFFCURVE",
"592 661 CURVE SMOOTH",
"583 661 OFFCURVE",
"573 662 OFFCURVE",
"563 664 CURVE",
"527 675 OFFCURVE",
"486 680 OFFCURVE",
"442 680 CURVE SMOOTH",
"188 680 OFFCURVE",
"36 492 OFFCURVE",
"36 258 CURVE SMOOTH"
);
},
{
closed = 1;
nodes = (
"299 279 OFFCURVE",
"339 610 OFFCURVE",
"429 610 CURVE SMOOTH",
"465 610 OFFCURVE",
"472 572 OFFCURVE",
"472 525 CURVE SMOOTH",
"472 392 OFFCURVE",
"431 51 OFFCURVE",
"345 51 CURVE SMOOTH",
"306 51 OFFCURVE",
"299 89 OFFCURVE",
"299 136 CURVE SMOOTH"
);
}
);
width = 739;
},
{
layerId = "1252CFB8-7EB2-4C2F-9C11-14383990C0AA";
paths = (
{
closed = 1;
nodes = (
"490 809 OFFCURVE",
"474 805 OFFCURVE",
"451 805 CURVE SMOOTH",
"408 805 OFFCURVE",
"329 821 OFFCURVE",
"285 821 CURVE SMOOTH",
"237 821 OFFCURVE",
"210 802 OFFCURVE",
"210 770 CURVE SMOOTH",
"210 758 OFFCURVE",
"213 745 OFFCURVE",
"226 727 CURVE",
"236 735 OFFCURVE",
"254 741 OFFCURVE",
"280 741 CURVE SMOOTH",
"320 741 OFFCURVE",
"403 726 OFFCURVE",
"441 726 CURVE SMOOTH",
"484 726 OFFCURVE",
"514 746 OFFCURVE",
"514 782 CURVE SMOOTH",
"514 794 OFFCURVE",
"510 808 OFFCURVE",
"499 821 CURVE"
);
},
{
closed = 1;
nodes = (
"27 62 OFFCURVE",
"72 -20 OFFCURVE",
"206 -20 CURVE SMOOTH",
"453 -20 OFFCURVE",
"541 261 OFFCURVE",
"541 454 CURVE SMOOTH",
"541 523 OFFCURVE",
"530 578 OFFCURVE",
"504 618 CURVE",
"580 622 OFFCURVE",
"637 685 OFFCURVE",
"637 746 CURVE SMOOTH",
"637 772 OFFCURVE",
"621 793 OFFCURVE",
"584 793 CURVE SMOOTH",
"558 793 OFFCURVE",
"540 780 OFFCURVE",
"534 768 CURVE",
"545 754 OFFCURVE",
"550 738 OFFCURVE",
"550 722 CURVE SMOOTH",
"550 681 OFFCURVE",
"518 659 OFFCURVE",
"480 659 CURVE SMOOTH",
"470 659 OFFCURVE",
"459 661 OFFCURVE",
"448 664 CURVE SMOOTH",
"425 676 OFFCURVE",
"395 680 OFFCURVE",
"362 680 CURVE SMOOTH",
"119 680 OFFCURVE",
"27 405 OFFCURVE",
"27 207 CURVE SMOOTH"
);
},
{
closed = 1;
nodes = (
"131 387 OFFCURVE",
"196 610 OFFCURVE",
"333 610 CURVE SMOOTH",
"411 610 OFFCURVE",
"438 550 OFFCURVE",
"438 465 CURVE SMOOTH",
"438 271 OFFCURVE",
"371 51 OFFCURVE",
"235 51 CURVE SMOOTH",
"157 51 OFFCURVE",
"131 111 OFFCURVE",
"131 196 CURVE SMOOTH"
);
}
);
width = 568;
}
);
unicode = 1EE0;
},
{
glyphname = Ohungarumlaut;
layers = (
{
background = {
paths = (
{
closed = 1;
nodes = (
"249 740 LINE",
"271 707 LINE",
"347 723 LINE SMOOTH",
"405 735 OFFCURVE",
"431 758 OFFCURVE",
"431 798 CURVE SMOOTH",
"431 818 OFFCURVE",
"421 836 OFFCURVE",
"407 847 CURVE"
);
},
{
closed = 1;
nodes = (
"433 740 LINE",
"454 707 LINE",
"531 723 LINE SMOOTH",
"588 735 OFFCURVE",
"614 758 OFFCURVE",
"614 799 CURVE SMOOTH",
"614 818 OFFCURVE",
"605 836 OFFCURVE",
"589 847 CURVE"
);
},
{
closed = 1;
nodes = (
"126 680 OFFCURVE",
"26 417 OFFCURVE",
"26 214 CURVE SMOOTH",
"26 62 OFFCURVE",
"82 -20 OFFCURVE",
"220 -20 CURVE SMOOTH",
"468 -20 OFFCURVE",
"565 248 OFFCURVE",
"565 447 CURVE SMOOTH",
"565 598 OFFCURVE",
"509 680 OFFCURVE",
"371 680 CURVE SMOOTH"
);
},
{
closed = 1;
nodes = (
"417 610 OFFCURVE",
"440 554 OFFCURVE",
"440 476 CURVE SMOOTH",
"440 414 OFFCURVE",
"426 323 OFFCURVE",
"411 260 CURVE SMOOTH",
"390 169 OFFCURVE",
"350 51 OFFCURVE",
"246 51 CURVE SMOOTH",
"174 51 OFFCURVE",
"151 107 OFFCURVE",
"151 185 CURVE SMOOTH",
"151 247 OFFCURVE",
"165 338 OFFCURVE",
"180 401 CURVE SMOOTH",
"204 505 OFFCURVE",
"246 610 OFFCURVE",
"345 610 CURVE SMOOTH"
);
}
);
};
components = (
{
name = O;
},
{
name = hungarumlautcomb.case;
transform = "{1, 0, 0, 1, 503, 0}";
}
);
layerId = "B7BBAE14-F4F3-4898-8D83-DD158C3247C2";
width = 591;
},
{
background = {
paths = (
{
closed = 1;
nodes = (
"245 736 LINE",
"270 702 LINE",
"353 720 LINE SMOOTH",
"420 735 OFFCURVE",
"451 755 OFFCURVE",
"451 800 CURVE SMOOTH",
"451 822 OFFCURVE",
"437 841 OFFCURVE",
"417 852 CURVE"
);
},
{
closed = 1;
nodes = (
"447 736 LINE",
"472 702 LINE",
"555 720 LINE SMOOTH",
"622 735 OFFCURVE",
"652 755 OFFCURVE",
"652 801 CURVE SMOOTH",
"652 822 OFFCURVE",
"639 841 OFFCURVE",
"619 852 CURVE"
);
},
{
closed = 1;
nodes = (
"142 680 OFFCURVE",
"24 452 OFFCURVE",
"24 236 CURVE SMOOTH",
"24 65 OFFCURVE",
"98 -20 OFFCURVE",
"251 -20 CURVE SMOOTH",
"500 -20 OFFCURVE",
"616 211 OFFCURVE",
"616 425 CURVE SMOOTH",
"616 596 OFFCURVE",
"542 680 OFFCURVE",
"390 680 CURVE SMOOTH"
);
},
{
closed = 1;
nodes = (
"430 610 OFFCURVE",
"445 563 OFFCURVE",
"445 500 CURVE SMOOTH",
"445 445 OFFCURVE",
"434 362 OFFCURVE",
"423 304 CURVE SMOOTH",
"399 155 OFFCURVE",
"358 51 OFFCURVE",
"270 51 CURVE SMOOTH",
"211 51 OFFCURVE",
"195 98 OFFCURVE",
"195 162 CURVE SMOOTH",
"195 217 OFFCURVE",
"206 300 OFFCURVE",
"217 357 CURVE SMOOTH",
"243 513 OFFCURVE",
"285 610 OFFCURVE",
"370 610 CURVE SMOOTH"
);
}
);
};
components = (
{
name = O;
},
{
name = hungarumlautcomb.case;
transform = "{1, 0, 0, 1, 531, 0}";
}
);
layerId = "7A350A25-044B-4D59-B0E9-6A59A980AC73";
width = 640;
},
{
background = {
paths = (
{
closed = 1;
nodes = (
"241 731 LINE",
"269 697 LINE",
"358 717 LINE SMOOTH",
"435 734 OFFCURVE",
"471 751 OFFCURVE",
"471 802 CURVE SMOOTH",
"471 825 OFFCURVE",
"453 845 OFFCURVE",
"427 857 CURVE"
);
},
{
closed = 1;
nodes = (
"459 731 LINE",
"488 697 LINE",
"576 717 LINE SMOOTH",
"653 735 OFFCURVE",
"689 752 OFFCURVE",
"689 803 CURVE SMOOTH",
"689 825 OFFCURVE",
"671 845 OFFCURVE",
"646 857 CURVE"
);
},
{
closed = 1;
nodes = (
"157 680 OFFCURVE",
"22 486 OFFCURVE",
"22 257 CURVE SMOOTH",
"22 67 OFFCURVE",
"114 -20 OFFCURVE",
"281 -20 CURVE SMOOTH",
"532 -20 OFFCURVE",
"667 174 OFFCURVE",
"667 403 CURVE SMOOTH",
"667 593 OFFCURVE",
"575 680 OFFCURVE",
"408 680 CURVE SMOOTH"
);
},
{
closed = 1;
nodes = (
"442 610 OFFCURVE",
"450 572 OFFCURVE",
"450 524 CURVE SMOOTH",
"450 476 OFFCURVE",
"442 400 OFFCURVE",
"435 348 CURVE SMOOTH",
"407 140 OFFCURVE",
"365 51 OFFCURVE",
"293 51 CURVE SMOOTH",
"247 51 OFFCURVE",
"239 89 OFFCURVE",
"239 137 CURVE SMOOTH",
"239 185 OFFCURVE",
"247 261 OFFCURVE",
"254 313 CURVE SMOOTH",
"282 521 OFFCURVE",
"324 610 OFFCURVE",
"396 610 CURVE SMOOTH"
);
}
);
};
components = (
{
name = O;
},
{
name = hungarumlautcomb.case;
transform = "{1, 0, 0, 1, 556, 0}";
}
);
layerId = "1597CCFE-0C49-4087-BB13-985DDBBCAFFD";
width = 689;
},
{
background = {
paths = (
{
closed = 1;
nodes = (
"256 747 LINE",
"287 692 LINE",
"392 705 LINE SMOOTH",
"470 713 OFFCURVE",
"504 740 OFFCURVE",
"504 794 CURVE SMOOTH",
"504 822 OFFCURVE",
"485 847 OFFCURVE",
"455 862 CURVE"
);
},
{
closed = 1;
nodes = (
"502 747 LINE",
"535 692 LINE",
"638 705 LINE SMOOTH",
"716 715 OFFCURVE",
"750 742 OFFCURVE",
"750 795 CURVE SMOOTH",
"750 822 OFFCURVE",
"731 847 OFFCURVE",
"704 862 CURVE"
);
},
{
closed = 1;
nodes = (
"188 680 OFFCURVE",
"36 522 OFFCURVE",
"36 278 CURVE SMOOTH",
"36 69 OFFCURVE",
"146 -20 OFFCURVE",
"329 -20 CURVE SMOOTH",
"581 -20 OFFCURVE",
"735 136 OFFCURVE",
"735 382 CURVE SMOOTH",
"735 591 OFFCURVE",
"625 680 OFFCURVE",
"442 680 CURVE SMOOTH"
);
},
{
closed = 1;
nodes = (
"465 610 OFFCURVE",
"472 572 OFFCURVE",
"472 525 CURVE SMOOTH",
"472 480 OFFCURVE",
"467 428 OFFCURVE",
"463 393 CURVE SMOOTH",
"432 125 OFFCURVE",
"388 51 OFFCURVE",
"345 51 CURVE SMOOTH",
"306 51 OFFCURVE",
"299 89 OFFCURVE",
"299 136 CURVE SMOOTH",
"299 181 OFFCURVE",
"304 233 OFFCURVE",
"308 268 CURVE SMOOTH",
"338 528 OFFCURVE",
"380 610 OFFCURVE",
"429 610 CURVE SMOOTH"
);
}
);
};
components = (
{
name = O;
},
{
name = hungarumlautcomb.case;
transform = "{1, 0, 0, 1, 602, 0}";
}
);
layerId = "30A38917-B9D2-447A-AF98-EAADDBDD04CD";
width = 739;
},
{
components = (
{
name = O;
},
{
name = hungarumlautcomb.case;
transform = "{1, 0, 0, 1, 495, 0}";
}
);
layerId = "1252CFB8-7EB2-4C2F-9C11-14383990C0AA";
width = 578;
}
);
note = Ohungarumlaut;
unicode = 0150;
},
{
glyphname = OE;
layers = (
{
layerId = "B7BBAE14-F4F3-4898-8D83-DD158C3247C2";
paths = (
{
closed = 1;
nodes = (
"549 377 LINE",
"568 592 LINE",
"605 577 OFFCURVE",
"663 565 OFFCURVE",
"703 565 CURVE SMOOTH",
"766 565 OFFCURVE",
"811 595 OFFCURVE",
"811 660 CURVE",
"468 660 LINE",
"439 673 OFFCURVE",
"401 680 OFFCURVE",
"363 680 CURVE SMOOTH",
"137 680 OFFCURVE",
"26 426 OFFCURVE",
"26 211 CURVE SMOOTH",
"26 58 OFFCURVE",
"82 -20 OFFCURVE",
"227 -20 CURVE SMOOTH",
"308 -20 OFFCURVE",
"368 5 OFFCURVE",
"427 63 CURVE",
"451 9 OFFCURVE",
"508 -20 OFFCURVE",
"586 -20 CURVE SMOOTH",
"642 -20 OFFCURVE",
"723 -5 OFFCURVE",
"723 52 CURVE SMOOTH",
"723 61 OFFCURVE",
"721 73 OFFCURVE",
"717 81 CURVE",
"695 73 OFFCURVE",
"668 67 OFFCURVE",
"633 67 CURVE SMOOTH",
"568 67 OFFCURVE",
"531 88 OFFCURVE",
"531 167 CURVE SMOOTH",
"531 186 OFFCURVE",
"533 216 OFFCURVE",
"543 314 CURVE",
"568 303 OFFCURVE",
"604 295 OFFCURVE",
"637 295 CURVE SMOOTH",
"693 295 OFFCURVE",
"734 317 OFFCURVE",
"734 377 CURVE"
);
},
{
closed = 1;
nodes = (
"174 51 OFFCURVE",
"152 112 OFFCURVE",
"152 188 CURVE SMOOTH",
"152 248 OFFCURVE",
"166 337 OFFCURVE",
"181 399 CURVE SMOOTH",
"203 493 OFFCURVE",
"245 609 OFFCURVE",
"346 609 CURVE SMOOTH",
"417 609 OFFCURVE",
"439 548 OFFCURVE",
"439 472 CURVE SMOOTH",
"439 412 OFFCURVE",
"425 323 OFFCURVE",
"410 261 CURVE SMOOTH",
"388 167 OFFCURVE",
"346 51 OFFCURVE",
"246 51 CURVE SMOOTH"
);
}
);
width = 792;
},
{
layerId = "7A350A25-044B-4D59-B0E9-6A59A980AC73";
paths = (
{
closed = 1;
nodes = (
"594 382 LINE",
"615 577 LINE",
"653 561 OFFCURVE",
"705 550 OFFCURVE",
"742 550 CURVE SMOOTH",
"807 550 OFFCURVE",
"856 583 OFFCURVE",
"856 660 CURVE",
"498 660 LINE",
"466 673 OFFCURVE",
"426 680 OFFCURVE",
"384 680 CURVE SMOOTH",
"148 680 OFFCURVE",
"25 454 OFFCURVE",
"25 233 CURVE SMOOTH",
"25 63 OFFCURVE",
"99 -20 OFFCURVE",
"255 -20 CURVE SMOOTH",
"333 -20 OFFCURVE",
"401 1 OFFCURVE",
"456 57 CURVE",
"483 6 OFFCURVE",
"537 -20 OFFCURVE",
"616 -20 CURVE SMOOTH",
"684 -20 OFFCURVE",
"770 -2 OFFCURVE",
"770 71 CURVE SMOOTH",
"770 82 OFFCURVE",
"768 97 OFFCURVE",
"763 110 CURVE",
"736 100 OFFCURVE",
"703 95 OFFCURVE",
"669 95 CURVE SMOOTH",
"605 95 OFFCURVE",
"573 113 OFFCURVE",
"573 185 CURVE SMOOTH",
"573 207 OFFCURVE",
"576 239 OFFCURVE",
"585 306 CURVE",
"612 293 OFFCURVE",
"650 285 OFFCURVE",
"681 285 CURVE SMOOTH",
"741 285 OFFCURVE",
"781 316 OFFCURVE",
"781 382 CURVE"
);
},
{
closed = 1;
nodes = (
"212 51 OFFCURVE",
"197 101 OFFCURVE",
"197 163 CURVE SMOOTH",
"197 217 OFFCURVE",
"208 299 OFFCURVE",
"219 356 CURVE SMOOTH",
"244 507 OFFCURVE",
"286 610 OFFCURVE",
"372 610 CURVE SMOOTH",
"431 610 OFFCURVE",
"446 560 OFFCURVE",
"446 498 CURVE SMOOTH",
"446 444 OFFCURVE",
"435 362 OFFCURVE",
"424 305 CURVE SMOOTH",
"399 154 OFFCURVE",
"357 51 OFFCURVE",
"271 51 CURVE SMOOTH"
);
}
);
width = 835;
},
{
layerId = "1597CCFE-0C49-4087-BB13-985DDBBCAFFD";
paths = (
{
closed = 1;
nodes = (
"637 387 LINE",
"661 562 LINE",
"699 544 OFFCURVE",
"745 535 OFFCURVE",
"779 535 CURVE SMOOTH",
"847 535 OFFCURVE",
"900 571 OFFCURVE",
"900 660 CURVE",
"526 660 LINE",
"491 673 OFFCURVE",
"449 680 OFFCURVE",
"403 680 CURVE SMOOTH",
"158 680 OFFCURVE",
"23 482 OFFCURVE",
"23 254 CURVE SMOOTH",
"23 67 OFFCURVE",
"115 -20 OFFCURVE",
"282 -20 CURVE SMOOTH",
"356 -20 OFFCURVE",
"432 -3 OFFCURVE",
"484 50 CURVE",
"514 2 OFFCURVE",
"564 -20 OFFCURVE",
"645 -20 CURVE SMOOTH",
"725 -20 OFFCURVE",
"816 1 OFFCURVE",
"816 90 CURVE SMOOTH",
"816 103 OFFCURVE",
"814 121 OFFCURVE",
"807 138 CURVE",
"775 126 OFFCURVE",
"736 122 OFFCURVE",
"704 122 CURVE SMOOTH",
"641 122 OFFCURVE",
"613 138 OFFCURVE",
"613 202 CURVE SMOOTH",
"613 228 OFFCURVE",
"618 261 OFFCURVE",
"625 298 CURVE",
"654 283 OFFCURVE",
"694 275 OFFCURVE",
"723 275 CURVE SMOOTH",
"788 275 OFFCURVE",
"826 314 OFFCURVE",
"826 387 CURVE"
);
},
{
closed = 1;
nodes = (
"248 51 OFFCURVE",
"240 89 OFFCURVE",
"240 137 CURVE SMOOTH",
"240 185 OFFCURVE",
"248 261 OFFCURVE",
"255 313 CURVE SMOOTH",
"283 521 OFFCURVE",
"325 610 OFFCURVE",
"397 610 CURVE SMOOTH",
"443 610 OFFCURVE",
"451 572 OFFCURVE",
"451 524 CURVE SMOOTH",
"451 476 OFFCURVE",
"443 400 OFFCURVE",
"436 348 CURVE SMOOTH",
"408 140 OFFCURVE",
"366 51 OFFCURVE",
"294 51 CURVE SMOOTH"
);
}
);
width = 871;
},
{
layerId = "30A38917-B9D2-447A-AF98-EAADDBDD04CD";
paths = (
{
closed = 1;
nodes = (
"700 392 LINE",
"726 547 LINE",
"765 528 OFFCURVE",
"805 520 OFFCURVE",
"836 520 CURVE SMOOTH",
"907 520 OFFCURVE",
"963 559 OFFCURVE",
"963 660 CURVE",
"574 660 LINE",
"536 673 OFFCURVE",
"492 680 OFFCURVE",
"441 680 CURVE SMOOTH",
"186 680 OFFCURVE",
"40 511 OFFCURVE",
"40 277 CURVE SMOOTH",
"40 71 OFFCURVE",
"149 -20 OFFCURVE",
"329 -20 CURVE SMOOTH",
"399 -20 OFFCURVE",
"483 -7 OFFCURVE",
"532 44 CURVE",
"565 -1 OFFCURVE",
"611 -20 OFFCURVE",
"694 -20 CURVE SMOOTH",
"786 -20 OFFCURVE",
"881 4 OFFCURVE",
"881 109 CURVE SMOOTH",
"881 124 OFFCURVE",
"879 146 OFFCURVE",
"871 168 CURVE",
"834 154 OFFCURVE",
"789 151 OFFCURVE",
"759 151 CURVE SMOOTH",
"697 151 OFFCURVE",
"673 164 OFFCURVE",
"673 219 CURVE SMOOTH",
"673 251 OFFCURVE",
"680 285 OFFCURVE",
"685 290 CURVE",
"716 273 OFFCURVE",
"758 265 OFFCURVE",
"785 265 CURVE SMOOTH",
"854 265 OFFCURVE",
"891 313 OFFCURVE",
"891 392 CURVE"
);
},
{
closed = 1;
nodes = (
"309 51 OFFCURVE",
"302 89 OFFCURVE",
"302 136 CURVE SMOOTH",
"302 181 OFFCURVE",
"307 233 OFFCURVE",
"311 268 CURVE SMOOTH",
"341 528 OFFCURVE",
"383 610 OFFCURVE",
"432 610 CURVE SMOOTH",
"468 610 OFFCURVE",
"475 572 OFFCURVE",
"475 525 CURVE SMOOTH",
"475 480 OFFCURVE",
"470 428 OFFCURVE",
"466 393 CURVE SMOOTH",
"435 125 OFFCURVE",
"391 51 OFFCURVE",
"348 51 CURVE SMOOTH"
);
}
);
width = 924;
},
{
layerId = "1252CFB8-7EB2-4C2F-9C11-14383990C0AA";
paths = (
{
closed = 1;
nodes = (
"532 375 LINE",
"549 599 LINE",
"586 585 OFFCURVE",
"647 572 OFFCURVE",
"688 572 CURVE SMOOTH",
"750 572 OFFCURVE",
"793 601 OFFCURVE",
"793 660 CURVE",
"458 660 LINE",
"430 673 OFFCURVE",
"393 680 OFFCURVE",
"357 680 CURVE SMOOTH",
"135 680 OFFCURVE",
"30 413 OFFCURVE",
"30 201 CURVE SMOOTH",
"30 56 OFFCURVE",
"77 -20 OFFCURVE",
"217 -20 CURVE SMOOTH",
"300 -20 OFFCURVE",
"356 7 OFFCURVE",
"417 66 CURVE",
"439 11 OFFCURVE",
"498 -20 OFFCURVE",
"575 -20 CURVE SMOOTH",
"626 -20 OFFCURVE",
"704 -6 OFFCURVE",
"704 43 CURVE SMOOTH",
"704 51 OFFCURVE",
"702 62 OFFCURVE",
"699 68 CURVE",
"679 61 OFFCURVE",
"655 54 OFFCURVE",
"620 54 CURVE SMOOTH",
"554 54 OFFCURVE",
"515 76 OFFCURVE",
"515 159 CURVE SMOOTH",
"515 176 OFFCURVE",
"516 205 OFFCURVE",
"527 318 CURVE",
"551 308 OFFCURVE",
"586 300 OFFCURVE",
"620 300 CURVE SMOOTH",
"674 300 OFFCURVE",
"716 318 OFFCURVE",
"716 375 CURVE"
);
},
{
closed = 1;
nodes = (
"160 51 OFFCURVE",
"135 117 OFFCURVE",
"135 200 CURVE SMOOTH",
"135 263 OFFCURVE",
"150 355 OFFCURVE",
"167 419 CURVE SMOOTH",
"187 486 OFFCURVE",
"229 609 OFFCURVE",
"337 609 CURVE SMOOTH",
"414 609 OFFCURVE",
"439 542 OFFCURVE",
"439 460 CURVE SMOOTH",
"439 397 OFFCURVE",
"424 305 OFFCURVE",
"407 241 CURVE SMOOTH",
"386 173 OFFCURVE",
"344 51 OFFCURVE",
"238 51 CURVE SMOOTH"
);
}
);
width = 779;
}
);
leftMetricsKey = O;
note = OE;
rightMetricsKey = E;
unicode = 0152;
},
{
glyphname = P;
layers = (
{
layerId = "B7BBAE14-F4F3-4898-8D83-DD158C3247C2";
paths = (
{
closed = 1;
nodes = (
"139 0 LINE",
"255 596 LINE",
"280 601 OFFCURVE",
"305 603 OFFCURVE",
"322 603 CURVE SMOOTH",
"392 603 OFFCURVE",
"415 565 OFFCURVE",
"415 495 CURVE SMOOTH",
"415 380 OFFCURVE",
"353 324 OFFCURVE",
"265 324 CURVE SMOOTH",
"254 324 OFFCURVE",
"246 324 OFFCURVE",
"237 326 CURVE",
"246 287 OFFCURVE",
"294 277 OFFCURVE",
"334 277 CURVE SMOOTH",
"460 277 OFFCURVE",
"540 373 OFFCURVE",
"540 502 CURVE SMOOTH",
"540 639 OFFCURVE",
"451 669 OFFCURVE",
"318 669 CURVE SMOOTH",
"264 669 OFFCURVE",
"191 664 OFFCURVE",
"149 660 CURVE",
"22 0 LINE"
);
}
);
width = 507;
},
{
layerId = "7A350A25-044B-4D59-B0E9-6A59A980AC73";
paths = (
{
closed = 1;
nodes = (
"175 0 LINE",
"290 597 LINE",
"307 600 OFFCURVE",
"328 602 OFFCURVE",
"343 602 CURVE SMOOTH",
"410 602 OFFCURVE",
"438 569 OFFCURVE",
"438 498 CURVE SMOOTH",
"438 398 OFFCURVE",
"383 335 OFFCURVE",
"299 329 CURVE",
"288 327 OFFCURVE",
"278 327 OFFCURVE",
"267 328 CURVE",
"279 286 OFFCURVE",
"329 274 OFFCURVE",
"376 274 CURVE SMOOTH",
"505 274 OFFCURVE",
"596 362 OFFCURVE",
"596 497 CURVE SMOOTH",
"596 643 OFFCURVE",
"489 668 OFFCURVE",
"311 668 CURVE SMOOTH",
"240 668 OFFCURVE",
"198 664 OFFCURVE",
"135 660 CURVE",
"8 0 LINE"
);
}
);
width = 565;
},
{
layerId = "1597CCFE-0C49-4087-BB13-985DDBBCAFFD";
paths = (
{
closed = 1;
nodes = (
"210 0 LINE",
"324 597 LINE",
"333 599 OFFCURVE",
"351 600 OFFCURVE",
"363 600 CURVE SMOOTH",
"427 600 OFFCURVE",
"460 572 OFFCURVE",
"460 500 CURVE SMOOTH",
"460 415 OFFCURVE",
"413 346 OFFCURVE",
"332 333 CURVE",
"321 330 OFFCURVE",
"309 329 OFFCURVE",
"296 329 CURVE",
"312 285 OFFCURVE",
"363 271 OFFCURVE",
"418 271 CURVE SMOOTH",
"550 271 OFFCURVE",
"653 351 OFFCURVE",
"653 491 CURVE SMOOTH",
"653 647 OFFCURVE",
"526 666 OFFCURVE",
"304 666 CURVE SMOOTH",
"215 666 OFFCURVE",
"205 663 OFFCURVE",
"120 660 CURVE",
"-6 0 LINE"
);
}
);
width = 621;
},
{
layerId = "30A38917-B9D2-447A-AF98-EAADDBDD04CD";
paths = (
{
closed = 1;
nodes = (
"257 0 LINE",
"370 597 LINE",
"371 598 OFFCURVE",
"386 599 OFFCURVE",
"396 599 CURVE SMOOTH",
"457 599 OFFCURVE",
"494 575 OFFCURVE",
"494 502 CURVE SMOOTH",
"494 432 OFFCURVE",
"455 357 OFFCURVE",
"377 337 CURVE",
"366 333 OFFCURVE",
"352 331 OFFCURVE",
"337 330 CURVE",
"357 284 OFFCURVE",
"409 268 OFFCURVE",
"472 268 CURVE SMOOTH",
"606 268 OFFCURVE",
"721 340 OFFCURVE",
"721 486 CURVE SMOOTH",
"721 660 OFFCURVE",
"587 665 OFFCURVE",
"308 665 CURVE SMOOTH",
"202 665 OFFCURVE",
"222 663 OFFCURVE",
"116 660 CURVE",
"-9 0 LINE"
);
}
);
width = 691;
},
{
layerId = "1252CFB8-7EB2-4C2F-9C11-14383990C0AA";
paths = (
{
closed = 1;
nodes = (
"127 0 LINE",
"244 596 LINE",
"273 601 OFFCURVE",
"299 604 OFFCURVE",
"317 604 CURVE SMOOTH",
"389 604 OFFCURVE",
"409 563 OFFCURVE",
"409 494 CURVE SMOOTH",
"409 372 OFFCURVE",
"344 319 OFFCURVE",
"254 322 CURVE",
"243 323 OFFCURVE",
"236 323 OFFCURVE",
"228 325 CURVE",
"236 287 OFFCURVE",
"283 278 OFFCURVE",
"319 278 CURVE SMOOTH",
"444 278 OFFCURVE",
"519 378 OFFCURVE",
"519 504 CURVE SMOOTH",
"519 637 OFFCURVE",
"438 670 OFFCURVE",
"326 670 CURVE SMOOTH",
"280 670 OFFCURVE",
"193 664 OFFCURVE",
"161 660 CURVE",
"34 0 LINE"
);
}
);
width = 490;
}
);
note = P;
unicode = 0050;
},
{
glyphname = Thorn;
layers = (
{
layerId = "B7BBAE14-F4F3-4898-8D83-DD158C3247C2";
paths = (
{
closed = 1;
nodes = (
"268 660 LINE",
"149 660 LINE",
"22 0 LINE",
"139 0 LINE",
"229 461 LINE",
"246 465 OFFCURVE",
"265 468 OFFCURVE",
"287 468 CURVE SMOOTH",
"359 468 OFFCURVE",
"391 436 OFFCURVE",
"391 357 CURVE SMOOTH",
"391 259 OFFCURVE",
"341 197 OFFCURVE",
"239 197 CURVE SMOOTH",
"228 197 OFFCURVE",
"225 197 OFFCURVE",
"213 198 CURVE",
"222 159 OFFCURVE",
"270 149 OFFCURVE",
"310 149 CURVE SMOOTH",
"436 149 OFFCURVE",
"516 245 OFFCURVE",
"516 376 CURVE SMOOTH",
"516 496 OFFCURVE",
"428 538 OFFCURVE",
"313 538 CURVE SMOOTH",
"292 538 OFFCURVE",
"266 537 OFFCURVE",
"243 536 CURVE"
);
}
);
width = 501;
},
{
layerId = "7A350A25-044B-4D59-B0E9-6A59A980AC73";
paths = (
{
closed = 1;
nodes = (
"303 660 LINE",
"134 660 LINE",
"7 0 LINE",
"174 0 LINE",
"265 465 LINE",
"278 468 OFFCURVE",
"296 470 OFFCURVE",
"313 470 CURVE SMOOTH",
"381 470 OFFCURVE",
"413 440 OFFCURVE",
"413 364 CURVE SMOOTH",
"413 268 OFFCURVE",
"361 206 OFFCURVE",
"268 200 CURVE",
"258 200 OFFCURVE",
"252 199 OFFCURVE",
"242 200 CURVE",
"255 158 OFFCURVE",
"304 146 OFFCURVE",
"352 146 CURVE SMOOTH",
"482 146 OFFCURVE",
"572 236 OFFCURVE",
"572 369 CURVE SMOOTH",
"572 503 OFFCURVE",
"477 538 OFFCURVE",
"331 538 CURVE SMOOTH",
"315 538 OFFCURVE",
"295 538 OFFCURVE",
"278 537 CURVE"
);
}
);
width = 545;
},
{
layerId = "1597CCFE-0C49-4087-BB13-985DDBBCAFFD";
paths = (
{
closed = 1;
nodes = (
"338 660 LINE",
"120 660 LINE",
"-7 0 LINE",
"210 0 LINE",
"301 469 LINE",
"311 471 OFFCURVE",
"327 472 OFFCURVE",
"339 472 CURVE SMOOTH",
"404 472 OFFCURVE",
"436 444 OFFCURVE",
"436 371 CURVE SMOOTH",
"436 277 OFFCURVE",
"382 214 OFFCURVE",
"297 203 CURVE SMOOTH",
"289 202 OFFCURVE",
"280 201 OFFCURVE",
"272 201 CURVE",
"288 157 OFFCURVE",
"339 143 OFFCURVE",
"394 143 CURVE SMOOTH",
"529 143 OFFCURVE",
"629 226 OFFCURVE",
"629 361 CURVE SMOOTH",
"629 510 OFFCURVE",
"507 538 OFFCURVE",
"350 538 CURVE SMOOTH",
"339 538 OFFCURVE",
"324 538 OFFCURVE",
"314 537 CURVE"
);
}
);
width = 588;
},
{
layerId = "30A38917-B9D2-447A-AF98-EAADDBDD04CD";
paths = (
{
closed = 1;
nodes = (
"385 660 LINE",
"116 660 LINE",
"-11 0 LINE",
"257 0 LINE",
"349 473 LINE",
"355 474 OFFCURVE",
"370 474 OFFCURVE",
"377 474 CURVE SMOOTH",
"438 474 OFFCURVE",
"470 448 OFFCURVE",
"470 378 CURVE SMOOTH",
"470 286 OFFCURVE",
"414 222 OFFCURVE",
"338 206 CURVE",
"331 204 OFFCURVE",
"319 203 OFFCURVE",
"313 202 CURVE",
"333 156 OFFCURVE",
"385 140 OFFCURVE",
"447 140 CURVE SMOOTH",
"587 140 OFFCURVE",
"697 217 OFFCURVE",
"697 354 CURVE SMOOTH",
"697 517 OFFCURVE",
"548 538 OFFCURVE",
"381 538 CURVE SMOOTH",
"374 538 OFFCURVE",
"365 538 OFFCURVE",
"361 537 CURVE"
);
}
);
width = 677;
},
{
layerId = "1252CFB8-7EB2-4C2F-9C11-14383990C0AA";
paths = (
{
closed = 1;
nodes = (
"257 660 LINE",
"161 660 LINE",
"34 0 LINE",
"128 0 LINE",
"217 459 LINE",
"236 464 OFFCURVE",
"256 467 OFFCURVE",
"280 467 CURVE SMOOTH",
"354 467 OFFCURVE",
"386 434 OFFCURVE",
"386 354 CURVE SMOOTH",
"386 255 OFFCURVE",
"337 193 OFFCURVE",
"231 196 CURVE SMOOTH",
"219 196 OFFCURVE",
"217 196 OFFCURVE",
"204 197 CURVE",
"212 159 OFFCURVE",
"259 150 OFFCURVE",
"295 150 CURVE SMOOTH",
"419 150 OFFCURVE",
"495 249 OFFCURVE",
"495 379 CURVE SMOOTH",
"495 493 OFFCURVE",
"412 538 OFFCURVE",
"310 538 CURVE SMOOTH",
"286 538 OFFCURVE",
"258 537 OFFCURVE",
"232 536 CURVE"
);
}
);
width = 491;
}
);
note = Thorn;
unicode = 00DE;
},
{
glyphname = Q;
layers = (
{
background = {
paths = (
{
closed = 1;
nodes = (
"128 680 OFFCURVE",
"41 385 OFFCURVE",
"41 236 CURVE SMOOTH",
"41 139 OFFCURVE",
"78 93 OFFCURVE",
"150 93 CURVE SMOOTH",
"194 93 OFFCURVE",
"213 111 OFFCURVE",
"213 132 CURVE",
"177 138 OFFCURVE",
"168 157 OFFCURVE",
"168 201 CURVE SMOOTH",
"168 253 OFFCURVE",
"181 338 OFFCURVE",
"196 400 CURVE SMOOTH",
"219 495 OFFCURVE",
"265 610 OFFCURVE",
"364 610 CURVE SMOOTH",
"436 610 OFFCURVE",
"454 547 OFFCURVE",
"454 474 CURVE SMOOTH",
"454 409 OFFCURVE",
"440 323 OFFCURVE",
"425 261 CURVE SMOOTH",
"378 70 OFFCURVE",
"297 37 OFFCURVE",
"181 21 CURVE SMOOTH",
"142 16 OFFCURVE",
"78 6 OFFCURVE",
"78 -53 CURVE SMOOTH",
"78 -77 OFFCURVE",
"89 -99 OFFCURVE",
"103 -111 CURVE",
"120 -104 OFFCURVE",
"145 -99 OFFCURVE",
"170 -99 CURVE SMOOTH",
"249 -99 OFFCURVE",
"352 -147 OFFCURVE",
"443 -147 CURVE SMOOTH",
"497 -147 OFFCURVE",
"548 -130 OFFCURVE",
"548 -73 CURVE SMOOTH",
"548 -55 OFFCURVE",
"543 -37 OFFCURVE",
"535 -23 CURVE",
"508 -40 OFFCURVE",
"469 -45 OFFCURVE",
"432 -45 CURVE SMOOTH",
"360 -45 OFFCURVE",
"279 -26 OFFCURVE",
"249 -20 CURVE",
"468 -20 OFFCURVE",
"580 238 OFFCURVE",
"580 449 CURVE SMOOTH",
"580 598 OFFCURVE",
"524 680 OFFCURVE",
"386 680 CURVE SMOOTH"
);
}
);
};
layerId = "B7BBAE14-F4F3-4898-8D83-DD158C3247C2";
paths = (
{
closed = 1;
nodes = (
"128 680 OFFCURVE",
"41 385 OFFCURVE",
"41 236 CURVE SMOOTH",
"41 139 OFFCURVE",
"78 93 OFFCURVE",
"150 93 CURVE SMOOTH",
"194 93 OFFCURVE",
"213 111 OFFCURVE",
"213 132 CURVE",
"177 138 OFFCURVE",
"168 157 OFFCURVE",
"168 201 CURVE SMOOTH",
"168 253 OFFCURVE",
"181 338 OFFCURVE",
"196 400 CURVE SMOOTH",
"219 495 OFFCURVE",
"265 610 OFFCURVE",
"364 610 CURVE SMOOTH",
"436 610 OFFCURVE",
"454 547 OFFCURVE",
"454 474 CURVE SMOOTH",
"454 409 OFFCURVE",
"440 323 OFFCURVE",
"425 261 CURVE SMOOTH",
"378 70 OFFCURVE",
"276 36 OFFCURVE",
"167 21 CURVE SMOOTH",
"124 16 OFFCURVE",
"49 4 OFFCURVE",
"49 -68 CURVE SMOOTH",
"49 -86 OFFCURVE",
"55 -102 OFFCURVE",
"64 -111 CURVE",
"82 -104 OFFCURVE",
"108 -99 OFFCURVE",
"133 -99 CURVE SMOOTH",
"212 -99 OFFCURVE",
"316 -147 OFFCURVE",
"407 -147 CURVE SMOOTH",
"467 -147 OFFCURVE",
"528 -126 OFFCURVE",
"528 -53 CURVE SMOOTH",
"528 -42 OFFCURVE",
"526 -32 OFFCURVE",
"523 -23 CURVE",
"492 -40 OFFCURVE",
"452 -45 OFFCURVE",
"415 -45 CURVE SMOOTH",
"343 -45 OFFCURVE",
"286 -28 OFFCURVE",
"257 -22 CURVE",
"435 12 OFFCURVE",
"580 173 OFFCURVE",
"580 459 CURVE SMOOTH",
"580 598 OFFCURVE",
"524 680 OFFCURVE",
"386 680 CURVE SMOOTH"
);
}
);
width = 592;
},
{
background = {
paths = (
{
closed = 1;
nodes = (
"153 680 OFFCURVE",
"35 441 OFFCURVE",
"35 257 CURVE SMOOTH",
"35 146 OFFCURVE",
"78 88 OFFCURVE",
"168 88 CURVE SMOOTH",
"223 88 OFFCURVE",
"253 111 OFFCURVE",
"253 141 CURVE",
"214 146 OFFCURVE",
"207 176 OFFCURVE",
"207 215 CURVE SMOOTH",
"207 265 OFFCURVE",
"218 339 OFFCURVE",
"233 399 CURVE SMOOTH",
"258 502 OFFCURVE",
"304 610 OFFCURVE",
"386 610 CURVE SMOOTH",
"443 610 OFFCURVE",
"456 558 OFFCURVE",
"456 495 CURVE SMOOTH",
"456 442 OFFCURVE",
"446 368 OFFCURVE",
"434 305 CURVE SMOOTH",
"391 87 OFFCURVE",
"311 43 OFFCURVE",
"208 30 CURVE SMOOTH",
"140 21 OFFCURVE",
"77 12 OFFCURVE",
"77 -57 CURVE SMOOTH",
"77 -84 OFFCURVE",
"87 -107 OFFCURVE",
"104 -126 CURVE",
"126 -113 OFFCURVE",
"155 -107 OFFCURVE",
"184 -107 CURVE SMOOTH",
"275 -107 OFFCURVE",
"359 -166 OFFCURVE",
"465 -166 CURVE SMOOTH",
"524 -166 OFFCURVE",
"589 -143 OFFCURVE",
"589 -70 CURVE SMOOTH",
"589 -50 OFFCURVE",
"584 -29 OFFCURVE",
"576 -15 CURVE",
"545 -33 OFFCURVE",
"499 -41 OFFCURVE",
"454 -41 CURVE SMOOTH",
"385 -41 OFFCURVE",
"322 -26 OFFCURVE",
"289 -17 CURVE",
"493 -7 OFFCURVE",
"627 216 OFFCURVE",
"627 428 CURVE SMOOTH",
"627 595 OFFCURVE",
"553 680 OFFCURVE",
"402 680 CURVE SMOOTH"
);
}
);
};
layerId = "7A350A25-044B-4D59-B0E9-6A59A980AC73";
paths = (
{
closed = 1;
nodes = (
"153 680 OFFCURVE",
"35 441 OFFCURVE",
"35 257 CURVE SMOOTH",
"35 146 OFFCURVE",
"78 88 OFFCURVE",
"168 88 CURVE SMOOTH",
"223 88 OFFCURVE",
"253 111 OFFCURVE",
"253 141 CURVE",
"214 146 OFFCURVE",
"207 176 OFFCURVE",
"207 215 CURVE SMOOTH",
"207 265 OFFCURVE",
"218 339 OFFCURVE",
"233 399 CURVE SMOOTH",
"258 502 OFFCURVE",
"304 610 OFFCURVE",
"386 610 CURVE SMOOTH",
"443 610 OFFCURVE",
"456 558 OFFCURVE",
"456 495 CURVE SMOOTH",
"456 442 OFFCURVE",
"446 368 OFFCURVE",
"434 305 CURVE SMOOTH",
"391 87 OFFCURVE",
"303 44 OFFCURVE",
"197 30 CURVE SMOOTH",
"118 20 OFFCURVE",
"47 7 OFFCURVE",
"47 -77 CURVE SMOOTH",
"47 -95 OFFCURVE",
"53 -112 OFFCURVE",
"63 -126 CURVE",
"87 -113 OFFCURVE",
"117 -107 OFFCURVE",
"146 -107 CURVE SMOOTH",
"237 -107 OFFCURVE",
"310 -166 OFFCURVE",
"416 -166 CURVE SMOOTH",
"493 -166 OFFCURVE",
"561 -128 OFFCURVE",
"561 -46 CURVE SMOOTH",
"561 -34 OFFCURVE",
"560 -23 OFFCURVE",
"556 -15 CURVE",
"522 -33 OFFCURVE",
"474 -41 OFFCURVE",
"429 -41 CURVE SMOOTH",
"360 -41 OFFCURVE",
"310 -26 OFFCURVE",
"279 -17 CURVE",
"462 -3 OFFCURVE",
"627 196 OFFCURVE",
"627 428 CURVE SMOOTH",
"627 595 OFFCURVE",
"553 680 OFFCURVE",
"402 680 CURVE SMOOTH"
);
}
);
width = 642;
},
{
background = {
paths = (
{
closed = 1;
nodes = (
"178 680 OFFCURVE",
"29 496 OFFCURVE",
"29 278 CURVE SMOOTH",
"29 153 OFFCURVE",
"78 83 OFFCURVE",
"185 83 CURVE SMOOTH",
"252 83 OFFCURVE",
"292 110 OFFCURVE",
"292 150 CURVE",
"250 153 OFFCURVE",
"245 194 OFFCURVE",
"245 228 CURVE SMOOTH",
"245 277 OFFCURVE",
"255 340 OFFCURVE",
"269 397 CURVE SMOOTH",
"296 508 OFFCURVE",
"342 610 OFFCURVE",
"408 610 CURVE SMOOTH",
"449 610 OFFCURVE",
"457 567 OFFCURVE",
"457 517 CURVE SMOOTH",
"457 476 OFFCURVE",
"452 412 OFFCURVE",
"442 348 CURVE SMOOTH",
"404 103 OFFCURVE",
"324 49 OFFCURVE",
"235 38 CURVE SMOOTH",
"137 26 OFFCURVE",
"75 17 OFFCURVE",
"75 -61 CURVE SMOOTH",
"75 -91 OFFCURVE",
"84 -115 OFFCURVE",
"105 -140 CURVE",
"132 -122 OFFCURVE",
"164 -115 OFFCURVE",
"197 -115 CURVE SMOOTH",
"301 -115 OFFCURVE",
"364 -184 OFFCURVE",
"487 -184 CURVE SMOOTH",
"552 -184 OFFCURVE",
"630 -156 OFFCURVE",
"630 -66 CURVE SMOOTH",
"630 -45 OFFCURVE",
"626 -21 OFFCURVE",
"618 -6 CURVE",
"582 -26 OFFCURVE",
"530 -37 OFFCURVE",
"476 -37 CURVE SMOOTH",
"409 -37 OFFCURVE",
"364 -25 OFFCURVE",
"329 -13 CURVE",
"517 6 OFFCURVE",
"674 194 OFFCURVE",
"674 406 CURVE SMOOTH",
"674 591 OFFCURVE",
"582 680 OFFCURVE",
"417 680 CURVE SMOOTH"
);
}
);
};
layerId = "1597CCFE-0C49-4087-BB13-985DDBBCAFFD";
paths = (
{
closed = 1;
nodes = (
"178 680 OFFCURVE",
"29 496 OFFCURVE",
"29 278 CURVE SMOOTH",
"29 153 OFFCURVE",
"78 83 OFFCURVE",
"185 83 CURVE SMOOTH",
"252 83 OFFCURVE",
"292 110 OFFCURVE",
"292 150 CURVE",
"250 153 OFFCURVE",
"245 194 OFFCURVE",
"245 228 CURVE SMOOTH",
"245 277 OFFCURVE",
"255 340 OFFCURVE",
"269 397 CURVE SMOOTH",
"296 508 OFFCURVE",
"342 610 OFFCURVE",
"408 610 CURVE SMOOTH",
"449 610 OFFCURVE",
"457 567 OFFCURVE",
"457 517 CURVE SMOOTH",
"457 476 OFFCURVE",
"452 412 OFFCURVE",
"442 348 CURVE SMOOTH",
"404 103 OFFCURVE",
"308 49 OFFCURVE",
"217 38 CURVE SMOOTH",
"116 26 OFFCURVE",
"35 15 OFFCURVE",
"35 -84 CURVE SMOOTH",
"35 -104 OFFCURVE",
"40 -122 OFFCURVE",
"52 -140 CURVE",
"82 -122 OFFCURVE",
"116 -115 OFFCURVE",
"149 -115 CURVE SMOOTH",
"253 -115 OFFCURVE",
"312 -184 OFFCURVE",
"435 -184 CURVE SMOOTH",
"529 -184 OFFCURVE",
"604 -132 OFFCURVE",
"604 -32 CURVE SMOOTH",
"604 -22 OFFCURVE",
"603 -13 OFFCURVE",
"601 -6 CURVE",
"561 -26 OFFCURVE",
"507 -37 OFFCURVE",
"453 -37 CURVE SMOOTH",
"386 -37 OFFCURVE",
"335 -25 OFFCURVE",
"303 -13 CURVE",
"450 6 OFFCURVE",
"674 131 OFFCURVE",
"674 416 CURVE SMOOTH",
"674 591 OFFCURVE",
"582 680 OFFCURVE",
"417 680 CURVE SMOOTH"
);
}
);
width = 691;
},
{
background = {
paths = (
{
closed = 1;
nodes = (
"220 680 OFFCURVE",
"39 552 OFFCURVE",
"39 299 CURVE SMOOTH",
"39 160 OFFCURVE",
"93 78 OFFCURVE",
"219 78 CURVE SMOOTH",
"298 78 OFFCURVE",
"348 110 OFFCURVE",
"348 159 CURVE",
"303 160 OFFCURVE",
"300 212 OFFCURVE",
"300 241 CURVE SMOOTH",
"300 270 OFFCURVE",
"307 332 OFFCURVE",
"320 396 CURVE SMOOTH",
"341 499 OFFCURVE",
"379 610 OFFCURVE",
"429 610 CURVE SMOOTH",
"455 610 OFFCURVE",
"474 592 OFFCURVE",
"474 512 CURVE SMOOTH",
"474 491 OFFCURVE",
"473 457 OFFCURVE",
"466 392 CURVE SMOOTH",
"432 119 OFFCURVE",
"353 55 OFFCURVE",
"279 46 CURVE SMOOTH",
"150 31 OFFCURVE",
"89 22 OFFCURVE",
"89 -65 CURVE SMOOTH",
"89 -98 OFFCURVE",
"97 -123 OFFCURVE",
"121 -154 CURVE",
"153 -131 OFFCURVE",
"189 -123 OFFCURVE",
"223 -123 CURVE SMOOTH",
"328 -123 OFFCURVE",
"399 -202 OFFCURVE",
"497 -202 CURVE SMOOTH",
"559 -202 OFFCURVE",
"639 -169 OFFCURVE",
"639 -63 CURVE SMOOTH",
"639 -40 OFFCURVE",
"635 -13 OFFCURVE",
"628 2 CURVE",
"593 -19 OFFCURVE",
"541 -33 OFFCURVE",
"487 -33 CURVE SMOOTH",
"442 -33 OFFCURVE",
"401 -25 OFFCURVE",
"367 -10 CURVE",
"577 0 OFFCURVE",
"737 173 OFFCURVE",
"737 385 CURVE SMOOTH",
"737 588 OFFCURVE",
"628 680 OFFCURVE",
"448 680 CURVE SMOOTH"
);
},
{
closed = 1;
nodes = (
"394 -9 OFFCURVE",
"414 11 OFFCURVE",
"414 35 CURVE SMOOTH",
"414 59 OFFCURVE",
"394 79 OFFCURVE",
"370 79 CURVE SMOOTH",
"346 79 OFFCURVE",
"326 59 OFFCURVE",
"326 35 CURVE SMOOTH",
"326 11 OFFCURVE",
"346 -9 OFFCURVE",
"370 -9 CURVE SMOOTH"
);
}
);
};
layerId = "30A38917-B9D2-447A-AF98-EAADDBDD04CD";
paths = (
{
closed = 1;
nodes = (
"220 680 OFFCURVE",
"39 552 OFFCURVE",
"39 299 CURVE SMOOTH",
"39 160 OFFCURVE",
"93 78 OFFCURVE",
"219 78 CURVE SMOOTH",
"298 78 OFFCURVE",
"348 110 OFFCURVE",
"348 159 CURVE",
"303 160 OFFCURVE",
"300 212 OFFCURVE",
"300 241 CURVE SMOOTH",
"300 270 OFFCURVE",
"307 332 OFFCURVE",
"320 396 CURVE SMOOTH",
"341 499 OFFCURVE",
"379 610 OFFCURVE",
"429 610 CURVE SMOOTH",
"455 610 OFFCURVE",
"474 592 OFFCURVE",
"474 512 CURVE SMOOTH",
"474 491 OFFCURVE",
"473 457 OFFCURVE",
"466 392 CURVE SMOOTH",
"432 119 OFFCURVE",
"355 55 OFFCURVE",
"273 46 CURVE SMOOTH",
"145 32 OFFCURVE",
"49 24 OFFCURVE",
"49 -95 CURVE SMOOTH",
"49 -115 OFFCURVE",
"54 -133 OFFCURVE",
"66 -154 CURVE",
"103 -131 OFFCURVE",
"140 -123 OFFCURVE",
"174 -123 CURVE SMOOTH",
"279 -123 OFFCURVE",
"355 -202 OFFCURVE",
"453 -202 CURVE SMOOTH",
"552 -202 OFFCURVE",
"626 -127 OFFCURVE",
"626 -22 CURVE SMOOTH",
"626 -13 OFFCURVE",
"626 -4 OFFCURVE",
"624 2 CURVE",
"583 -21 OFFCURVE",
"529 -32 OFFCURVE",
"473 -32 CURVE SMOOTH",
"432 -32 OFFCURVE",
"390 -26 OFFCURVE",
"352 -16 CURVE",
"544 19 OFFCURVE",
"737 143 OFFCURVE",
"737 405 CURVE SMOOTH",
"737 589 OFFCURVE",
"627 680 OFFCURVE",
"448 680 CURVE SMOOTH"
);
}
);
width = 735;
},
{
layerId = "1252CFB8-7EB2-4C2F-9C11-14383990C0AA";
paths = (
{
closed = 1;
nodes = (
"121 680 OFFCURVE",
"49 359 OFFCURVE",
"49 226 CURVE SMOOTH",
"49 136 OFFCURVE",
"83 95 OFFCURVE",
"147 95 CURVE SMOOTH",
"186 95 OFFCURVE",
"200 111 OFFCURVE",
"200 128 CURVE",
"165 134 OFFCURVE",
"155 148 OFFCURVE",
"155 195 CURVE SMOOTH",
"155 247 OFFCURVE",
"169 338 OFFCURVE",
"184 401 CURVE SMOOTH",
"206 492 OFFCURVE",
"252 610 OFFCURVE",
"359 610 CURVE SMOOTH",
"438 610 OFFCURVE",
"458 542 OFFCURVE",
"458 464 CURVE SMOOTH",
"458 394 OFFCURVE",
"442 302 OFFCURVE",
"426 241 CURVE SMOOTH",
"377 62 OFFCURVE",
"271 33 OFFCURVE",
"159 17 CURVE SMOOTH",
"131 14 OFFCURVE",
"56 2 OFFCURVE",
"56 -64 CURVE SMOOTH",
"56 -82 OFFCURVE",
"62 -97 OFFCURVE",
"71 -104 CURVE",
"86 -100 OFFCURVE",
"110 -95 OFFCURVE",
"133 -95 CURVE SMOOTH",
"206 -95 OFFCURVE",
"323 -138 OFFCURVE",
"407 -138 CURVE SMOOTH",
"459 -138 OFFCURVE",
"516 -125 OFFCURVE",
"516 -57 CURVE SMOOTH",
"516 -46 OFFCURVE",
"514 -36 OFFCURVE",
"511 -27 CURVE",
"482 -43 OFFCURVE",
"445 -47 OFFCURVE",
"412 -47 CURVE SMOOTH",
"339 -47 OFFCURVE",
"280 -29 OFFCURVE",
"252 -24 CURVE",
"432 16 OFFCURVE",
"563 173 OFFCURVE",
"563 471 CURVE SMOOTH",
"563 600 OFFCURVE",
"516 680 OFFCURVE",
"384 680 CURVE SMOOTH"
);
}
);
width = 579;
}
);
note = Q;
unicode = 0051;
},
{
glyphname = R;
layers = (
{
anchors = (
{
name = bottom;
position = "{226, 0}";
},
{
name = top;
position = "{353, 660}";
}
);
layerId = "B7BBAE14-F4F3-4898-8D83-DD158C3247C2";
paths = (
{
closed = 1;
nodes = (
"22 0 LINE",
"139 0 LINE",
"255 596 LINE",
"272 600 OFFCURVE",
"291 603 OFFCURVE",
"312 603 CURVE SMOOTH",
"385 603 OFFCURVE",
"415 564 OFFCURVE",
"415 487 CURVE SMOOTH",
"415 387 OFFCURVE",
"365 325 OFFCURVE",
"263 325 CURVE SMOOTH",
"252 325 OFFCURVE",
"249 325 OFFCURVE",
"237 326 CURVE",
"323 76 OFFCURVE",
"368 -19 OFFCURVE",
"458 -19 CURVE SMOOTH",
"493 -19 OFFCURVE",
"526 -4 OFFCURVE",
"536 35 CURVE",
"495 54 OFFCURVE",
"435 130 OFFCURVE",
"372 280 CURVE",
"475 297 OFFCURVE",
"539 386 OFFCURVE",
"539 502 CURVE SMOOTH",
"539 639 OFFCURVE",
"451 669 OFFCURVE",
"319 669 CURVE SMOOTH",
"264 669 OFFCURVE",
"192 664 OFFCURVE",
"149 660 CURVE"
);
}
);
width = 566;
},
{
anchors = (
{
name = bottom;
position = "{256, 0}";
},
{
name = top;
position = "{358, 660}";
}
);
layerId = "7A350A25-044B-4D59-B0E9-6A59A980AC73";
paths = (
{
closed = 1;
nodes = (
"9 0 LINE",
"174 0 LINE",
"290 598 LINE",
"302 600 OFFCURVE",
"317 602 OFFCURVE",
"336 602 CURVE SMOOTH",
"404 602 OFFCURVE",
"430 564 OFFCURVE",
"430 492 CURVE SMOOTH",
"430 391 OFFCURVE",
"378 333 OFFCURVE",
"280 333 CURVE SMOOTH",
"274 333 OFFCURVE",
"271 333 OFFCURVE",
"264 334 CURVE",
"328 103 OFFCURVE",
"366 -20 OFFCURVE",
"482 -20 CURVE SMOOTH",
"529 -20 OFFCURVE",
"566 1 OFFCURVE",
"580 47 CURVE",
"531 69 OFFCURVE",
"476 149 OFFCURVE",
"424 286 CURVE",
"525 305 OFFCURVE",
"589 386 OFFCURVE",
"589 499 CURVE SMOOTH",
"589 643 OFFCURVE",
"482 667 OFFCURVE",
"334 667 CURVE SMOOTH",
"273 667 OFFCURVE",
"201 663 OFFCURVE",
"134 660 CURVE"
);
}
);
width = 603;
},
{
anchors = (
{
name = bottom;
position = "{286, 0}";
},
{
name = top;
position = "{384, 660}";
}
);
layerId = "1597CCFE-0C49-4087-BB13-985DDBBCAFFD";
paths = (
{
closed = 1;
nodes = (
"-3 0 LINE",
"210 0 LINE",
"325 599 LINE",
"332 600 OFFCURVE",
"344 600 OFFCURVE",
"361 600 CURVE SMOOTH",
"424 600 OFFCURVE",
"446 563 OFFCURVE",
"446 497 CURVE SMOOTH",
"446 394 OFFCURVE",
"392 341 OFFCURVE",
"298 341 CURVE SMOOTH",
"296 341 OFFCURVE",
"293 341 OFFCURVE",
"291 341 CURVE",
"333 129 OFFCURVE",
"365 -20 OFFCURVE",
"506 -20 CURVE SMOOTH",
"565 -20 OFFCURVE",
"606 6 OFFCURVE",
"624 59 CURVE",
"567 84 OFFCURVE",
"517 168 OFFCURVE",
"478 292 CURVE",
"575 313 OFFCURVE",
"640 386 OFFCURVE",
"640 495 CURVE SMOOTH",
"640 647 OFFCURVE",
"514 665 OFFCURVE",
"349 665 CURVE SMOOTH",
"282 665 OFFCURVE",
"212 662 OFFCURVE",
"120 660 CURVE"
);
}
);
width = 640;
},
{
anchors = (
{
name = bottom;
position = "{316, 0}";
},
{
name = top;
position = "{413, 660}";
}
);
layerId = "30A38917-B9D2-447A-AF98-EAADDBDD04CD";
paths = (
{
closed = 1;
nodes = (
"-5 0 LINE",
"257 0 LINE",
"371 600 LINE",
"397 600 LINE SMOOTH",
"455 600 OFFCURVE",
"473 563 OFFCURVE",
"473 502 CURVE SMOOTH",
"473 420 OFFCURVE",
"435 350 OFFCURVE",
"345 349 CURVE SMOOTH",
"340 349 OFFCURVE",
"335 349 OFFCURVE",
"329 350 CURVE",
"348 159 OFFCURVE",
"374 -20 OFFCURVE",
"541 -20 CURVE SMOOTH",
"612 -20 OFFCURVE",
"657 11 OFFCURVE",
"679 71 CURVE",
"614 99 OFFCURVE",
"569 187 OFFCURVE",
"542 298 CURVE",
"636 321 OFFCURVE",
"701 386 OFFCURVE",
"701 492 CURVE SMOOTH",
"701 651 OFFCURVE",
"557 663 OFFCURVE",
"376 663 CURVE SMOOTH",
"301 663 OFFCURVE",
"232 661 OFFCURVE",
"116 660 CURVE"
);
}
);
width = 688;
},
{
anchors = (
{
name = bottom;
position = "{217, 0}";
},
{
name = top;
position = "{353, 660}";
}
);
layerId = "1252CFB8-7EB2-4C2F-9C11-14383990C0AA";
paths = (
{
closed = 1;
nodes = (
"33 0 LINE",
"128 0 LINE",
"244 595 LINE",
"263 600 OFFCURVE",
"284 604 OFFCURVE",
"306 604 CURVE SMOOTH",
"381 604 OFFCURVE",
"413 564 OFFCURVE",
"413 485 CURVE SMOOTH",
"413 385 OFFCURVE",
"364 321 OFFCURVE",
"260 321 CURVE SMOOTH",
"247 321 OFFCURVE",
"244 321 OFFCURVE",
"229 322 CURVE",
"326 64 OFFCURVE",
"374 -19 OFFCURVE",
"452 -19 CURVE SMOOTH",
"481 -19 OFFCURVE",
"512 -6 OFFCURVE",
"521 29 CURVE",
"483 47 OFFCURVE",
"421 121 OFFCURVE",
"353 277 CURVE",
"457 293 OFFCURVE",
"521 386 OFFCURVE",
"521 504 CURVE SMOOTH",
"521 637 OFFCURVE",
"441 670 OFFCURVE",
"317 670 CURVE SMOOTH",
"265 670 OFFCURVE",
"193 664 OFFCURVE",
"161 660 CURVE"
);
}
);
width = 559;
}
);
note = R;
unicode = 0052;
},
{
glyphname = S;
layers = (
{
anchors = (
{
name = bottom;
position = "{199, 0}";
},
{
name = top;
position = "{307, 660}";
}
);
layerId = "B7BBAE14-F4F3-4898-8D83-DD158C3247C2";
paths = (
{
closed = 1;
nodes = (
"192 680 OFFCURVE",
"85 609 OFFCURVE",
"85 489 CURVE SMOOTH",
"85 392 OFFCURVE",
"155 341 OFFCURVE",
"219 292 CURVE SMOOTH",
"274 250 OFFCURVE",
"328 210 OFFCURVE",
"328 147 CURVE SMOOTH",
"328 84 OFFCURVE",
"275 43 OFFCURVE",
"216 43 CURVE SMOOTH",
"171 43 OFFCURVE",
"135 66 OFFCURVE",
"135 112 CURVE SMOOTH",
"135 131 OFFCURVE",
"141 163 OFFCURVE",
"150 185 CURVE",
"137 193 OFFCURVE",
"118 198 OFFCURVE",
"99 198 CURVE SMOOTH",
"54 198 OFFCURVE",
"10 169 OFFCURVE",
"10 108 CURVE SMOOTH",
"10 21 OFFCURVE",
"99 -22 OFFCURVE",
"196 -22 CURVE SMOOTH",
"325 -22 OFFCURVE",
"442 54 OFFCURVE",
"442 178 CURVE SMOOTH",
"442 272 OFFCURVE",
"374 324 OFFCURVE",
"311 371 CURVE SMOOTH",
"254 413 OFFCURVE",
"198 455 OFFCURVE",
"198 522 CURVE SMOOTH",
"198 576 OFFCURVE",
"235 617 OFFCURVE",
"289 617 CURVE SMOOTH",
"333 617 OFFCURVE",
"359 590 OFFCURVE",
"359 547 CURVE SMOOTH",
"359 526 OFFCURVE",
"353 495 OFFCURVE",
"344 473 CURVE",
"356 465 OFFCURVE",
"375 460 OFFCURVE",
"392 460 CURVE SMOOTH",
"436 460 OFFCURVE",
"483 493 OFFCURVE",
"483 562 CURVE SMOOTH",
"483 645 OFFCURVE",
"416 680 OFFCURVE",
"324 680 CURVE SMOOTH"
);
}
);
width = 505;
},
{
anchors = (
{
name = bottom;
position = "{200, 0}";
},
{
name = top;
position = "{331, 660}";
}
);
layerId = "7A350A25-044B-4D59-B0E9-6A59A980AC73";
paths = (
{
closed = 1;
nodes = (
"197 680 OFFCURVE",
"74 598 OFFCURVE",
"74 468 CURVE SMOOTH",
"74 374 OFFCURVE",
"137 325 OFFCURVE",
"200 282 CURVE SMOOTH",
"260 240 OFFCURVE",
"326 203 OFFCURVE",
"326 139 CURVE SMOOTH",
"326 82 OFFCURVE",
"276 46 OFFCURVE",
"221 46 CURVE SMOOTH",
"176 46 OFFCURVE",
"152 71 OFFCURVE",
"152 116 CURVE SMOOTH",
"152 140 OFFCURVE",
"157 171 OFFCURVE",
"167 196 CURVE",
"149 204 OFFCURVE",
"127 209 OFFCURVE",
"107 209 CURVE SMOOTH",
"47 209 OFFCURVE",
"4 170 OFFCURVE",
"4 107 CURVE SMOOTH",
"4 10 OFFCURVE",
"104 -21 OFFCURVE",
"194 -21 CURVE SMOOTH",
"345 -21 OFFCURVE",
"484 61 OFFCURVE",
"484 196 CURVE SMOOTH",
"484 287 OFFCURVE",
"421 335 OFFCURVE",
"359 377 CURVE SMOOTH",
"295 419 OFFCURVE",
"229 454 OFFCURVE",
"229 520 CURVE SMOOTH",
"229 573 OFFCURVE",
"272 617 OFFCURVE",
"325 617 CURVE SMOOTH",
"368 617 OFFCURVE",
"388 588 OFFCURVE",
"388 544 CURVE SMOOTH",
"388 522 OFFCURVE",
"383 491 OFFCURVE",
"373 468 CURVE",
"388 461 OFFCURVE",
"408 456 OFFCURVE",
"426 456 CURVE SMOOTH",
"478 456 OFFCURVE",
"532 490 OFFCURVE",
"532 561 CURVE SMOOTH",
"532 652 OFFCURVE",
"445 680 OFFCURVE",
"355 680 CURVE SMOOTH"
);
}
);
width = 542;
},
{
anchors = (
{
name = bottom;
position = "{224, 0}";
},
{
name = top;
position = "{361, 660}";
}
);
layerId = "1597CCFE-0C49-4087-BB13-985DDBBCAFFD";
paths = (
{
closed = 1;
nodes = (
"202 680 OFFCURVE",
"63 587 OFFCURVE",
"63 446 CURVE SMOOTH",
"63 356 OFFCURVE",
"120 309 OFFCURVE",
"181 271 CURVE SMOOTH",
"246 230 OFFCURVE",
"324 196 OFFCURVE",
"324 131 CURVE SMOOTH",
"324 80 OFFCURVE",
"276 48 OFFCURVE",
"226 48 CURVE SMOOTH",
"181 48 OFFCURVE",
"169 75 OFFCURVE",
"169 119 CURVE SMOOTH",
"169 148 OFFCURVE",
"174 178 OFFCURVE",
"185 206 CURVE",
"161 215 OFFCURVE",
"135 219 OFFCURVE",
"114 219 CURVE SMOOTH",
"40 219 OFFCURVE",
"-2 170 OFFCURVE",
"-2 105 CURVE SMOOTH",
"-2 -1 OFFCURVE",
"109 -20 OFFCURVE",
"191 -20 CURVE SMOOTH",
"365 -20 OFFCURVE",
"526 67 OFFCURVE",
"526 214 CURVE SMOOTH",
"526 301 OFFCURVE",
"468 346 OFFCURVE",
"407 382 CURVE SMOOTH",
"336 424 OFFCURVE",
"260 453 OFFCURVE",
"260 518 CURVE SMOOTH",
"260 569 OFFCURVE",
"308 617 OFFCURVE",
"361 617 CURVE SMOOTH",
"403 617 OFFCURVE",
"417 585 OFFCURVE",
"417 540 CURVE SMOOTH",
"417 517 OFFCURVE",
"414 486 OFFCURVE",
"402 462 CURVE",
"419 456 OFFCURVE",
"440 452 OFFCURVE",
"460 452 CURVE SMOOTH",
"520 452 OFFCURVE",
"581 486 OFFCURVE",
"581 560 CURVE SMOOTH",
"581 658 OFFCURVE",
"474 680 OFFCURVE",
"385 680 CURVE SMOOTH"
);
}
);
width = 580;
},
{
anchors = (
{
name = bottom;
position = "{247, 0}";
},
{
name = top;
position = "{384, 660}";
}
);
background = {
paths = (
{
closed = 1;
nodes = (
"207 680 OFFCURVE",
"52 576 OFFCURVE",
"52 425 CURVE SMOOTH",
"52 338 OFFCURVE",
"101 293 OFFCURVE",
"161 261 CURVE SMOOTH",
"232 220 OFFCURVE",
"322 189 OFFCURVE",
"322 123 CURVE SMOOTH",
"322 73 OFFCURVE",
"287 46 OFFCURVE",
"242 46 CURVE SMOOTH",
"200 46 OFFCURVE",
"186 83 OFFCURVE",
"186 126 CURVE SMOOTH",
"186 157 OFFCURVE",
"193 190 OFFCURVE",
"203 216 CURVE",
"173 226 OFFCURVE",
"143 229 OFFCURVE",
"121 229 CURVE SMOOTH",
"33 229 OFFCURVE",
"-8 170 OFFCURVE",
"-8 104 CURVE SMOOTH",
"-8 -12 OFFCURVE",
"114 -19 OFFCURVE",
"189 -19 CURVE SMOOTH",
"390 -19 OFFCURVE",
"569 54 OFFCURVE",
"569 232 CURVE SMOOTH",
"569 315 OFFCURVE",
"516 357 OFFCURVE",
"456 387 CURVE SMOOTH",
"378 429 OFFCURVE",
"292 452 OFFCURVE",
"292 516 CURVE SMOOTH",
"292 581 OFFCURVE",
"339 618 OFFCURVE",
"381 618 CURVE SMOOTH",
"429 618 OFFCURVE",
"447 574 OFFCURVE",
"447 529 CURVE SMOOTH",
"447 503 OFFCURVE",
"441 476 OFFCURVE",
"432 457 CURVE",
"452 452 OFFCURVE",
"474 448 OFFCURVE",
"495 448 CURVE SMOOTH",
"563 448 OFFCURVE",
"631 483 OFFCURVE",
"631 559 CURVE SMOOTH",
"631 664 OFFCURVE",
"504 680 OFFCURVE",
"417 680 CURVE SMOOTH"
);
}
);
};
layerId = "30A38917-B9D2-447A-AF98-EAADDBDD04CD";
paths = (
{
closed = 1;
nodes = (
"416 -19 OFFCURVE",
"571 77 OFFCURVE",
"571 227 CURVE SMOOTH",
"571 314 OFFCURVE",
"520 359 OFFCURVE",
"458 394 CURVE SMOOTH",
"386 435 OFFCURVE",
"293 465 OFFCURVE",
"293 531 CURVE SMOOTH",
"293 581 OFFCURVE",
"331 615 OFFCURVE",
"376 615 CURVE SMOOTH",
"446 615 OFFCURVE",
"460 535 OFFCURVE",
"430 455 CURVE",
"535 425 OFFCURVE",
"631 469 OFFCURVE",
"631 557 CURVE SMOOTH",
"631 664 OFFCURVE",
"505 680 OFFCURVE",
"430 680 CURVE SMOOTH",
"229 680 OFFCURVE",
"54 597 OFFCURVE",
"54 427 CURVE SMOOTH",
"54 344 OFFCURVE",
"107 297 OFFCURVE",
"167 267 CURVE SMOOTH",
"245 225 OFFCURVE",
"323 202 OFFCURVE",
"323 138 CURVE SMOOTH",
"323 73 OFFCURVE",
"289 43 OFFCURVE",
"242 43 CURVE SMOOTH",
"175 43 OFFCURVE",
"171 140 OFFCURVE",
"203 216 CURVE",
"70 260 OFFCURVE",
"-8 194 OFFCURVE",
"-8 116 CURVE SMOOTH",
"-8 -3 OFFCURVE",
"119 -19 OFFCURVE",
"206 -19 CURVE SMOOTH"
);
}
);
width = 593;
},
{
anchors = (
{
name = bottom;
position = "{201, 0}";
},
{
name = top;
position = "{300, 660}";
}
);
layerId = "1252CFB8-7EB2-4C2F-9C11-14383990C0AA";
paths = (
{
closed = 1;
nodes = (
"195 680 OFFCURVE",
"95 614 OFFCURVE",
"95 499 CURVE SMOOTH",
"95 400 OFFCURVE",
"168 348 OFFCURVE",
"233 297 CURVE SMOOTH",
"286 255 OFFCURVE",
"334 213 OFFCURVE",
"334 151 CURVE SMOOTH",
"334 85 OFFCURVE",
"280 42 OFFCURVE",
"219 42 CURVE SMOOTH",
"174 42 OFFCURVE",
"132 64 OFFCURVE",
"132 110 CURVE SMOOTH",
"132 127 OFFCURVE",
"138 159 OFFCURVE",
"147 180 CURVE",
"136 188 OFFCURVE",
"119 193 OFFCURVE",
"100 193 CURVE SMOOTH",
"62 193 OFFCURVE",
"18 169 OFFCURVE",
"18 109 CURVE SMOOTH",
"18 26 OFFCURVE",
"102 -22 OFFCURVE",
"202 -22 CURVE SMOOTH",
"321 -22 OFFCURVE",
"427 51 OFFCURVE",
"427 170 CURVE SMOOTH",
"427 265 OFFCURVE",
"357 319 OFFCURVE",
"294 368 CURVE SMOOTH",
"240 410 OFFCURVE",
"189 455 OFFCURVE",
"189 523 CURVE SMOOTH",
"189 578 OFFCURVE",
"223 617 OFFCURVE",
"277 617 CURVE SMOOTH",
"322 617 OFFCURVE",
"351 591 OFFCURVE",
"351 549 CURVE SMOOTH",
"351 528 OFFCURVE",
"344 497 OFFCURVE",
"336 475 CURVE",
"346 467 OFFCURVE",
"365 462 OFFCURVE",
"381 462 CURVE SMOOTH",
"421 462 OFFCURVE",
"465 495 OFFCURVE",
"465 562 CURVE SMOOTH",
"465 642 OFFCURVE",
"408 680 OFFCURVE",
"315 680 CURVE SMOOTH"
);
}
);
width = 498;
}
);
note = S;
unicode = 0053;
},
{
glyphname = Germandbls;
layers = (
{
layerId = "B7BBAE14-F4F3-4898-8D83-DD158C3247C2";
paths = (
{
closed = 1;
nodes = (
"13 0 LINE",
"131 0 LINE",
"195 334 LINE SMOOTH",
"229 511 OFFCURVE",
"284 622 OFFCURVE",
"419 622 CURVE SMOOTH",
"465 622 OFFCURVE",
"504 609 OFFCURVE",
"541 581 CURVE",
"411 510 OFFCURVE",
"377 444 OFFCURVE",
"377 386 CURVE SMOOTH",
"377 252 OFFCURVE",
"550 234 OFFCURVE",
"550 129 CURVE SMOOTH",
"550 70 OFFCURVE",
"495 43 OFFCURVE",
"446 43 CURVE SMOOTH",
"400 43 OFFCURVE",
"367 66 OFFCURVE",
"367 112 CURVE SMOOTH",
"367 131 OFFCURVE",
"373 163 OFFCURVE",
"382 185 CURVE",
"370 193 OFFCURVE",
"351 198 OFFCURVE",
"332 198 CURVE SMOOTH",
"286 198 OFFCURVE",
"243 169 OFFCURVE",
"243 108 CURVE SMOOTH",
"243 21 OFFCURVE",
"329 -22 OFFCURVE",
"427 -22 CURVE SMOOTH",
"551 -22 OFFCURVE",
"664 44 OFFCURVE",
"664 162 CURVE SMOOTH",
"664 308 OFFCURVE",
"490 331 OFFCURVE",
"490 416 CURVE SMOOTH",
"490 455 OFFCURVE",
"526 516 OFFCURVE",
"681 580 CURVE",
"633 641 OFFCURVE",
"552 680 OFFCURVE",
"434 680 CURVE SMOOTH",
"251 680 OFFCURVE",
"127 586 OFFCURVE",
"77 330 CURVE SMOOTH"
);
}
);
width = 714;
},
{
layerId = "7A350A25-044B-4D59-B0E9-6A59A980AC73";
paths = (
{
closed = 1;
nodes = (
"-1 0 LINE",
"167 0 LINE",
"232 338 LINE SMOOTH",
"267 516 OFFCURVE",
"320 628 OFFCURVE",
"441 628 CURVE SMOOTH",
"489 628 OFFCURVE",
"527 609 OFFCURVE",
"554 582 CURVE",
"437 519 OFFCURVE",
"372 449 OFFCURVE",
"372 366 CURVE SMOOTH",
"372 233 OFFCURVE",
"531 218 OFFCURVE",
"531 127 CURVE SMOOTH",
"531 84 OFFCURVE",
"495 46 OFFCURVE",
"445 46 CURVE SMOOTH",
"404 46 OFFCURVE",
"382 69 OFFCURVE",
"382 108 CURVE SMOOTH",
"382 128 OFFCURVE",
"387 154 OFFCURVE",
"395 176 CURVE",
"380 184 OFFCURVE",
"361 189 OFFCURVE",
"342 189 CURVE SMOOTH",
"292 189 OFFCURVE",
"254 154 OFFCURVE",
"254 98 CURVE SMOOTH",
"254 9 OFFCURVE",
"345 -21 OFFCURVE",
"428 -21 CURVE SMOOTH",
"563 -21 OFFCURVE",
"687 54 OFFCURVE",
"687 183 CURVE SMOOTH",
"687 329 OFFCURVE",
"528 342 OFFCURVE",
"528 424 CURVE SMOOTH",
"528 483 OFFCURVE",
"617 544 OFFCURVE",
"705 581 CURVE",
"656 643 OFFCURVE",
"574 680 OFFCURVE",
"446 680 CURVE SMOOTH",
"263 680 OFFCURVE",
"117 603 OFFCURVE",
"64 331 CURVE SMOOTH"
);
}
);
width = 735;
},
{
layerId = "1597CCFE-0C49-4087-BB13-985DDBBCAFFD";
paths = (
{
closed = 1;
nodes = (
"-14 0 LINE",
"202 0 LINE",
"269 342 LINE SMOOTH",
"304 521 OFFCURVE",
"355 634 OFFCURVE",
"463 634 CURVE SMOOTH",
"514 634 OFFCURVE",
"550 609 OFFCURVE",
"568 582 CURVE",
"463 528 OFFCURVE",
"366 454 OFFCURVE",
"366 346 CURVE SMOOTH",
"366 213 OFFCURVE",
"513 202 OFFCURVE",
"513 124 CURVE SMOOTH",
"513 98 OFFCURVE",
"495 48 OFFCURVE",
"443 48 CURVE SMOOTH",
"408 48 OFFCURVE",
"397 71 OFFCURVE",
"397 103 CURVE SMOOTH",
"397 125 OFFCURVE",
"402 145 OFFCURVE",
"409 166 CURVE",
"391 175 OFFCURVE",
"371 179 OFFCURVE",
"353 179 CURVE SMOOTH",
"298 179 OFFCURVE",
"266 139 OFFCURVE",
"266 87 CURVE SMOOTH",
"266 -3 OFFCURVE",
"361 -20 OFFCURVE",
"428 -20 CURVE SMOOTH",
"575 -20 OFFCURVE",
"710 63 OFFCURVE",
"710 204 CURVE SMOOTH",
"710 349 OFFCURVE",
"566 353 OFFCURVE",
"566 432 CURVE SMOOTH",
"566 511 OFFCURVE",
"710 573 OFFCURVE",
"729 581 CURVE",
"679 645 OFFCURVE",
"597 680 OFFCURVE",
"458 680 CURVE SMOOTH",
"276 680 OFFCURVE",
"108 620 OFFCURVE",
"51 331 CURVE SMOOTH"
);
}
);
width = 756;
},
{
layerId = "30A38917-B9D2-447A-AF98-EAADDBDD04CD";
paths = (
{
closed = 1;
nodes = (
"-29 0 LINE",
"239 0 LINE",
"307 346 LINE SMOOTH",
"343 526 OFFCURVE",
"392 640 OFFCURVE",
"485 640 CURVE SMOOTH",
"538 640 OFFCURVE",
"573 609 OFFCURVE",
"582 582 CURVE",
"489 537 OFFCURVE",
"361 459 OFFCURVE",
"361 326 CURVE SMOOTH",
"361 194 OFFCURVE",
"493 181 OFFCURVE",
"493 103 CURVE SMOOTH",
"493 69 OFFCURVE",
"477 50 OFFCURVE",
"447 50 CURVE SMOOTH",
"426 50 OFFCURVE",
"411 67 OFFCURVE",
"411 90 CURVE SMOOTH",
"411 111 OFFCURVE",
"417 136 OFFCURVE",
"423 157 CURVE",
"402 166 OFFCURVE",
"381 170 OFFCURVE",
"364 170 CURVE SMOOTH",
"304 170 OFFCURVE",
"278 124 OFFCURVE",
"278 77 CURVE SMOOTH",
"278 -15 OFFCURVE",
"377 -19 OFFCURVE",
"428 -19 CURVE SMOOTH",
"587 -19 OFFCURVE",
"733 72 OFFCURVE",
"733 225 CURVE SMOOTH",
"733 369 OFFCURVE",
"605 364 OFFCURVE",
"605 440 CURVE SMOOTH",
"605 521 OFFCURVE",
"710 554 OFFCURVE",
"753 581 CURVE",
"702 647 OFFCURVE",
"619 680 OFFCURVE",
"470 680 CURVE SMOOTH",
"289 680 OFFCURVE",
"97 637 OFFCURVE",
"37 331 CURVE SMOOTH"
);
}
);
width = 779;
},
{
layerId = "1252CFB8-7EB2-4C2F-9C11-14383990C0AA";
paths = (
{
closed = 1;
nodes = (
"24 0 LINE",
"119 0 LINE",
"183 332 LINE SMOOTH",
"216 509 OFFCURVE",
"272 619 OFFCURVE",
"414 619 CURVE SMOOTH",
"459 619 OFFCURVE",
"498 609 OFFCURVE",
"540 581 CURVE",
"404 506 OFFCURVE",
"384 442 OFFCURVE",
"384 395 CURVE SMOOTH",
"384 261 OFFCURVE",
"564 241 OFFCURVE",
"564 130 CURVE SMOOTH",
"564 63 OFFCURVE",
"500 42 OFFCURVE",
"452 42 CURVE SMOOTH",
"403 42 OFFCURVE",
"365 65 OFFCURVE",
"365 114 CURVE SMOOTH",
"365 132 OFFCURVE",
"371 167 OFFCURVE",
"381 189 CURVE",
"370 197 OFFCURVE",
"351 202 OFFCURVE",
"332 202 CURVE SMOOTH",
"288 202 OFFCURVE",
"243 176 OFFCURVE",
"243 113 CURVE SMOOTH",
"243 27 OFFCURVE",
"327 -22 OFFCURVE",
"432 -22 CURVE SMOOTH",
"550 -22 OFFCURVE",
"658 39 OFFCURVE",
"658 152 CURVE SMOOTH",
"658 298 OFFCURVE",
"477 326 OFFCURVE",
"477 412 CURVE SMOOTH",
"477 442 OFFCURVE",
"488 503 OFFCURVE",
"675 580 CURVE",
"627 640 OFFCURVE",
"547 680 OFFCURVE",
"433 680 CURVE SMOOTH",
"250 680 OFFCURVE",
"137 578 OFFCURVE",
"88 330 CURVE SMOOTH"
);
}
);
width = 714;
}
);
note = uni1E9E;
unicode = 1E9E;
},
{
glyphname = Schwa;
layers = (
{
layerId = "B7BBAE14-F4F3-4898-8D83-DD158C3247C2";
paths = (
{
closed = 1;
nodes = (
"413 -26 OFFCURVE",
"529 210 OFFCURVE",
"529 428 CURVE SMOOTH",
"529 600 OFFCURVE",
"468 680 OFFCURVE",
"336 680 CURVE SMOOTH",
"204 680 OFFCURVE",
"117 601 OFFCURVE",
"115 527 CURVE SMOOTH",
"115 509 OFFCURVE",
"121 488 OFFCURVE",
"137 482 CURVE",
"168 546 OFFCURVE",
"225 583 OFFCURVE",
"293 583 CURVE SMOOTH",
"379 583 OFFCURVE",
"403 526 OFFCURVE",
"403 426 CURVE SMOOTH",
"403 405 OFFCURVE",
"401 373 OFFCURVE",
"397 342 CURVE",
"382 343 OFFCURVE",
"350 345 OFFCURVE",
"330 345 CURVE SMOOTH",
"171 345 OFFCURVE",
"33 266 OFFCURVE",
"33 117 CURVE SMOOTH",
"33 10 OFFCURVE",
"99 -26 OFFCURVE",
"187 -26 CURVE SMOOTH"
);
},
{
closed = 1;
nodes = (
"175 36 OFFCURVE",
"153 63 OFFCURVE",
"153 118 CURVE SMOOTH",
"153 240 OFFCURVE",
"279 290 OFFCURVE",
"390 290 CURVE",
"369 182 OFFCURVE",
"308 36 OFFCURVE",
"216 36 CURVE SMOOTH"
);
}
);
width = 558;
},
{
layerId = "7A350A25-044B-4D59-B0E9-6A59A980AC73";
paths = (
{
closed = 1;
nodes = (
"425 -26 OFFCURVE",
"548 194 OFFCURVE",
"548 414 CURVE SMOOTH",
"548 597 OFFCURVE",
"475 680 OFFCURVE",
"335 680 CURVE SMOOTH",
"203 680 OFFCURVE",
"95 607 OFFCURVE",
"94 514 CURVE SMOOTH",
"94 493 OFFCURVE",
"100 473 OFFCURVE",
"118 463 CURVE",
"150 523 OFFCURVE",
"213 556 OFFCURVE",
"276 556 CURVE SMOOTH",
"354 556 OFFCURVE",
"378 505 OFFCURVE",
"378 417 CURVE SMOOTH",
"378 398 OFFCURVE",
"376 371 OFFCURVE",
"372 345 CURVE",
"354 345 OFFCURVE",
"328 346 OFFCURVE",
"308 346 CURVE SMOOTH",
"128 340 OFFCURVE",
"9 260 OFFCURVE",
"9 122 CURVE SMOOTH",
"9 6 OFFCURVE",
"88 -26 OFFCURVE",
"181 -26 CURVE SMOOTH"
);
},
{
closed = 1;
nodes = (
"172 33 OFFCURVE",
"156 62 OFFCURVE",
"156 112 CURVE SMOOTH",
"157 229 OFFCURVE",
"254 296 OFFCURVE",
"365 296 CURVE",
"338 146 OFFCURVE",
"282 33 OFFCURVE",
"209 33 CURVE SMOOTH"
);
}
);
width = 574;
},
{
layerId = "1597CCFE-0C49-4087-BB13-985DDBBCAFFD";
paths = (
{
closed = 1;
nodes = (
"437 -26 OFFCURVE",
"567 177 OFFCURVE",
"567 400 CURVE SMOOTH",
"567 593 OFFCURVE",
"481 680 OFFCURVE",
"333 680 CURVE SMOOTH",
"202 680 OFFCURVE",
"72 613 OFFCURVE",
"72 501 CURVE SMOOTH",
"72 476 OFFCURVE",
"79 458 OFFCURVE",
"98 444 CURVE",
"131 499 OFFCURVE",
"200 528 OFFCURVE",
"258 528 CURVE SMOOTH",
"329 528 OFFCURVE",
"352 484 OFFCURVE",
"352 408 CURVE SMOOTH",
"352 391 OFFCURVE",
"350 368 OFFCURVE",
"347 347 CURVE",
"326 347 OFFCURVE",
"306 347 OFFCURVE",
"286 346 CURVE SMOOTH",
"85 334 OFFCURVE",
"-15 254 OFFCURVE",
"-15 127 CURVE SMOOTH",
"-15 2 OFFCURVE",
"75 -26 OFFCURVE",
"174 -26 CURVE SMOOTH"
);
},
{
closed = 1;
nodes = (
"168 29 OFFCURVE",
"159 60 OFFCURVE",
"159 105 CURVE SMOOTH",
"160 218 OFFCURVE",
"229 302 OFFCURVE",
"339 302 CURVE",
"307 109 OFFCURVE",
"255 29 OFFCURVE",
"202 29 CURVE SMOOTH"
);
}
);
width = 589;
},
{
layerId = "30A38917-B9D2-447A-AF98-EAADDBDD04CD";
paths = (
{
closed = 1;
nodes = (
"479 -26 OFFCURVE",
"616 161 OFFCURVE",
"616 386 CURVE SMOOTH",
"616 590 OFFCURVE",
"518 680 OFFCURVE",
"362 680 CURVE SMOOTH",
"232 680 OFFCURVE",
"79 619 OFFCURVE",
"79 488 CURVE SMOOTH",
"79 460 OFFCURVE",
"87 443 OFFCURVE",
"107 425 CURVE",
"141 474 OFFCURVE",
"216 499 OFFCURVE",
"269 499 CURVE SMOOTH",
"333 499 OFFCURVE",
"356 463 OFFCURVE",
"356 399 CURVE SMOOTH",
"356 384 OFFCURVE",
"354 366 OFFCURVE",
"351 349 CURVE",
"327 349 OFFCURVE",
"313 348 OFFCURVE",
"293 346 CURVE SMOOTH",
"71 329 OFFCURVE",
"-10 248 OFFCURVE",
"-10 132 CURVE SMOOTH",
"-10 -2 OFFCURVE",
"93 -26 OFFCURVE",
"198 -26 CURVE SMOOTH"
);
},
{
closed = 1;
nodes = (
"195 26 OFFCURVE",
"192 59 OFFCURVE",
"192 99 CURVE SMOOTH",
"194 207 OFFCURVE",
"233 308 OFFCURVE",
"343 308 CURVE",
"305 71 OFFCURVE",
"258 26 OFFCURVE",
"226 26 CURVE SMOOTH"
);
}
);
width = 619;
},
{
layerId = "1252CFB8-7EB2-4C2F-9C11-14383990C0AA";
paths = (
{
closed = 1;
nodes = (
"412 -26 OFFCURVE",
"525 218 OFFCURVE",
"525 435 CURVE SMOOTH",
"525 602 OFFCURVE",
"470 680 OFFCURVE",
"342 680 CURVE SMOOTH",
"209 680 OFFCURVE",
"132 598 OFFCURVE",
"130 533 CURVE SMOOTH",
"130 517 OFFCURVE",
"136 495 OFFCURVE",
"151 491 CURVE",
"181 557 OFFCURVE",
"236 596 OFFCURVE",
"306 596 CURVE SMOOTH",
"396 596 OFFCURVE",
"420 536 OFFCURVE",
"420 430 CURVE SMOOTH",
"420 408 OFFCURVE",
"418 374 OFFCURVE",
"414 341 CURVE",
"400 342 OFFCURVE",
"365 345 OFFCURVE",
"345 345 CURVE SMOOTH",
"196 347 OFFCURVE",
"49 269 OFFCURVE",
"49 115 CURVE SMOOTH",
"49 12 OFFCURVE",
"109 -26 OFFCURVE",
"195 -26 CURVE SMOOTH"
);
},
{
closed = 1;
nodes = (
"182 38 OFFCURVE",
"157 64 OFFCURVE",
"157 121 CURVE SMOOTH",
"156 245 OFFCURVE",
"296 287 OFFCURVE",
"407 287 CURVE",
"388 199 OFFCURVE",
"325 38 OFFCURVE",
"224 38 CURVE SMOOTH"
);
}
);
width = 561;
}
);
note = uni018F;
unicode = 018F;
},
{
glyphname = T;
layers = (
{
anchors = (
{
name = bottom;
position = "{159, 0}";
},
{
name = center;
position = "{219, 366}";
},
{
name = top;
position = "{276, 660}";
}
);
background = {
paths = (
{
closed = 1;
nodes = (
"146 660 LINE SMOOTH",
"98 660 OFFCURVE",
"44 653 OFFCURVE",
"44 604 CURVE SMOOTH",
"44 588 OFFCURVE",
"50 570 OFFCURVE",
"58 559 CURVE",
"77 568 OFFCURVE",
"116 571 OFFCURVE",
"137 571 CURVE SMOOTH",
"201 571 LINE",
"109 106 LINE SMOOTH",
"106 91 OFFCURVE",
"103 67 OFFCURVE",
"103 45 CURVE SMOOTH",
"103 6 OFFCURVE",
"117 -20 OFFCURVE",
"163 -20 CURVE SMOOTH",
"188 -20 OFFCURVE",
"210 -13 OFFCURVE",
"231 4 CURVE",
"222 19 OFFCURVE",
"219 35 OFFCURVE",
"219 49 CURVE SMOOTH",
"219 63 OFFCURVE",
"222 84 OFFCURVE",
"224 95 CURVE SMOOTH",
"319 571 LINE",
"388 571 LINE SMOOTH",
"436 571 OFFCURVE",
"490 578 OFFCURVE",
"490 627 CURVE SMOOTH",
"490 643 OFFCURVE",
"484 661 OFFCURVE",
"476 672 CURVE",
"457 663 OFFCURVE",
"418 660 OFFCURVE",
"396 660 CURVE SMOOTH"
);
}
);
};
layerId = "B7BBAE14-F4F3-4898-8D83-DD158C3247C2";
paths = (
{
closed = 1;
nodes = (
"381 659 CURVE SMOOTH",
"326 659 OFFCURVE",
"250 660 OFFCURVE",
"146 660 CURVE SMOOTH",
"98 660 OFFCURVE",
"44 653 OFFCURVE",
"44 604 CURVE SMOOTH",
"44 588 OFFCURVE",
"50 570 OFFCURVE",
"58 559 CURVE",
"77 568 OFFCURVE",
"116 571 OFFCURVE",
"137 571 CURVE SMOOTH",
"201 571 LINE",
"109 106 LINE SMOOTH",
"106 91 OFFCURVE",
"103 67 OFFCURVE",
"103 45 CURVE SMOOTH",
"103 6 OFFCURVE",
"117 -20 OFFCURVE",
"163 -20 CURVE SMOOTH",
"188 -20 OFFCURVE",
"210 -13 OFFCURVE",
"231 4 CURVE",
"222 19 OFFCURVE",
"219 35 OFFCURVE",
"219 49 CURVE SMOOTH",
"219 63 OFFCURVE",
"222 84 OFFCURVE",
"224 95 CURVE SMOOTH",
"319 571 LINE",
"411 571 LINE SMOOTH",
"460 571 OFFCURVE",
"490 592 OFFCURVE",
"490 625 CURVE SMOOTH",
"490 636 OFFCURVE",
"487 649 OFFCURVE",
"480 662 CURVE",
"459 660 OFFCURVE",
"427 659 OFFCURVE"
);
}
);
width = 403;
},
{
anchors = (
{
name = bottom;
position = "{170, 0}";
},
{
name = center;
position = "{223, 366}";
},
{
name = top;
position = "{280, 660}";
}
);
background = {
paths = (
{
closed = 1;
nodes = (
"134 660 LINE SMOOTH",
"80 660 OFFCURVE",
"33 647 OFFCURVE",
"33 591 CURVE SMOOTH",
"33 578 OFFCURVE",
"37 559 OFFCURVE",
"42 548 CURVE",
"62 554 OFFCURVE",
"92 556 OFFCURVE",
"116 556 CURVE SMOOTH",
"181 556 LINE",
"108 195 LINE SMOOTH",
"96 135 OFFCURVE",
"91 91 OFFCURVE",
"91 64 CURVE SMOOTH",
"91 13 OFFCURVE",
"114 -20 OFFCURVE",
"173 -20 CURVE SMOOTH",
"205 -20 OFFCURVE",
"237 -11 OFFCURVE",
"264 9 CURVE",
"256 23 OFFCURVE",
"251 43 OFFCURVE",
"251 63 CURVE SMOOTH",
"251 81 OFFCURVE",
"255 108 OFFCURVE",
"258 127 CURVE",
"343 556 LINE",
"403 556 LINE SMOOTH",
"457 556 OFFCURVE",
"509 565 OFFCURVE",
"509 620 CURVE SMOOTH",
"509 638 OFFCURVE",
"504 659 OFFCURVE",
"495 671 CURVE",
"476 664 OFFCURVE",
"439 660 OFFCURVE",
"406 660 CURVE SMOOTH"
);
}
);
};
layerId = "7A350A25-044B-4D59-B0E9-6A59A980AC73";
paths = (
{
closed = 1;
nodes = (
"368 660 CURVE SMOOTH",
"316 660 OFFCURVE",
"244 660 OFFCURVE",
"134 660 CURVE SMOOTH",
"80 660 OFFCURVE",
"33 647 OFFCURVE",
"33 591 CURVE SMOOTH",
"33 578 OFFCURVE",
"37 559 OFFCURVE",
"42 548 CURVE",
"62 554 OFFCURVE",
"92 556 OFFCURVE",
"116 556 CURVE SMOOTH",
"181 556 LINE",
"108 195 LINE SMOOTH",
"96 135 OFFCURVE",
"91 91 OFFCURVE",
"91 64 CURVE SMOOTH",
"91 13 OFFCURVE",
"114 -20 OFFCURVE",
"173 -20 CURVE SMOOTH",
"205 -20 OFFCURVE",
"237 -11 OFFCURVE",
"264 9 CURVE",
"256 23 OFFCURVE",
"251 43 OFFCURVE",
"251 63 CURVE SMOOTH",
"251 81 OFFCURVE",
"255 108 OFFCURVE",
"258 127 CURVE",
"343 556 LINE",
"433 556 LINE SMOOTH",
"480 556 OFFCURVE",
"509 584 OFFCURVE",
"509 619 CURVE SMOOTH",
"509 633 OFFCURVE",
"505 648 OFFCURVE",
"495 663 CURVE",
"464 660 OFFCURVE",
"433 660 OFFCURVE"
);
}
);
width = 429;
},
{
anchors = (
{
name = bottom;
position = "{178, 0}";
},
{
name = center;
position = "{229, 366}";
},
{
name = top;
position = "{286, 660}";
}
);
background = {
paths = (
{
closed = 1;
nodes = (
"121 660 LINE SMOOTH",
"60 660 OFFCURVE",
"21 640 OFFCURVE",
"21 578 CURVE SMOOTH",
"21 568 OFFCURVE",
"22 548 OFFCURVE",
"25 536 CURVE",
"46 539 OFFCURVE",
"67 540 OFFCURVE",
"94 540 CURVE SMOOTH",
"159 540 LINE",
"106 283 LINE SMOOTH",
"84 178 OFFCURVE",
"77 115 OFFCURVE",
"77 82 CURVE SMOOTH",
"77 19 OFFCURVE",
"109 -20 OFFCURVE",
"182 -20 CURVE SMOOTH",
"220 -20 OFFCURVE",
"262 -9 OFFCURVE",
"295 14 CURVE",
"288 26 OFFCURVE",
"282 51 OFFCURVE",
"282 77 CURVE SMOOTH",
"282 99 OFFCURVE",
"286 131 OFFCURVE",
"291 159 CURVE SMOOTH",
"366 540 LINE",
"416 540 LINE SMOOTH",
"477 540 OFFCURVE",
"527 552 OFFCURVE",
"527 613 CURVE SMOOTH",
"527 632 OFFCURVE",
"522 657 OFFCURVE",
"512 670 CURVE",
"493 664 OFFCURVE",
"459 660 OFFCURVE",
"415 660 CURVE SMOOTH"
);
}
);
};
layerId = "1597CCFE-0C49-4087-BB13-985DDBBCAFFD";
paths = (
{
closed = 1;
nodes = (
"379 659 CURVE SMOOTH",
"317 659 OFFCURVE",
"235 660 OFFCURVE",
"121 660 CURVE SMOOTH",
"60 660 OFFCURVE",
"21 640 OFFCURVE",
"21 578 CURVE SMOOTH",
"21 568 OFFCURVE",
"22 548 OFFCURVE",
"25 536 CURVE",
"46 539 OFFCURVE",
"67 540 OFFCURVE",
"94 540 CURVE SMOOTH",
"159 540 LINE",
"106 283 LINE SMOOTH",
"84 178 OFFCURVE",
"77 115 OFFCURVE",
"77 82 CURVE SMOOTH",
"77 19 OFFCURVE",
"109 -20 OFFCURVE",
"182 -20 CURVE SMOOTH",
"220 -20 OFFCURVE",
"262 -9 OFFCURVE",
"295 14 CURVE",
"288 26 OFFCURVE",
"282 51 OFFCURVE",
"282 77 CURVE SMOOTH",
"282 99 OFFCURVE",
"286 131 OFFCURVE",
"291 159 CURVE SMOOTH",
"366 540 LINE",
"445 540 LINE SMOOTH",
"502 540 OFFCURVE",
"527 573 OFFCURVE",
"527 611 CURVE SMOOTH",
"527 628 OFFCURVE",
"522 647 OFFCURVE",
"512 663 CURVE",
"482 660 OFFCURVE",
"441 659 OFFCURVE"
);
}
);
width = 455;
},
{
anchors = (
{
name = bottom;
position = "{227, 0}";
},
{
name = center;
position = "{268, 366}";
},
{
name = top;
position = "{325, 660}";
}
);
background = {
paths = (
{
closed = 1;
nodes = (
"148 660 LINE SMOOTH",
"81 660 OFFCURVE",
"49 634 OFFCURVE",
"49 565 CURVE SMOOTH",
"49 558 OFFCURVE",
"48 537 OFFCURVE",
"48 525 CURVE",
"112 525 LINE",
"178 525 LINE",
"144 373 LINE SMOOTH",
"113 222 OFFCURVE",
"104 140 OFFCURVE",
"104 100 CURVE SMOOTH",
"104 25 OFFCURVE",
"145 -20 OFFCURVE",
"231 -20 CURVE SMOOTH",
"277 -20 OFFCURVE",
"329 -7 OFFCURVE",
"368 19 CURVE",
"362 29 OFFCURVE",
"354 59 OFFCURVE",
"354 91 CURVE SMOOTH",
"354 117 OFFCURVE",
"359 156 OFFCURVE",
"365 192 CURVE SMOOTH",
"430 525 LINE",
"471 525 LINE SMOOTH",
"539 525 OFFCURVE",
"587 539 OFFCURVE",
"587 606 CURVE SMOOTH",
"587 627 OFFCURVE",
"582 655 OFFCURVE",
"571 669 CURVE",
"552 664 OFFCURVE",
"521 660 OFFCURVE",
"464 660 CURVE SMOOTH"
);
}
);
};
layerId = "30A38917-B9D2-447A-AF98-EAADDBDD04CD";
paths = (
{
closed = 1;
nodes = (
"437 659 CURVE SMOOTH",
"368 659 OFFCURVE",
"274 660 OFFCURVE",
"148 660 CURVE SMOOTH",
"81 660 OFFCURVE",
"49 634 OFFCURVE",
"49 565 CURVE SMOOTH",
"49 558 OFFCURVE",
"48 537 OFFCURVE",
"48 525 CURVE",
"112 525 LINE",
"178 525 LINE",
"144 373 LINE SMOOTH",
"113 222 OFFCURVE",
"104 140 OFFCURVE",
"104 100 CURVE SMOOTH",
"104 25 OFFCURVE",
"145 -20 OFFCURVE",
"231 -20 CURVE SMOOTH",
"277 -20 OFFCURVE",
"329 -7 OFFCURVE",
"368 19 CURVE",
"362 29 OFFCURVE",
"354 59 OFFCURVE",
"354 91 CURVE SMOOTH",
"354 117 OFFCURVE",
"359 156 OFFCURVE",
"365 192 CURVE SMOOTH",
"430 525 LINE",
"491 525 LINE SMOOTH",
"558 525 OFFCURVE",
"587 561 OFFCURVE",
"587 604 CURVE SMOOTH",
"587 623 OFFCURVE",
"581 644 OFFCURVE",
"571 663 CURVE",
"541 660 OFFCURVE",
"498 659 OFFCURVE"
);
}
);
width = 520;
},
{
anchors = (
{
name = bottom;
position = "{159, 0}";
},
{
name = center;
position = "{222, 366}";
},
{
name = top;
position = "{279, 660}";
}
);
layerId = "1252CFB8-7EB2-4C2F-9C11-14383990C0AA";
paths = (
{
closed = 1;
nodes = (
"389 659 CURVE SMOOTH",
"334 659 OFFCURVE",
"258 660 OFFCURVE",
"157 660 CURVE SMOOTH",
"112 660 OFFCURVE",
"54 656 OFFCURVE",
"54 610 CURVE SMOOTH",
"54 593 OFFCURVE",
"61 575 OFFCURVE",
"71 564 CURVE",
"89 575 OFFCURVE",
"132 578 OFFCURVE",
"152 578 CURVE SMOOTH",
"216 578 LINE",
"115 65 LINE SMOOTH",
"116 71 OFFCURVE",
"114 56 OFFCURVE",
"114 36 CURVE SMOOTH",
"114 3 OFFCURVE",
"124 -20 OFFCURVE",
"163 -20 CURVE SMOOTH",
"185 -20 OFFCURVE",
"203 -14 OFFCURVE",
"221 2 CURVE",
"211 17 OFFCURVE",
"209 31 OFFCURVE",
"209 42 CURVE SMOOTH",
"209 55 OFFCURVE",
"212 73 OFFCURVE",
"213 80 CURVE SMOOTH",
"313 578 LINE",
"407 578 LINE SMOOTH",
"455 578 OFFCURVE",
"486 596 OFFCURVE",
"486 628 CURVE SMOOTH",
"486 638 OFFCURVE",
"484 649 OFFCURVE",
"478 662 CURVE",
"460 660 OFFCURVE",
"429 659 OFFCURVE"
);
}
);
width = 401;
}
);
leftKerningGroup = T;
note = T;
rightKerningGroup = T;
unicode = 0054;
},
{
glyphname = U;
layers = (
{
anchors = (
{
name = bottom;
position = "{218, 0}";
},
{
name = ogonek;
position = "{316, 0}";
},
{
name = top;
position = "{367, 660}";
},
{
name = topright;
position = "{406, 662}";
}
);
layerId = "B7BBAE14-F4F3-4898-8D83-DD158C3247C2";
paths = (
{
closed = 1;
nodes = (
"570 660 LINE",
"466 660 LINE",
"396 261 LINE SMOOTH",
"378 157 OFFCURVE",
"349 56 OFFCURVE",
"249 56 CURVE SMOOTH",
"193 56 OFFCURVE",
"161 88 OFFCURVE",
"161 143 CURVE SMOOTH",
"161 170 OFFCURVE",
"169 214 OFFCURVE",
"174 241 CURVE SMOOTH",
"253 660 LINE",
"135 660 LINE",
"56 252 LINE SMOOTH",
"49 217 OFFCURVE",
"42 172 OFFCURVE",
"42 138 CURVE SMOOTH",
"42 34 OFFCURVE",
"107 -20 OFFCURVE",
"226 -20 CURVE SMOOTH",
"385 -20 OFFCURVE",
"459 79 OFFCURVE",
"495 270 CURVE SMOOTH"
);
}
);
width = 570;
},
{
anchors = (
{
name = bottom;
position = "{230, 0}";
},
{
name = ogonek;
position = "{339, 0}";
},
{
name = top;
position = "{385, 660}";
},
{
name = topright;
position = "{420, 662}";
}
);
layerId = "7A350A25-044B-4D59-B0E9-6A59A980AC73";
paths = (
{
closed = 1;
nodes = (
"613 660 LINE",
"485 660 LINE",
"411 253 LINE SMOOTH",
"392 151 OFFCURVE",
"367 64 OFFCURVE",
"279 64 CURVE SMOOTH",
"230 64 OFFCURVE",
"204 92 OFFCURVE",
"204 143 CURVE SMOOTH",
"204 170 OFFCURVE",
"211 214 OFFCURVE",
"217 243 CURVE SMOOTH",
"295 660 LINE",
"126 660 LINE",
"48 255 LINE SMOOTH",
"41 220 OFFCURVE",
"34 172 OFFCURVE",
"34 140 CURVE SMOOTH",
"34 28 OFFCURVE",
"120 -20 OFFCURVE",
"244 -20 CURVE SMOOTH",
"418 -20 OFFCURVE",
"501 74 OFFCURVE",
"537 263 CURVE SMOOTH"
);
}
);
width = 608;
},
{
anchors = (
{
name = bottom;
position = "{246, 0}";
},
{
name = ogonek;
position = "{361, 0}";
},
{
name = top;
position = "{405, 660}";
},
{
name = topright;
position = "{440, 661}";
}
);
layerId = "1597CCFE-0C49-4087-BB13-985DDBBCAFFD";
paths = (
{
closed = 1;
nodes = (
"655 660 LINE",
"504 660 LINE",
"425 244 LINE SMOOTH",
"406 145 OFFCURVE",
"385 72 OFFCURVE",
"309 72 CURVE SMOOTH",
"267 72 OFFCURVE",
"247 95 OFFCURVE",
"247 143 CURVE SMOOTH",
"247 169 OFFCURVE",
"253 213 OFFCURVE",
"259 244 CURVE SMOOTH",
"337 660 LINE",
"117 660 LINE",
"39 257 LINE SMOOTH",
"32 222 OFFCURVE",
"26 171 OFFCURVE",
"26 142 CURVE SMOOTH",
"26 22 OFFCURVE",
"132 -20 OFFCURVE",
"261 -20 CURVE SMOOTH",
"450 -20 OFFCURVE",
"543 69 OFFCURVE",
"578 255 CURVE SMOOTH"
);
}
);
width = 646;
},
{
anchors = (
{
name = bottom;
position = "{273, 0}";
},
{
name = ogonek;
position = "{395, 0}";
},
{
name = top;
position = "{428, 660}";
},
{
name = topright;
position = "{459, 660}";
}
);
layerId = "30A38917-B9D2-447A-AF98-EAADDBDD04CD";
paths = (
{
closed = 1;
nodes = (
"699 660 LINE",
"525 660 LINE",
"441 236 LINE SMOOTH",
"422 139 OFFCURVE",
"405 80 OFFCURVE",
"340 80 CURVE SMOOTH",
"301 80 OFFCURVE",
"288 99 OFFCURVE",
"288 137 CURVE SMOOTH",
"288 164 OFFCURVE",
"295 200 OFFCURVE",
"303 245 CURVE SMOOTH",
"380 660 LINE",
"108 660 LINE",
"31 259 LINE SMOOTH",
"24 224 OFFCURVE",
"18 171 OFFCURVE",
"18 144 CURVE SMOOTH",
"18 16 OFFCURVE",
"144 -20 OFFCURVE",
"280 -20 CURVE SMOOTH",
"484 -20 OFFCURVE",
"586 64 OFFCURVE",
"621 248 CURVE SMOOTH"
);
}
);
width = 647;
},
{
anchors = (
{
name = bottom;
position = "{217, 0}";
},
{
name = ogonek;
position = "{310, 0}";
},
{
name = top;
position = "{363, 660}";
},
{
name = topright;
position = "{404, 662}";
}
);
layerId = "1252CFB8-7EB2-4C2F-9C11-14383990C0AA";
paths = (
{
closed = 1;
nodes = (
"555 660 LINE",
"462 660 LINE",
"394 265 LINE SMOOTH",
"376 160 OFFCURVE",
"346 52 OFFCURVE",
"240 52 CURVE SMOOTH",
"181 52 OFFCURVE",
"146 86 OFFCURVE",
"146 143 CURVE SMOOTH",
"146 170 OFFCURVE",
"154 214 OFFCURVE",
"159 240 CURVE SMOOTH",
"238 660 LINE",
"144 660 LINE",
"65 251 LINE SMOOTH",
"58 216 OFFCURVE",
"51 172 OFFCURVE",
"51 137 CURVE SMOOTH",
"51 37 OFFCURVE",
"106 -20 OFFCURVE",
"223 -20 CURVE SMOOTH",
"375 -20 OFFCURVE",
"444 81 OFFCURVE",
"481 273 CURVE SMOOTH"
);
}
);
width = 562;
}
);
note = U;
unicode = 0055;
},
{
glyphname = Uhorntilde;
layers = (
{
layerId = "B7BBAE14-F4F3-4898-8D83-DD158C3247C2";
paths = (
{
closed = 1;
nodes = (
"42 34 OFFCURVE",
"107 -20 OFFCURVE",
"226 -20 CURVE SMOOTH",
"385 -20 OFFCURVE",
"459 79 OFFCURVE",
"495 270 CURVE SMOOTH",
"562 620 LINE",
"629 635 OFFCURVE",
"674 693 OFFCURVE",
"674 749 CURVE SMOOTH",
"674 777 OFFCURVE",
"657 798 OFFCURVE",
"619 798 CURVE SMOOTH",
"593 798 OFFCURVE",
"574 785 OFFCURVE",
"566 771 CURVE",
"577 758 OFFCURVE",
"582 742 OFFCURVE",
"582 726 CURVE SMOOTH",
"582 683 OFFCURVE",
"549 661 OFFCURVE",
"510 661 CURVE SMOOTH",
"496 661 OFFCURVE",
"481 664 OFFCURVE",
"467 670 CURVE",
"396 261 LINE SMOOTH",
"378 157 OFFCURVE",
"349 56 OFFCURVE",
"249 56 CURVE SMOOTH",
"193 56 OFFCURVE",
"161 88 OFFCURVE",
"161 143 CURVE SMOOTH",
"161 170 OFFCURVE",
"169 214 OFFCURVE",
"174 241 CURVE SMOOTH",
"253 660 LINE",
"135 660 LINE",
"56 252 LINE SMOOTH",
"49 217 OFFCURVE",
"42 172 OFFCURVE",
"42 138 CURVE SMOOTH"
);
},
{
closed = 1;
nodes = (
"224 759 OFFCURVE",
"228 745 OFFCURVE",
"241 726 CURVE",
"251 734 OFFCURVE",
"271 741 OFFCURVE",
"297 741 CURVE SMOOTH",
"337 741 OFFCURVE",
"423 725 OFFCURVE",
"463 725 CURVE SMOOTH",
"509 725 OFFCURVE",
"540 746 OFFCURVE",
"540 785 CURVE SMOOTH",
"540 798 OFFCURVE",
"536 812 OFFCURVE",
"524 826 CURVE",
"515 814 OFFCURVE",
"497 810 OFFCURVE",
"474 810 CURVE SMOOTH",
"430 810 OFFCURVE",
"350 826 OFFCURVE",
"304 826 CURVE SMOOTH",
"253 826 OFFCURVE",
"224 806 OFFCURVE",
"224 772 CURVE SMOOTH"
);
}
);
width = 570;
},
{
layerId = "7A350A25-044B-4D59-B0E9-6A59A980AC73";
paths = (
{
closed = 1;
nodes = (
"34 28 OFFCURVE",
"120 -20 OFFCURVE",
"244 -20 CURVE SMOOTH",
"418 -20 OFFCURVE",
"501 74 OFFCURVE",
"537 263 CURVE SMOOTH",
"605 618 LINE",
"671 638 OFFCURVE",
"711 692 OFFCURVE",
"711 751 CURVE SMOOTH",
"711 782 OFFCURVE",
"692 805 OFFCURVE",
"651 805 CURVE SMOOTH",
"625 805 OFFCURVE",
"604 791 OFFCURVE",
"593 774 CURVE",
"605 764 OFFCURVE",
"610 748 OFFCURVE",
"610 732 CURVE SMOOTH",
"610 684 OFFCURVE",
"574 660 OFFCURVE",
"532 660 CURVE SMOOTH",
"517 660 OFFCURVE",
"501 664 OFFCURVE",
"486 670 CURVE",
"411 253 LINE SMOOTH",
"392 151 OFFCURVE",
"367 64 OFFCURVE",
"279 64 CURVE SMOOTH",
"230 64 OFFCURVE",
"204 92 OFFCURVE",
"204 143 CURVE SMOOTH",
"204 170 OFFCURVE",
"211 214 OFFCURVE",
"217 243 CURVE SMOOTH",
"295 660 LINE",
"126 660 LINE",
"48 255 LINE SMOOTH",
"41 220 OFFCURVE",
"34 172 OFFCURVE",
"34 140 CURVE SMOOTH"
);
},
{
closed = 1;
nodes = (
"228 761 OFFCURVE",
"233 744 OFFCURVE",
"247 725 CURVE",
"258 733 OFFCURVE",
"281 741 OFFCURVE",
"308 741 CURVE SMOOTH",
"348 741 OFFCURVE",
"439 724 OFFCURVE",
"483 724 CURVE SMOOTH",
"536 724 OFFCURVE",
"570 747 OFFCURVE",
"570 791 CURVE SMOOTH",
"570 806 OFFCURVE",
"565 821 OFFCURVE",
"552 837 CURVE",
"542 825 OFFCURVE",
"521 820 OFFCURVE",
"497 820 CURVE SMOOTH",
"452 820 OFFCURVE",
"368 837 OFFCURVE",
"318 837 CURVE SMOOTH",
"260 837 OFFCURVE",
"228 815 OFFCURVE",
"228 776 CURVE SMOOTH"
);
}
);
width = 608;
},
{
layerId = "1597CCFE-0C49-4087-BB13-985DDBBCAFFD";
paths = (
{
closed = 1;
nodes = (
"26 22 OFFCURVE",
"132 -20 OFFCURVE",
"261 -20 CURVE SMOOTH",
"450 -20 OFFCURVE",
"543 69 OFFCURVE",
"578 255 CURVE SMOOTH",
"645 610 LINE",
"712 631 OFFCURVE",
"754 688 OFFCURVE",
"754 749 CURVE SMOOTH",
"754 788 OFFCURVE",
"729 806 OFFCURVE",
"691 806 CURVE SMOOTH",
"665 806 OFFCURVE",
"637 795 OFFCURVE",
"618 773 CURVE",
"628 763 OFFCURVE",
"632 749 OFFCURVE",
"632 733 CURVE SMOOTH",
"632 683 OFFCURVE",
"599 661 OFFCURVE",
"555 661 CURVE SMOOTH",
"540 661 OFFCURVE",
"523 664 OFFCURVE",
"506 669 CURVE",
"425 244 LINE SMOOTH",
"406 145 OFFCURVE",
"385 72 OFFCURVE",
"309 72 CURVE SMOOTH",
"267 72 OFFCURVE",
"247 95 OFFCURVE",
"247 143 CURVE SMOOTH",
"247 169 OFFCURVE",
"253 213 OFFCURVE",
"259 244 CURVE SMOOTH",
"337 660 LINE",
"117 660 LINE",
"39 257 LINE SMOOTH",
"32 222 OFFCURVE",
"26 171 OFFCURVE",
"26 142 CURVE SMOOTH"
);
},
{
closed = 1;
nodes = (
"243 762 OFFCURVE",
"249 743 OFFCURVE",
"263 723 CURVE",
"275 731 OFFCURVE",
"302 740 OFFCURVE",
"330 740 CURVE SMOOTH",
"370 740 OFFCURVE",
"445 722 OFFCURVE",
"494 722 CURVE SMOOTH",
"553 722 OFFCURVE",
"590 748 OFFCURVE",
"590 796 CURVE SMOOTH",
"590 813 OFFCURVE",
"585 830 OFFCURVE",
"571 847 CURVE",
"559 835 OFFCURVE",
"536 830 OFFCURVE",
"511 830 CURVE SMOOTH",
"465 830 OFFCURVE",
"397 847 OFFCURVE",
"342 847 CURVE SMOOTH",
"278 847 OFFCURVE",
"243 823 OFFCURVE",
"243 780 CURVE SMOOTH"
);
}
);
width = 646;
},
{
layerId = "30A38917-B9D2-447A-AF98-EAADDBDD04CD";
paths = (
{
closed = 1;
nodes = (
"579 845 OFFCURVE",
"553 840 OFFCURVE",
"527 840 CURVE SMOOTH",
"480 840 OFFCURVE",
"417 857 OFFCURVE",
"357 857 CURVE SMOOTH",
"287 857 OFFCURVE",
"249 831 OFFCURVE",
"249 784 CURVE SMOOTH",
"249 763 OFFCURVE",
"256 742 OFFCURVE",
"271 722 CURVE",
"283 730 OFFCURVE",
"314 740 OFFCURVE",
"343 740 CURVE SMOOTH",
"383 740 OFFCURVE",
"454 721 OFFCURVE",
"507 721 CURVE SMOOTH",
"573 721 OFFCURVE",
"613 749 OFFCURVE",
"613 801 CURVE SMOOTH",
"613 820 OFFCURVE",
"607 839 OFFCURVE",
"592 857 CURVE"
);
},
{
closed = 1;
nodes = (
"18 16 OFFCURVE",
"144 -20 OFFCURVE",
"280 -20 CURVE SMOOTH",
"484 -20 OFFCURVE",
"586 64 OFFCURVE",
"621 248 CURVE SMOOTH",
"689 607 LINE",
"751 630 OFFCURVE",
"789 682 OFFCURVE",
"789 745 CURVE SMOOTH",
"789 780 OFFCURVE",
"768 808 OFFCURVE",
"718 808 CURVE SMOOTH",
"692 808 OFFCURVE",
"662 797 OFFCURVE",
"643 778 CURVE",
"649 769 OFFCURVE",
"653 756 OFFCURVE",
"653 742 CURVE SMOOTH",
"653 687 OFFCURVE",
"619 661 OFFCURVE",
"572 661 CURVE SMOOTH",
"558 661 OFFCURVE",
"542 663 OFFCURVE",
"526 668 CURVE",
"441 236 LINE SMOOTH",
"422 139 OFFCURVE",
"405 80 OFFCURVE",
"340 80 CURVE SMOOTH",
"301 80 OFFCURVE",
"288 99 OFFCURVE",
"288 137 CURVE SMOOTH",
"288 164 OFFCURVE",
"295 200 OFFCURVE",
"303 245 CURVE SMOOTH",
"380 660 LINE",
"108 660 LINE",
"31 259 LINE SMOOTH",
"24 224 OFFCURVE",
"18 171 OFFCURVE",
"18 144 CURVE SMOOTH"
);
}
);
width = 647;
},
{
layerId = "1252CFB8-7EB2-4C2F-9C11-14383990C0AA";
paths = (
{
closed = 1;
nodes = (
"46 37 OFFCURVE",
"101 -20 OFFCURVE",
"218 -20 CURVE SMOOTH",
"370 -20 OFFCURVE",
"439 81 OFFCURVE",
"476 273 CURVE SMOOTH",
"542 622 LINE",
"610 635 OFFCURVE",
"656 694 OFFCURVE",
"656 749 CURVE SMOOTH",
"656 775 OFFCURVE",
"640 795 OFFCURVE",
"603 795 CURVE SMOOTH",
"577 795 OFFCURVE",
"560 782 OFFCURVE",
"554 770 CURVE",
"565 756 OFFCURVE",
"570 740 OFFCURVE",
"570 724 CURVE SMOOTH",
"570 683 OFFCURVE",
"537 661 OFFCURVE",
"500 661 CURVE SMOOTH",
"486 661 OFFCURVE",
"471 664 OFFCURVE",
"458 670 CURVE",
"389 265 LINE SMOOTH",
"371 160 OFFCURVE",
"341 52 OFFCURVE",
"235 52 CURVE SMOOTH",
"176 52 OFFCURVE",
"141 86 OFFCURVE",
"141 143 CURVE SMOOTH",
"141 170 OFFCURVE",
"149 214 OFFCURVE",
"154 240 CURVE SMOOTH",
"233 660 LINE",
"139 660 LINE",
"60 251 LINE SMOOTH",
"53 216 OFFCURVE",
"46 172 OFFCURVE",
"46 137 CURVE SMOOTH"
);
},
{
closed = 1;
nodes = (
"221 758 OFFCURVE",
"224 745 OFFCURVE",
"237 727 CURVE",
"247 735 OFFCURVE",
"265 741 OFFCURVE",
"291 741 CURVE SMOOTH",
"331 741 OFFCURVE",
"417 726 OFFCURVE",
"455 726 CURVE SMOOTH",
"498 726 OFFCURVE",
"527 746 OFFCURVE",
"527 782 CURVE SMOOTH",
"527 794 OFFCURVE",
"524 808 OFFCURVE",
"512 821 CURVE",
"504 809 OFFCURVE",
"487 805 OFFCURVE",
"464 805 CURVE SMOOTH",
"421 805 OFFCURVE",
"340 821 OFFCURVE",
"296 821 CURVE SMOOTH",
"248 821 OFFCURVE",
"221 802 OFFCURVE",
"221 770 CURVE SMOOTH"
);
}
);
width = 552;
}
);
unicode = 1EEE;
},
{
glyphname = V;
layers = (
{
layerId = "B7BBAE14-F4F3-4898-8D83-DD158C3247C2";
paths = (
{
closed = 1;
nodes = (
"104 0 LINE",
"261 0 LINE",
"564 660 LINE",
"449 660 LINE",
"211 80 LINE",
"182 565 LINE SMOOTH",
"178 626 OFFCURVE",
"160 679 OFFCURVE",
"103 679 CURVE SMOOTH",
"69 679 OFFCURVE",
"40 661 OFFCURVE",
"32 629 CURVE",
"60 610 OFFCURVE",
"69 573 OFFCURVE",
"71 536 CURVE SMOOTH"
);
}
);
width = 489;
},
{
layerId = "7A350A25-044B-4D59-B0E9-6A59A980AC73";
paths = (
{
closed = 1;
nodes = (
"97 0 LINE",
"292 0 LINE",
"599 660 LINE",
"480 660 LINE",
"242 102 LINE",
"227 518 LINE SMOOTH",
"225 610 OFFCURVE",
"205 680 OFFCURVE",
"115 680 CURVE SMOOTH",
"69 680 OFFCURVE",
"35 661 OFFCURVE",
"20 625 CURVE",
"49 603 OFFCURVE",
"62 563 OFFCURVE",
"66 509 CURVE SMOOTH"
);
}
);
width = 515;
},
{
layerId = "1597CCFE-0C49-4087-BB13-985DDBBCAFFD";
paths = (
{
closed = 1;
nodes = (
"89 0 LINE",
"322 0 LINE",
"633 660 LINE",
"510 660 LINE",
"271 123 LINE",
"271 471 LINE SMOOTH",
"271 594 OFFCURVE",
"249 680 OFFCURVE",
"126 680 CURVE SMOOTH",
"67 680 OFFCURVE",
"28 660 OFFCURVE",
"7 620 CURVE",
"37 596 OFFCURVE",
"54 552 OFFCURVE",
"59 481 CURVE SMOOTH"
);
}
);
width = 539;
},
{
layerId = "30A38917-B9D2-447A-AF98-EAADDBDD04CD";
paths = (
{
closed = 1;
nodes = (
"127 0 LINE",
"399 0 LINE",
"714 660 LINE",
"587 660 LINE",
"348 144 LINE",
"362 423 LINE SMOOTH",
"370 579 OFFCURVE",
"340 680 OFFCURVE",
"185 680 CURVE SMOOTH",
"112 680 OFFCURVE",
"68 660 OFFCURVE",
"40 616 CURVE",
"71 589 OFFCURVE",
"92 542 OFFCURVE",
"99 452 CURVE SMOOTH"
);
}
);
width = 611;
},
{
layerId = "1252CFB8-7EB2-4C2F-9C11-14383990C0AA";
paths = (
{
closed = 1;
nodes = (
"112 0 LINE",
"252 0 LINE",
"553 660 LINE",
"440 660 LINE",
"202 70 LINE",
"166 587 LINE SMOOTH",
"161 633 OFFCURVE",
"144 679 OFFCURVE",
"103 679 CURVE SMOOTH",
"74 679 OFFCURVE",
"48 661 OFFCURVE",
"43 631 CURVE",
"70 613 OFFCURVE",
"77 578 OFFCURVE",
"79 549 CURVE SMOOTH"
);
}
);
width = 487;
}
);
leftKerningGroup = V;
note = V;
rightKerningGroup = V;
unicode = 0056;
},
{
glyphname = W;
layers = (
{
anchors = (
{
name = top;
position = "{469, 660}";
}
);
layerId = "B7BBAE14-F4F3-4898-8D83-DD158C3247C2";
paths = (
{
closed = 1;
nodes = (
"104 0 LINE",
"261 0 LINE",
"421 413 LINE",
"438 0 LINE",
"594 0 LINE",
"880 660 LINE",
"765 660 LINE",
"544 80 LINE",
"510 660 LINE",
"431 660 LINE",
"211 80 LINE",
"182 565 LINE SMOOTH",
"178 626 OFFCURVE",
"160 679 OFFCURVE",
"103 679 CURVE SMOOTH",
"69 679 OFFCURVE",
"40 661 OFFCURVE",
"32 629 CURVE",
"60 610 OFFCURVE",
"69 573 OFFCURVE",
"71 536 CURVE SMOOTH"
);
}
);
width = 804;
},
{
anchors = (
{
name = top;
position = "{509, 660}";
}
);
layerId = "7A350A25-044B-4D59-B0E9-6A59A980AC73";
paths = (
{
closed = 1;
nodes = (
"97 0 LINE",
"292 0 LINE",
"442 365 LINE",
"460 0 LINE",
"645 0 LINE",
"940 660 LINE",
"821 660 LINE",
"595 102 LINE",
"562 660 LINE",
"463 660 LINE",
"242 102 LINE",
"227 518 LINE SMOOTH",
"225 610 OFFCURVE",
"205 680 OFFCURVE",
"115 680 CURVE SMOOTH",
"69 680 OFFCURVE",
"35 661 OFFCURVE",
"20 625 CURVE",
"49 603 OFFCURVE",
"62 563 OFFCURVE",
"66 509 CURVE SMOOTH"
);
}
);
width = 855;
},
{
anchors = (
{
name = top;
position = "{549, 660}";
}
);
layerId = "1597CCFE-0C49-4087-BB13-985DDBBCAFFD";
paths = (
{
closed = 1;
nodes = (
"89 0 LINE",
"322 0 LINE",
"461 316 LINE",
"481 0 LINE",
"695 0 LINE",
"998 660 LINE",
"875 660 LINE",
"644 123 LINE",
"613 660 LINE",
"494 660 LINE",
"271 123 LINE",
"271 471 LINE SMOOTH",
"271 594 OFFCURVE",
"249 680 OFFCURVE",
"126 680 CURVE SMOOTH",
"67 680 OFFCURVE",
"28 660 OFFCURVE",
"7 620 CURVE",
"37 596 OFFCURVE",
"54 552 OFFCURVE",
"59 481 CURVE SMOOTH"
);
}
);
width = 905;
},
{
anchors = (
{
name = top;
position = "{609, 660}";
}
);
layerId = "30A38917-B9D2-447A-AF98-EAADDBDD04CD";
paths = (
{
closed = 1;
nodes = (
"127 0 LINE",
"399 0 LINE",
"528 267 LINE",
"549 0 LINE",
"792 0 LINE",
"1105 660 LINE",
"978 660 LINE",
"740 144 LINE",
"711 660 LINE",
"572 660 LINE",
"348 144 LINE",
"362 423 LINE SMOOTH",
"370 579 OFFCURVE",
"340 680 OFFCURVE",
"185 680 CURVE SMOOTH",
"112 680 OFFCURVE",
"68 660 OFFCURVE",
"40 616 CURVE",
"71 589 OFFCURVE",
"92 542 OFFCURVE",
"99 452 CURVE SMOOTH"
);
}
);
width = 1002;
},
{
anchors = (
{
name = top;
position = "{455, 660}";
}
);
layerId = "1252CFB8-7EB2-4C2F-9C11-14383990C0AA";
paths = (
{
closed = 1;
nodes = (
"112 0 LINE",
"252 0 LINE",
"416 435 LINE",
"433 0 LINE",
"575 0 LINE",
"857 660 LINE",
"744 660 LINE",
"526 70 LINE",
"491 660 LINE",
"421 660 LINE",
"202 70 LINE",
"166 587 LINE SMOOTH",
"161 633 OFFCURVE",
"144 679 OFFCURVE",
"103 679 CURVE SMOOTH",
"74 679 OFFCURVE",
"48 661 OFFCURVE",
"43 631 CURVE",
"70 613 OFFCURVE",
"77 578 OFFCURVE",
"79 549 CURVE SMOOTH"
);
}
);
width = 790;
}
);
leftKerningGroup = V;
note = W;
rightKerningGroup = V;
unicode = 0057;
},
{
glyphname = X;
layers = (
{
layerId = "B7BBAE14-F4F3-4898-8D83-DD158C3247C2";
paths = (
{
closed = 1;
nodes = (
"192 341 LINE",
"-52 0 LINE",
"63 0 LINE",
"227 248 LINE",
"289 82 LINE SMOOTH",
"309 29 OFFCURVE",
"332 -20 OFFCURVE",
"391 -20 CURVE SMOOTH",
"429 -20 OFFCURVE",
"459 0 OFFCURVE",
"471 33 CURVE",
"442 40 OFFCURVE",
"415 87 OFFCURVE",
"402 121 CURVE SMOOTH",
"324 330 LINE",
"573 660 LINE",
"458 660 LINE",
"288 423 LINE",
"232 577 LINE SMOOTH",
"212 630 OFFCURVE",
"189 679 OFFCURVE",
"130 679 CURVE SMOOTH",
"92 679 OFFCURVE",
"62 659 OFFCURVE",
"51 626 CURVE",
"80 619 OFFCURVE",
"106 572 OFFCURVE",
"119 538 CURVE SMOOTH"
);
}
);
width = 521;
},
{
layerId = "7A350A25-044B-4D59-B0E9-6A59A980AC73";
paths = (
{
closed = 1;
nodes = (
"182 331 LINE",
"-60 0 LINE",
"64 0 LINE",
"220 227 LINE",
"267 101 LINE SMOOTH",
"292 33 OFFCURVE",
"322 -20 OFFCURVE",
"395 -20 CURVE SMOOTH",
"441 -20 OFFCURVE",
"485 1 OFFCURVE",
"501 43 CURVE",
"472 49 OFFCURVE",
"441 95 OFFCURVE",
"425 139 CURVE SMOOTH",
"354 332 LINE",
"600 660 LINE",
"476 660 LINE",
"316 436 LINE",
"266 573 LINE SMOOTH",
"242 640 OFFCURVE",
"215 679 OFFCURVE",
"148 679 CURVE SMOOTH",
"97 679 OFFCURVE",
"60 658 OFFCURVE",
"39 625 CURVE",
"70 612 OFFCURVE",
"92 575 OFFCURVE",
"109 529 CURVE SMOOTH"
);
}
);
width = 538;
},
{
layerId = "1597CCFE-0C49-4087-BB13-985DDBBCAFFD";
paths = (
{
closed = 1;
nodes = (
"170 321 LINE",
"-69 0 LINE",
"63 0 LINE",
"212 206 LINE",
"243 120 LINE SMOOTH",
"273 37 OFFCURVE",
"310 -20 OFFCURVE",
"398 -20 CURVE SMOOTH",
"452 -20 OFFCURVE",
"509 2 OFFCURVE",
"530 52 CURVE",
"501 58 OFFCURVE",
"464 103 OFFCURVE",
"445 156 CURVE SMOOTH",
"382 334 LINE",
"624 660 LINE",
"493 660 LINE",
"341 449 LINE",
"299 568 LINE SMOOTH",
"271 649 OFFCURVE",
"238 679 OFFCURVE",
"164 679 CURVE SMOOTH",
"100 679 OFFCURVE",
"56 657 OFFCURVE",
"25 623 CURVE",
"58 605 OFFCURVE",
"77 578 OFFCURVE",
"98 520 CURVE SMOOTH"
);
}
);
width = 554;
},
{
layerId = "30A38917-B9D2-447A-AF98-EAADDBDD04CD";
paths = (
{
closed = 1;
nodes = (
"188 311 LINE",
"-49 0 LINE",
"91 0 LINE",
"233 185 LINE",
"249 139 LINE SMOOTH",
"283 41 OFFCURVE",
"328 -20 OFFCURVE",
"430 -20 CURVE SMOOTH",
"492 -20 OFFCURVE",
"563 3 OFFCURVE",
"589 61 CURVE",
"560 67 OFFCURVE",
"518 111 OFFCURVE",
"496 173 CURVE SMOOTH",
"441 336 LINE",
"679 660 LINE",
"539 660 LINE",
"397 462 LINE",
"362 564 LINE SMOOTH",
"330 658 OFFCURVE",
"292 679 OFFCURVE",
"209 679 CURVE SMOOTH",
"132 679 OFFCURVE",
"82 656 OFFCURVE",
"41 622 CURVE",
"76 598 OFFCURVE",
"91 581 OFFCURVE",
"116 511 CURVE SMOOTH"
);
}
);
width = 599;
},
{
layerId = "1252CFB8-7EB2-4C2F-9C11-14383990C0AA";
paths = (
{
closed = 1;
nodes = (
"202 346 LINE",
"-43 0 LINE",
"68 0 LINE",
"235 258 LINE",
"304 73 LINE SMOOTH",
"322 27 OFFCURVE",
"342 -20 OFFCURVE",
"394 -20 CURVE SMOOTH",
"429 -20 OFFCURVE",
"452 0 OFFCURVE",
"462 28 CURVE",
"433 36 OFFCURVE",
"408 83 OFFCURVE",
"397 113 CURVE SMOOTH",
"315 329 LINE",
"566 660 LINE",
"455 660 LINE",
"280 417 LINE",
"221 579 LINE SMOOTH",
"203 625 OFFCURVE",
"182 679 OFFCURVE",
"127 679 CURVE SMOOTH",
"95 679 OFFCURVE",
"68 659 OFFCURVE",
"62 627 CURVE",
"90 622 OFFCURVE",
"118 571 OFFCURVE",
"129 542 CURVE SMOOTH"
);
}
);
width = 523;
}
);
note = X;
rightKerningGroup = X;
unicode = 0058;
},
{
glyphname = Y;
layers = (
{
anchors = (
{
name = bottom;
position = "{118, 0}";
},
{
name = top;
position = "{259, 660}";
}
);
layerId = "B7BBAE14-F4F3-4898-8D83-DD158C3247C2";
paths = (
{
closed = 1;
nodes = (
"196 462 LINE SMOOTH",
"163 619 OFFCURVE",
"140 666 OFFCURVE",
"73 666 CURVE SMOOTH",
"34 666 OFFCURVE",
"4 648 OFFCURVE",
"-5 612 CURVE",
"36 593 OFFCURVE",
"85 502 OFFCURVE",
"129 321 CURVE",
"65 0 LINE",
"185 0 LINE",
"244 308 LINE",
"313 455 OFFCURVE",
"400 567 OFFCURVE",
"487 623 CURVE",
"480 652 OFFCURVE",
"457 666 OFFCURVE",
"426 666 CURVE SMOOTH",
"356 666 OFFCURVE",
"294 595 OFFCURVE",
"209 399 CURVE"
);
}
);
width = 375;
},
{
anchors = (
{
name = bottom;
position = "{157, 0}";
},
{
name = top;
position = "{299, 660}";
}
);
layerId = "7A350A25-044B-4D59-B0E9-6A59A980AC73";
paths = (
{
closed = 1;
nodes = (
"255 440 LINE SMOOTH",
"238 610 OFFCURVE",
"204 673 OFFCURVE",
"114 673 CURVE SMOOTH",
"65 673 OFFCURVE",
"28 653 OFFCURVE",
"9 618 CURVE",
"64 589 OFFCURVE",
"105 511 OFFCURVE",
"142 308 CURVE",
"81 0 LINE",
"249 0 LINE",
"304 282 LINE",
"371 447 OFFCURVE",
"473 574 OFFCURVE",
"569 625 CURVE",
"561 657 OFFCURVE",
"536 673 OFFCURVE",
"498 673 CURVE SMOOTH",
"412 673 OFFCURVE",
"344 588 OFFCURVE",
"261 373 CURVE"
);
}
);
width = 462;
},
{
anchors = (
{
name = bottom;
position = "{195, 0}";
},
{
name = top;
position = "{339, 660}";
}
);
layerId = "1597CCFE-0C49-4087-BB13-985DDBBCAFFD";
paths = (
{
closed = 1;
nodes = (
"314 418 LINE SMOOTH",
"314 600 OFFCURVE",
"268 680 OFFCURVE",
"155 680 CURVE SMOOTH",
"97 680 OFFCURVE",
"52 658 OFFCURVE",
"24 623 CURVE",
"92 585 OFFCURVE",
"125 520 OFFCURVE",
"155 294 CURVE",
"97 0 LINE",
"314 0 LINE",
"364 256 LINE",
"429 438 OFFCURVE",
"546 580 OFFCURVE",
"650 626 CURVE",
"641 662 OFFCURVE",
"615 680 OFFCURVE",
"571 680 CURVE SMOOTH",
"468 680 OFFCURVE",
"394 581 OFFCURVE",
"314 347 CURVE"
);
}
);
width = 548;
},
{
anchors = (
{
name = bottom;
position = "{242, 0}";
},
{
name = top;
position = "{389, 660}";
}
);
layerId = "30A38917-B9D2-447A-AF98-EAADDBDD04CD";
paths = (
{
closed = 1;
nodes = (
"374 397 LINE SMOOTH",
"391 592 OFFCURVE",
"333 680 OFFCURVE",
"197 680 CURVE SMOOTH",
"128 680 OFFCURVE",
"76 656 OFFCURVE",
"39 621 CURVE",
"120 574 OFFCURVE",
"145 529 OFFCURVE",
"168 281 CURVE",
"113 0 LINE",
"380 0 LINE",
"425 229 LINE",
"488 430 OFFCURVE",
"620 579 OFFCURVE",
"734 620 CURVE",
"724 660 OFFCURVE",
"695 680 OFFCURVE",
"644 680 CURVE SMOOTH",
"525 680 OFFCURVE",
"445 574 OFFCURVE",
"368 320 CURVE"
);
}
);
width = 636;
},
{
anchors = (
{
name = bottom;
position = "{105, 0}";
},
{
name = top;
position = "{245, 660}";
}
);
layerId = "1252CFB8-7EB2-4C2F-9C11-14383990C0AA";
paths = (
{
closed = 1;
nodes = (
"174 472 LINE SMOOTH",
"133 623 OFFCURVE",
"115 663 OFFCURVE",
"59 663 CURVE SMOOTH",
"24 663 OFFCURVE",
"-2 646 OFFCURVE",
"-7 609 CURVE",
"28 595 OFFCURVE",
"81 498 OFFCURVE",
"128 327 CURVE",
"63 0 LINE",
"160 0 LINE",
"221 320 LINE",
"291 459 OFFCURVE",
"371 564 OFFCURVE",
"454 622 CURVE",
"447 650 OFFCURVE",
"425 663 OFFCURVE",
"397 663 CURVE SMOOTH",
"335 663 OFFCURVE",
"276 598 OFFCURVE",
"190 411 CURVE"
);
}
);
width = 345;
}
);
leftKerningGroup = Y;
note = Y;
rightKerningGroup = Y;
unicode = 0059;
},
{
glyphname = Z;
layers = (
{
anchors = (
{
name = top;
position = "{295, 660}";
}
);
background = {
paths = (
{
closed = 1;
nodes = (
"-16 101 LINE SMOOTH",
"-26 89 OFFCURVE",
"-32 73 OFFCURVE",
"-32 57 CURVE SMOOTH",
"-32 35 OFFCURVE",
"-21 12 OFFCURVE",
"-7 0 CURVE",
"10 7 OFFCURVE",
"33 12 OFFCURVE",
"63 12 CURVE SMOOTH",
"132 12 OFFCURVE",
"218 -15 OFFCURVE",
"297 -15 CURVE SMOOTH",
"356 -15 OFFCURVE",
"407 0 OFFCURVE",
"407 59 CURVE SMOOTH",
"407 77 OFFCURVE",
"402 95 OFFCURVE",
"394 109 CURVE",
"367 93 OFFCURVE",
"336 87 OFFCURVE",
"286 87 CURVE SMOOTH",
"225 87 OFFCURVE",
"159 96 OFFCURVE",
"114 105 CURVE",
"477 564 LINE SMOOTH",
"485 574 OFFCURVE",
"490 589 OFFCURVE",
"490 604 CURVE SMOOTH",
"490 625 OFFCURVE",
"479 648 OFFCURVE",
"465 660 CURVE",
"448 653 OFFCURVE",
"425 648 OFFCURVE",
"395 648 CURVE SMOOTH",
"325 648 OFFCURVE",
"249 675 OFFCURVE",
"171 675 CURVE SMOOTH",
"111 675 OFFCURVE",
"60 660 OFFCURVE",
"60 602 CURVE SMOOTH",
"60 583 OFFCURVE",
"65 565 OFFCURVE",
"73 551 CURVE",
"100 567 OFFCURVE",
"132 573 OFFCURVE",
"181 573 CURVE SMOOTH",
"242 573 OFFCURVE",
"300 564 OFFCURVE",
"346 555 CURVE"
);
}
);
};
layerId = "B7BBAE14-F4F3-4898-8D83-DD158C3247C2";
paths = (
{
closed = 1;
nodes = (
"-16 101 LINE SMOOTH",
"-26 89 OFFCURVE",
"-32 73 OFFCURVE",
"-32 57 CURVE SMOOTH",
"-32 35 OFFCURVE",
"-21 12 OFFCURVE",
"-7 0 CURVE",
"10 7 OFFCURVE",
"33 12 OFFCURVE",
"63 12 CURVE SMOOTH",
"132 12 OFFCURVE",
"225 -20 OFFCURVE",
"304 -20 CURVE SMOOTH",
"373 -20 OFFCURVE",
"404 9 OFFCURVE",
"404 49 CURVE SMOOTH",
"404 63 OFFCURVE",
"401 77 OFFCURVE",
"394 93 CURVE",
"372 88 OFFCURVE",
"341 85 OFFCURVE",
"308 85 CURVE SMOOTH",
"246 85 OFFCURVE",
"172 93 OFFCURVE",
"114 105 CURVE",
"477 564 LINE SMOOTH",
"485 574 OFFCURVE",
"490 589 OFFCURVE",
"490 604 CURVE SMOOTH",
"490 625 OFFCURVE",
"479 648 OFFCURVE",
"465 660 CURVE",
"448 653 OFFCURVE",
"425 648 OFFCURVE",
"395 648 CURVE SMOOTH",
"325 648 OFFCURVE",
"249 675 OFFCURVE",
"171 675 CURVE SMOOTH",
"111 675 OFFCURVE",
"60 660 OFFCURVE",
"60 602 CURVE SMOOTH",
"60 583 OFFCURVE",
"65 565 OFFCURVE",
"73 551 CURVE",
"100 567 OFFCURVE",
"132 573 OFFCURVE",
"181 573 CURVE SMOOTH",
"242 573 OFFCURVE",
"300 564 OFFCURVE",
"346 555 CURVE"
);
}
);
width = 449;
},
{
anchors = (
{
name = top;
position = "{307, 660}";
}
);
background = {
paths = (
{
closed = 1;
nodes = (
"19 159 LINE",
"-9 135 OFFCURVE",
"-20 108 OFFCURVE",
"-20 80 CURVE SMOOTH",
"-20 49 OFFCURVE",
"-6 15 OFFCURVE",
"12 0 CURVE",
"26 8 OFFCURVE",
"44 14 OFFCURVE",
"73 14 CURVE SMOOTH",
"138 14 OFFCURVE",
"226 -14 OFFCURVE",
"312 -14 CURVE SMOOTH",
"404 -14 OFFCURVE",
"448 19 OFFCURVE",
"448 85 CURVE SMOOTH",
"448 108 OFFCURVE",
"443 130 OFFCURVE",
"429 150 CURVE",
"401 129 OFFCURVE",
"366 124 OFFCURVE",
"319 124 CURVE SMOOTH",
"262 124 OFFCURVE",
"194 131 OFFCURVE",
"143 143 CURVE",
"485 504 LINE",
"512 527 OFFCURVE",
"526 552 OFFCURVE",
"526 585 CURVE SMOOTH",
"526 612 OFFCURVE",
"516 641 OFFCURVE",
"493 660 CURVE",
"471 653 OFFCURVE",
"443 649 OFFCURVE",
"415 649 CURVE SMOOTH",
"342 649 OFFCURVE",
"261 675 OFFCURVE",
"185 675 CURVE SMOOTH",
"114 675 OFFCURVE",
"61 652 OFFCURVE",
"61 585 CURVE SMOOTH",
"61 559 OFFCURVE",
"69 534 OFFCURVE",
"81 515 CURVE",
"108 529 OFFCURVE",
"145 537 OFFCURVE",
"187 537 CURVE SMOOTH",
"229 537 OFFCURVE",
"278 531 OFFCURVE",
"357 518 CURVE"
);
}
);
};
layerId = "7A350A25-044B-4D59-B0E9-6A59A980AC73";
paths = (
{
closed = 1;
nodes = (
"19 159 LINE",
"-9 135 OFFCURVE",
"-20 108 OFFCURVE",
"-20 80 CURVE SMOOTH",
"-20 49 OFFCURVE",
"-6 15 OFFCURVE",
"12 0 CURVE",
"26 8 OFFCURVE",
"44 14 OFFCURVE",
"73 14 CURVE SMOOTH",
"138 14 OFFCURVE",
"246 -14 OFFCURVE",
"332 -14 CURVE SMOOTH",
"402 -14 OFFCURVE",
"446 20 OFFCURVE",
"446 73 CURVE SMOOTH",
"446 91 OFFCURVE",
"440 111 OFFCURVE",
"429 133 CURVE",
"393 126 OFFCURVE",
"355 123 OFFCURVE",
"318 123 CURVE SMOOTH",
"258 123 OFFCURVE",
"198 131 OFFCURVE",
"143 143 CURVE",
"485 504 LINE",
"512 527 OFFCURVE",
"526 552 OFFCURVE",
"526 585 CURVE SMOOTH",
"526 612 OFFCURVE",
"516 641 OFFCURVE",
"493 660 CURVE",
"471 653 OFFCURVE",
"443 649 OFFCURVE",
"415 649 CURVE SMOOTH",
"342 649 OFFCURVE",
"261 675 OFFCURVE",
"185 675 CURVE SMOOTH",
"114 675 OFFCURVE",
"61 652 OFFCURVE",
"61 585 CURVE SMOOTH",
"61 559 OFFCURVE",
"69 534 OFFCURVE",
"81 515 CURVE",
"108 529 OFFCURVE",
"145 537 OFFCURVE",
"187 537 CURVE SMOOTH",
"229 537 OFFCURVE",
"278 531 OFFCURVE",
"357 518 CURVE"
);
}
);
width = 494;
},
{
anchors = (
{
name = top;
position = "{325, 660}";
}
);
background = {
paths = (
{
closed = 1;
nodes = (
"54 217 LINE SMOOTH",
"9 180 OFFCURVE",
"-8 143 OFFCURVE",
"-8 103 CURVE SMOOTH",
"-8 62 OFFCURVE",
"10 18 OFFCURVE",
"31 0 CURVE",
"41 9 OFFCURVE",
"55 15 OFFCURVE",
"83 15 CURVE SMOOTH",
"144 15 OFFCURVE",
"233 -12 OFFCURVE",
"326 -12 CURVE SMOOTH",
"452 -12 OFFCURVE",
"489 37 OFFCURVE",
"489 112 CURVE SMOOTH",
"489 140 OFFCURVE",
"484 164 OFFCURVE",
"463 191 CURVE",
"435 164 OFFCURVE",
"395 160 OFFCURVE",
"351 160 CURVE SMOOTH",
"298 160 OFFCURVE",
"228 166 OFFCURVE",
"171 181 CURVE",
"493 444 LINE SMOOTH",
"538 480 OFFCURVE",
"561 514 OFFCURVE",
"561 566 CURVE SMOOTH",
"561 599 OFFCURVE",
"552 634 OFFCURVE",
"521 660 CURVE",
"493 653 OFFCURVE",
"460 650 OFFCURVE",
"434 650 CURVE SMOOTH",
"358 650 OFFCURVE",
"273 675 OFFCURVE",
"199 675 CURVE SMOOTH",
"116 675 OFFCURVE",
"61 643 OFFCURVE",
"61 567 CURVE SMOOTH",
"61 534 OFFCURVE",
"72 503 OFFCURVE",
"88 478 CURVE",
"116 491 OFFCURVE",
"158 501 OFFCURVE",
"192 501 CURVE SMOOTH",
"214 501 OFFCURVE",
"253 497 OFFCURVE",
"368 480 CURVE"
);
}
);
};
layerId = "1597CCFE-0C49-4087-BB13-985DDBBCAFFD";
paths = (
{
closed = 1;
nodes = (
"54 217 LINE SMOOTH",
"9 180 OFFCURVE",
"-8 143 OFFCURVE",
"-8 103 CURVE SMOOTH",
"-8 62 OFFCURVE",
"10 18 OFFCURVE",
"31 0 CURVE",
"41 9 OFFCURVE",
"55 15 OFFCURVE",
"83 15 CURVE SMOOTH",
"144 15 OFFCURVE",
"253 -12 OFFCURVE",
"346 -12 CURVE SMOOTH",
"433 -12 OFFCURVE",
"487 32 OFFCURVE",
"487 95 CURVE SMOOTH",
"487 118 OFFCURVE",
"479 144 OFFCURVE",
"463 172 CURVE",
"428 163 OFFCURVE",
"389 159 OFFCURVE",
"349 159 CURVE SMOOTH",
"290 159 OFFCURVE",
"228 168 OFFCURVE",
"171 181 CURVE",
"493 444 LINE SMOOTH",
"538 480 OFFCURVE",
"561 514 OFFCURVE",
"561 566 CURVE SMOOTH",
"561 599 OFFCURVE",
"552 634 OFFCURVE",
"521 660 CURVE",
"493 653 OFFCURVE",
"460 650 OFFCURVE",
"434 650 CURVE SMOOTH",
"358 650 OFFCURVE",
"273 675 OFFCURVE",
"199 675 CURVE SMOOTH",
"116 675 OFFCURVE",
"61 643 OFFCURVE",
"61 567 CURVE SMOOTH",
"61 534 OFFCURVE",
"72 503 OFFCURVE",
"88 478 CURVE",
"116 491 OFFCURVE",
"158 501 OFFCURVE",
"192 501 CURVE SMOOTH",
"214 501 OFFCURVE",
"253 497 OFFCURVE",
"368 480 CURVE"
);
}
);
width = 538;
},
{
anchors = (
{
name = top;
position = "{351, 660}";
}
);
background = {
paths = (
{
closed = 1;
nodes = (
"90 276 LINE SMOOTH",
"21 237 OFFCURVE",
"6 179 OFFCURVE",
"6 127 CURVE SMOOTH",
"6 75 OFFCURVE",
"27 21 OFFCURVE",
"52 0 CURVE",
"58 10 OFFCURVE",
"68 16 OFFCURVE",
"95 16 CURVE SMOOTH",
"150 16 OFFCURVE",
"240 -11 OFFCURVE",
"342 -11 CURVE SMOOTH",
"474 -11 OFFCURVE",
"538 41 OFFCURVE",
"538 117 CURVE SMOOTH",
"538 152 OFFCURVE",
"525 191 OFFCURVE",
"499 233 CURVE",
"470 201 OFFCURVE",
"426 198 OFFCURVE",
"385 198 CURVE SMOOTH",
"336 198 OFFCURVE",
"264 202 OFFCURVE",
"201 220 CURVE",
"503 383 LINE SMOOTH",
"573 421 OFFCURVE",
"598 475 OFFCURVE",
"598 547 CURVE SMOOTH",
"598 586 OFFCURVE",
"590 627 OFFCURVE",
"550 660 CURVE",
"517 653 OFFCURVE",
"479 651 OFFCURVE",
"455 651 CURVE SMOOTH",
"376 651 OFFCURVE",
"287 675 OFFCURVE",
"215 675 CURVE SMOOTH",
"118 675 OFFCURVE",
"61 635 OFFCURVE",
"61 550 CURVE SMOOTH",
"61 508 OFFCURVE",
"75 471 OFFCURVE",
"95 440 CURVE",
"113 447 OFFCURVE",
"146 460 OFFCURVE",
"213 460 CURVE SMOOTH",
"254 460 OFFCURVE",
"309 455 OFFCURVE",
"381 441 CURVE"
);
}
);
};
layerId = "30A38917-B9D2-447A-AF98-EAADDBDD04CD";
paths = (
{
closed = 1;
nodes = (
"90 276 LINE SMOOTH",
"21 237 OFFCURVE",
"6 179 OFFCURVE",
"6 127 CURVE SMOOTH",
"6 75 OFFCURVE",
"27 21 OFFCURVE",
"52 0 CURVE",
"58 10 OFFCURVE",
"68 16 OFFCURVE",
"95 16 CURVE SMOOTH",
"150 16 OFFCURVE",
"276 -11 OFFCURVE",
"378 -11 CURVE SMOOTH",
"486 -11 OFFCURVE",
"537 43 OFFCURVE",
"537 112 CURVE SMOOTH",
"537 144 OFFCURVE",
"526 178 OFFCURVE",
"505 212 CURVE",
"475 202 OFFCURVE",
"433 197 OFFCURVE",
"386 197 CURVE SMOOTH",
"325 197 OFFCURVE",
"257 205 OFFCURVE",
"201 220 CURVE",
"503 383 LINE SMOOTH",
"573 421 OFFCURVE",
"598 475 OFFCURVE",
"598 547 CURVE SMOOTH",
"598 586 OFFCURVE",
"590 627 OFFCURVE",
"550 660 CURVE",
"517 653 OFFCURVE",
"479 651 OFFCURVE",
"455 651 CURVE SMOOTH",
"376 651 OFFCURVE",
"287 675 OFFCURVE",
"215 675 CURVE SMOOTH",
"118 675 OFFCURVE",
"61 635 OFFCURVE",
"61 550 CURVE SMOOTH",
"61 508 OFFCURVE",
"75 471 OFFCURVE",
"95 440 CURVE",
"113 447 OFFCURVE",
"146 460 OFFCURVE",
"213 460 CURVE SMOOTH",
"254 460 OFFCURVE",
"309 455 OFFCURVE",
"381 441 CURVE"
);
}
);
width = 562;
},
{
anchors = (
{
name = top;
position = "{294, 660}";
}
);
layerId = "1252CFB8-7EB2-4C2F-9C11-14383990C0AA";
paths = (
{
closed = 1;
nodes = (
"-27 74 LINE SMOOTH",
"-29 68 OFFCURVE",
"-33 57 OFFCURVE",
"-33 46 CURVE SMOOTH",
"-33 29 OFFCURVE",
"-23 11 OFFCURVE",
"-11 0 CURVE",
"8 7 OFFCURVE",
"33 11 OFFCURVE",
"63 11 CURVE SMOOTH",
"134 11 OFFCURVE",
"222 -22 OFFCURVE",
"298 -22 CURVE SMOOTH",
"364 -22 OFFCURVE",
"390 4 OFFCURVE",
"390 38 CURVE SMOOTH",
"390 50 OFFCURVE",
"388 61 OFFCURVE",
"383 75 CURVE",
"366 70 OFFCURVE",
"337 68 OFFCURVE",
"306 68 CURVE SMOOTH",
"243 68 OFFCURVE",
"164 75 OFFCURVE",
"106 87 CURVE",
"478 592 LINE SMOOTH",
"478 596 OFFCURVE",
"478 606 OFFCURVE",
"478 613 CURVE SMOOTH",
"478 631 OFFCURVE",
"467 651 OFFCURVE",
"457 660 CURVE",
"442 653 OFFCURVE",
"422 648 OFFCURVE",
"391 648 CURVE SMOOTH",
"322 648 OFFCURVE",
"248 675 OFFCURVE",
"169 675 CURVE SMOOTH",
"115 675 OFFCURVE",
"65 664 OFFCURVE",
"65 610 CURVE SMOOTH",
"65 594 OFFCURVE",
"68 579 OFFCURVE",
"74 568 CURVE",
"101 585 OFFCURVE",
"131 590 OFFCURVE",
"183 590 CURVE SMOOTH",
"253 590 OFFCURVE",
"316 579 OFFCURVE",
"346 572 CURVE"
);
}
);
width = 438;
}
);
note = Z;
unicode = 005A;
},
{
glyphname = Y.loclGUA;
layers = (
{
anchors = (
{
name = top;
position = "{362, 660}";
}
);
layerId = "B7BBAE14-F4F3-4898-8D83-DD158C3247C2";
paths = (
{
closed = 1;
nodes = (
"580 660 LINE",
"467 660 LINE",
"410 349 LINE SMOOTH",
"392 250 OFFCURVE",
"365 144 OFFCURVE",
"270 144 CURVE SMOOTH",
"217 144 OFFCURVE",
"192 178 OFFCURVE",
"192 231 CURVE SMOOTH",
"192 258 OFFCURVE",
"200 302 OFFCURVE",
"205 329 CURVE SMOOTH",
"266 660 LINE",
"148 660 LINE",
"87 340 LINE SMOOTH",
"80 305 OFFCURVE",
"74 260 OFFCURVE",
"73 226 CURVE SMOOTH",
"71 126 OFFCURVE",
"118 68 OFFCURVE",
"221 68 CURVE SMOOTH",
"275 68 OFFCURVE",
"325 80 OFFCURVE",
"364 118 CURVE",
"332 -47 OFFCURVE",
"296 -136 OFFCURVE",
"222 -136 CURVE SMOOTH",
"181 -136 OFFCURVE",
"162 -106 OFFCURVE",
"162 -66 CURVE SMOOTH",
"162 -45 OFFCURVE",
"168 -14 OFFCURVE",
"177 8 CURVE",
"164 16 OFFCURVE",
"145 21 OFFCURVE",
"128 21 CURVE SMOOTH",
"84 21 OFFCURVE",
"37 -12 OFFCURVE",
"37 -81 CURVE SMOOTH",
"37 -159 OFFCURVE",
"100 -199 OFFCURVE",
"187 -199 CURVE SMOOTH",
"398 -199 OFFCURVE",
"449 -34 OFFCURVE",
"487 164 CURVE SMOOTH"
);
}
);
width = 604;
},
{
anchors = (
{
name = top;
position = "{392, 660}";
}
);
layerId = "7A350A25-044B-4D59-B0E9-6A59A980AC73";
paths = (
{
closed = 1;
nodes = (
"631 660 LINE",
"480 660 LINE",
"420 341 LINE SMOOTH",
"403 247 OFFCURVE",
"378 152 OFFCURVE",
"297 152 CURVE SMOOTH",
"251 152 OFFCURVE",
"231 182 OFFCURVE",
"231 231 CURVE SMOOTH",
"231 258 OFFCURVE",
"238 302 OFFCURVE",
"243 331 CURVE SMOOTH",
"304 660 LINE",
"135 660 LINE",
"74 343 LINE SMOOTH",
"67 308 OFFCURVE",
"61 260 OFFCURVE",
"61 228 CURVE SMOOTH",
"60 122 OFFCURVE",
"121 68 OFFCURVE",
"229 68 CURVE SMOOTH",
"287 68 OFFCURVE",
"343 84 OFFCURVE",
"380 124 CURVE",
"353 -24 OFFCURVE",
"315 -135 OFFCURVE",
"231 -135 CURVE SMOOTH",
"188 -135 OFFCURVE",
"169 -104 OFFCURVE",
"169 -59 CURVE SMOOTH",
"169 -37 OFFCURVE",
"174 -10 OFFCURVE",
"184 14 CURVE",
"170 21 OFFCURVE",
"149 26 OFFCURVE",
"130 26 CURVE SMOOTH",
"77 26 OFFCURVE",
"21 -4 OFFCURVE",
"21 -77 CURVE SMOOTH",
"21 -165 OFFCURVE",
"106 -200 OFFCURVE",
"201 -200 CURVE SMOOTH",
"424 -200 OFFCURVE",
"497 -55 OFFCURVE",
"537 160 CURVE SMOOTH"
);
}
);
width = 644;
},
{
anchors = (
{
name = top;
position = "{413, 660}";
}
);
layerId = "1597CCFE-0C49-4087-BB13-985DDBBCAFFD";
paths = (
{
closed = 1;
nodes = (
"683 660 LINE",
"493 660 LINE",
"431 332 LINE SMOOTH",
"414 243 OFFCURVE",
"391 160 OFFCURVE",
"325 160 CURVE SMOOTH",
"286 160 OFFCURVE",
"270 186 OFFCURVE",
"270 231 CURVE SMOOTH",
"270 257 OFFCURVE",
"276 301 OFFCURVE",
"282 332 CURVE SMOOTH",
"343 660 LINE",
"123 660 LINE",
"62 345 LINE SMOOTH",
"55 310 OFFCURVE",
"49 259 OFFCURVE",
"49 230 CURVE SMOOTH",
"49 117 OFFCURVE",
"125 68 OFFCURVE",
"237 68 CURVE SMOOTH",
"300 68 OFFCURVE",
"361 87 OFFCURVE",
"396 129 CURVE",
"375 -1 OFFCURVE",
"335 -133 OFFCURVE",
"240 -133 CURVE SMOOTH",
"196 -133 OFFCURVE",
"177 -102 OFFCURVE",
"177 -52 CURVE SMOOTH",
"177 -28 OFFCURVE",
"181 -5 OFFCURVE",
"192 20 CURVE",
"176 26 OFFCURVE",
"154 31 OFFCURVE",
"133 31 CURVE SMOOTH",
"70 31 OFFCURVE",
"6 5 OFFCURVE",
"6 -73 CURVE SMOOTH",
"6 -170 OFFCURVE",
"113 -200 OFFCURVE",
"215 -200 CURVE SMOOTH",
"450 -200 OFFCURVE",
"545 -75 OFFCURVE",
"588 156 CURVE SMOOTH"
);
}
);
width = 684;
},
{
anchors = (
{
name = top;
position = "{442, 660}";
}
);
layerId = "30A38917-B9D2-447A-AF98-EAADDBDD04CD";
paths = (
{
closed = 1;
nodes = (
"737 660 LINE",
"508 660 LINE",
"443 324 LINE SMOOTH",
"427 240 OFFCURVE",
"406 168 OFFCURVE",
"354 168 CURVE SMOOTH",
"320 168 OFFCURVE",
"310 200 OFFCURVE",
"310 239 CURVE SMOOTH",
"310 270 OFFCURVE",
"316 305 OFFCURVE",
"322 333 CURVE SMOOTH",
"383 660 LINE",
"111 660 LINE",
"50 347 LINE SMOOTH",
"43 312 OFFCURVE",
"37 259 OFFCURVE",
"37 232 CURVE SMOOTH",
"38 113 OFFCURVE",
"128 68 OFFCURVE",
"247 68 CURVE SMOOTH",
"314 68 OFFCURVE",
"381 90 OFFCURVE",
"414 134 CURVE",
"398 23 OFFCURVE",
"356 -132 OFFCURVE",
"251 -132 CURVE SMOOTH",
"205 -132 OFFCURVE",
"186 -100 OFFCURVE",
"186 -45 CURVE SMOOTH",
"186 -20 OFFCURVE",
"189 -1 OFFCURVE",
"201 26 CURVE",
"182 31 OFFCURVE",
"158 36 OFFCURVE",
"135 36 CURVE SMOOTH",
"63 36 OFFCURVE",
"-9 13 OFFCURVE",
"-9 -69 CURVE SMOOTH",
"-9 -175 OFFCURVE",
"121 -200 OFFCURVE",
"231 -200 CURVE SMOOTH",
"477 -200 OFFCURVE",
"594 -95 OFFCURVE",
"641 152 CURVE SMOOTH"
);
}
);
width = 693;
},
{
anchors = (
{
name = top;
position = "{354, 660}";
}
);
layerId = "1252CFB8-7EB2-4C2F-9C11-14383990C0AA";
paths = (
{
closed = 1;
nodes = (
"561 660 LINE",
"466 660 LINE",
"410 353 LINE SMOOTH",
"392 252 OFFCURVE",
"364 140 OFFCURVE",
"262 140 CURVE SMOOTH",
"206 140 OFFCURVE",
"179 176 OFFCURVE",
"179 231 CURVE SMOOTH",
"179 258 OFFCURVE",
"187 302 OFFCURVE",
"192 328 CURVE SMOOTH",
"253 660 LINE",
"159 660 LINE",
"98 339 LINE SMOOTH",
"91 304 OFFCURVE",
"85 260 OFFCURVE",
"84 225 CURVE SMOOTH",
"81 128 OFFCURVE",
"121 68 OFFCURVE",
"222 68 CURVE SMOOTH",
"274 68 OFFCURVE",
"322 78 OFFCURVE",
"362 115 CURVE",
"327 -58 OFFCURVE",
"292 -137 OFFCURVE",
"223 -137 CURVE SMOOTH",
"183 -137 OFFCURVE",
"164 -107 OFFCURVE",
"164 -69 CURVE SMOOTH",
"164 -49 OFFCURVE",
"170 -16 OFFCURVE",
"179 5 CURVE",
"166 14 OFFCURVE",
"148 19 OFFCURVE",
"132 19 CURVE SMOOTH",
"92 19 OFFCURVE",
"49 -16 OFFCURVE",
"49 -83 CURVE SMOOTH",
"49 -156 OFFCURVE",
"102 -199 OFFCURVE",
"185 -199 CURVE SMOOTH",
"391 -199 OFFCURVE",
"432 -24 OFFCURVE",
"469 166 CURVE SMOOTH"
);
}
);
width = 595;
}
);
note = Y.loclGUA;
},
